<?xml version="1.0" encoding="utf-8" standalone="no"?>
<!DOCTYPE svg PUBLIC "-//W3C//DTD SVG 1.1//EN"
  "http://www.w3.org/Graphics/SVG/1.1/DTD/svg11.dtd">
<svg xmlns:xlink="http://www.w3.org/1999/xlink" width="432pt" height="288pt" viewBox="0 0 432 288" xmlns="http://www.w3.org/2000/svg" version="1.1">
 <metadata>
  <rdf:RDF xmlns:dc="http://purl.org/dc/elements/1.1/" xmlns:cc="http://creativecommons.org/ns#" xmlns:rdf="http://www.w3.org/1999/02/22-rdf-syntax-ns#">
   <cc:Work>
    <dc:type rdf:resource="http://purl.org/dc/dcmitype/StillImage"/>
    <dc:date>2022-05-10T23:01:00.557979</dc:date>
    <dc:format>image/svg+xml</dc:format>
    <dc:creator>
     <cc:Agent>
      <dc:title>Matplotlib v3.5.1, https://matplotlib.org/</dc:title>
     </cc:Agent>
    </dc:creator>
   </cc:Work>
  </rdf:RDF>
 </metadata>
 <defs>
  <style type="text/css">*{stroke-linejoin: round; stroke-linecap: butt}</style>
 </defs>
 <g id="figure_1">
  <g id="patch_1">
   <path d="M 0 288 
L 432 288 
L 432 0 
L 0 0 
L 0 288 
z
" style="fill: none"/>
  </g>
  <g id="axes_1">
   <g id="patch_2">
    <path d="M 216 27.426988 
L 189.243506 73.770595 
L 242.756494 73.770595 
z
" clip-path="url(#p576db8b568)" style="fill: #333333; stroke: #cccccc; stroke-linejoin: miter"/>
   </g>
   <g id="patch_3">
    <path d="M 216 22.909091 
L 212.087386 25.16804 
L 212.087386 29.685937 
L 216 31.944886 
L 219.912614 29.685937 
L 219.912614 25.16804 
z
" clip-path="url(#p576db8b568)" style="fill: #d99185"/>
   </g>
   <g id="patch_4">
    <path d="M 207.081169 36.92897 
L 201.931879 39.901914 
L 201.931879 45.847801 
L 207.081169 48.820745 
L 212.230458 45.847801 
L 212.230458 39.901914 
z
" clip-path="url(#p576db8b568)" style="fill: #d99185"/>
   </g>
   <g id="patch_5">
    <path d="M 198.162337 52.376839 
L 193.013048 55.349782 
L 193.013048 61.29567 
L 198.162337 64.268614 
L 203.311627 61.29567 
L 203.311627 55.349782 
z
" clip-path="url(#p576db8b568)" style="fill: #d99185"/>
   </g>
   <g id="patch_6">
    <path d="M 189.243506 69.252698 
L 185.330892 71.511646 
L 185.330892 76.029544 
L 189.243506 78.288493 
L 193.15612 76.029544 
L 193.15612 71.511646 
z
" clip-path="url(#p576db8b568)" style="fill: #d99185"/>
   </g>
   <g id="patch_7">
    <path d="M 224.918831 36.92897 
L 219.769542 39.901914 
L 219.769542 45.847801 
L 224.918831 48.820745 
L 230.068121 45.847801 
L 230.068121 39.901914 
z
" clip-path="url(#p576db8b568)" style="fill: #d99185"/>
   </g>
   <g id="patch_8">
    <path d="M 216 51.251834 
L 209.876428 54.78728 
L 209.876428 61.858172 
L 216 65.393618 
L 222.123572 61.858172 
L 222.123572 54.78728 
z
" clip-path="url(#p576db8b568)" style="fill: #d99185"/>
   </g>
   <g id="patch_9">
    <path d="M 207.081169 67.824708 
L 201.931879 70.797651 
L 201.931879 76.743539 
L 207.081169 79.716483 
L 212.230458 76.743539 
L 212.230458 70.797651 
z
" clip-path="url(#p576db8b568)" style="fill: #d99185"/>
   </g>
   <g id="patch_10">
    <path d="M 233.837663 52.376839 
L 228.688373 55.349782 
L 228.688373 61.29567 
L 233.837663 64.268614 
L 238.986952 61.29567 
L 238.986952 55.349782 
z
" clip-path="url(#p576db8b568)" style="fill: #d99185"/>
   </g>
   <g id="patch_11">
    <path d="M 224.918831 67.824708 
L 219.769542 70.797651 
L 219.769542 76.743539 
L 224.918831 79.716483 
L 230.068121 76.743539 
L 230.068121 70.797651 
z
" clip-path="url(#p576db8b568)" style="fill: #d99185"/>
   </g>
   <g id="patch_12">
    <path d="M 242.756494 69.252698 
L 238.84388 71.511646 
L 238.84388 76.029544 
L 242.756494 78.288493 
L 246.669108 76.029544 
L 246.669108 71.511646 
z
" clip-path="url(#p576db8b568)" style="fill: #d99185"/>
   </g>
   <g id="patch_13">
    <path d="M 180.324675 89.218464 
L 153.568181 135.562071 
L 207.081169 135.562071 
z
" clip-path="url(#p576db8b568)" style="fill: #333333; stroke: #cccccc; stroke-linejoin: miter"/>
   </g>
   <g id="patch_14">
    <path d="M 180.324675 83.272576 
L 175.175385 86.24552 
L 175.175385 92.191408 
L 180.324675 95.164351 
L 185.473965 92.191408 
L 185.473965 86.24552 
z
" clip-path="url(#p576db8b568)" style="fill: #d99185"/>
   </g>
   <g id="patch_15">
    <path d="M 171.405844 98.720445 
L 166.256554 101.693389 
L 166.256554 107.639277 
L 171.405844 110.61222 
L 176.555133 107.639277 
L 176.555133 101.693389 
z
" clip-path="url(#p576db8b568)" style="fill: #ca9973"/>
   </g>
   <g id="patch_16">
    <path d="M 162.487012 114.168314 
L 157.337723 117.141258 
L 157.337723 123.087145 
L 162.487012 126.060089 
L 167.636302 123.087145 
L 167.636302 117.141258 
z
" clip-path="url(#p576db8b568)" style="fill: #96aa72"/>
   </g>
   <g id="patch_17">
    <path d="M 153.568181 129.616183 
L 148.418892 132.589127 
L 148.418892 138.535014 
L 153.568181 141.507958 
L 158.717471 138.535014 
L 158.717471 132.589127 
z
" clip-path="url(#p576db8b568)" style="fill: #76b08a"/>
   </g>
   <g id="patch_18">
    <path d="M 189.243506 98.720445 
L 184.094217 101.693389 
L 184.094217 107.639277 
L 189.243506 110.61222 
L 194.392796 107.639277 
L 194.392796 101.693389 
z
" clip-path="url(#p576db8b568)" style="fill: #d78fa1"/>
   </g>
   <g id="patch_19">
    <path d="M 180.324675 120.114202 
L 180.324675 120.114202 
L 180.324675 120.114202 
L 180.324675 120.114202 
L 180.324675 120.114202 
L 180.324675 120.114202 
z
" clip-path="url(#p576db8b568)" style="fill: #7aaf86"/>
   </g>
   <g id="patch_20">
    <path d="M 171.405844 129.616183 
L 166.256554 132.589127 
L 166.256554 138.535014 
L 171.405844 141.507958 
L 176.555133 138.535014 
L 176.555133 132.589127 
z
" clip-path="url(#p576db8b568)" style="fill: #58b2a5"/>
   </g>
   <g id="patch_21">
    <path d="M 198.162337 114.168314 
L 193.013048 117.141258 
L 193.013048 123.087145 
L 198.162337 126.060089 
L 203.311627 123.087145 
L 203.311627 117.141258 
z
" clip-path="url(#p576db8b568)" style="fill: #aa9bd3"/>
   </g>
   <g id="patch_22">
    <path d="M 189.243506 129.616183 
L 184.094217 132.589127 
L 184.094217 138.535014 
L 189.243506 141.507958 
L 194.392796 138.535014 
L 194.392796 132.589127 
z
" clip-path="url(#p576db8b568)" style="fill: #5cacd3"/>
   </g>
   <g id="patch_23">
    <path d="M 207.081169 129.616183 
L 201.931879 132.589127 
L 201.931879 138.535014 
L 207.081169 141.507958 
L 212.230458 138.535014 
L 212.230458 132.589127 
z
" clip-path="url(#p576db8b568)" style="fill: #84a5d9"/>
   </g>
   <g id="patch_24">
    <path d="M 144.64935 151.009939 
L 117.892856 197.353546 
L 171.405844 197.353546 
z
" clip-path="url(#p576db8b568)" style="fill: #333333; stroke: #cccccc; stroke-linejoin: miter"/>
   </g>
   <g id="patch_25">
    <path d="M 144.64935 145.064052 
L 139.50006 148.036996 
L 139.50006 153.982883 
L 144.64935 156.955827 
L 149.79864 153.982883 
L 149.79864 148.036996 
z
" clip-path="url(#p576db8b568)" style="fill: #d99185"/>
   </g>
   <g id="patch_26">
    <path d="M 135.730519 160.511921 
L 130.581229 163.484865 
L 130.581229 169.430752 
L 135.730519 172.403696 
L 140.879808 169.430752 
L 140.879808 163.484865 
z
" clip-path="url(#p576db8b568)" style="fill: #96aa72"/>
   </g>
   <g id="patch_27">
    <path d="M 126.811687 175.95979 
L 121.662398 178.932733 
L 121.662398 184.878621 
L 126.811687 187.851565 
L 131.960977 184.878621 
L 131.960977 178.932733 
z
" clip-path="url(#p576db8b568)" style="fill: #58b2a5"/>
   </g>
   <g id="patch_28">
    <path d="M 117.892856 191.407659 
L 112.743567 194.380602 
L 112.743567 200.32649 
L 117.892856 203.299434 
L 123.042146 200.32649 
L 123.042146 194.380602 
z
" clip-path="url(#p576db8b568)" style="fill: #84a5d9"/>
   </g>
   <g id="patch_29">
    <path d="M 153.568181 160.511921 
L 148.418892 163.484865 
L 148.418892 169.430752 
L 153.568181 172.403696 
L 158.717471 169.430752 
L 158.717471 163.484865 
z
" clip-path="url(#p576db8b568)" style="fill: #aa9bd3"/>
   </g>
   <g id="patch_30">
    <path d="M 144.64935 181.905677 
L 144.64935 181.905677 
L 144.64935 181.905677 
L 144.64935 181.905677 
L 144.64935 181.905677 
L 144.64935 181.905677 
z
" clip-path="url(#p576db8b568)" style="fill: #80a5d9"/>
   </g>
   <g id="patch_31">
    <path d="M 135.730519 191.407659 
L 130.581229 194.380602 
L 130.581229 200.32649 
L 135.730519 203.299434 
L 140.879808 200.32649 
L 140.879808 194.380602 
z
" clip-path="url(#p576db8b568)" style="fill: #d78fa1"/>
   </g>
   <g id="patch_32">
    <path d="M 162.487012 175.95979 
L 157.337723 178.932733 
L 157.337723 184.878621 
L 162.487012 187.851565 
L 167.636302 184.878621 
L 167.636302 178.932733 
z
" clip-path="url(#p576db8b568)" style="fill: #5cacd3"/>
   </g>
   <g id="patch_33">
    <path d="M 153.568181 191.407659 
L 148.418892 194.380602 
L 148.418892 200.32649 
L 153.568181 203.299434 
L 158.717471 200.32649 
L 158.717471 194.380602 
z
" clip-path="url(#p576db8b568)" style="fill: #ca9973"/>
   </g>
   <g id="patch_34">
    <path d="M 171.405844 191.407659 
L 166.256554 194.380602 
L 166.256554 200.32649 
L 171.405844 203.299434 
L 176.555133 200.32649 
L 176.555133 194.380602 
z
" clip-path="url(#p576db8b568)" style="fill: #76b08a"/>
   </g>
   <g id="patch_35">
    <path d="M 108.974025 212.801415 
L 82.217531 259.145022 
L 135.730519 259.145022 
z
" clip-path="url(#p576db8b568)" style="fill: #333333; stroke: #cccccc; stroke-linejoin: miter"/>
   </g>
   <g id="patch_36">
    <path d="M 108.974025 208.283517 
L 105.061411 210.542466 
L 105.061411 215.060364 
L 108.974025 217.319312 
L 112.886639 215.060364 
L 112.886639 210.542466 
z
" clip-path="url(#p576db8b568)" style="fill: #d99185"/>
   </g>
   <g id="patch_37">
    <path d="M 100.055194 222.303396 
L 94.905904 225.27634 
L 94.905904 231.222228 
L 100.055194 234.195171 
L 105.204483 231.222228 
L 105.204483 225.27634 
z
" clip-path="url(#p576db8b568)" style="fill: #76b08a"/>
   </g>
   <g id="patch_38">
    <path d="M 91.136362 237.751265 
L 85.987073 240.724209 
L 85.987073 246.670096 
L 91.136362 249.64304 
L 96.285652 246.670096 
L 96.285652 240.724209 
z
" clip-path="url(#p576db8b568)" style="fill: #84a5d9"/>
   </g>
   <g id="patch_39">
    <path d="M 82.217531 254.627124 
L 78.304917 256.886073 
L 78.304917 261.40397 
L 82.217531 263.662919 
L 86.130145 261.40397 
L 86.130145 256.886073 
z
" clip-path="url(#p576db8b568)" style="fill: #da9086"/>
   </g>
   <g id="patch_40">
    <path d="M 117.892856 222.303396 
L 112.743567 225.27634 
L 112.743567 231.222228 
L 117.892856 234.195171 
L 123.042146 231.222228 
L 123.042146 225.27634 
z
" clip-path="url(#p576db8b568)" style="fill: #84a5d9"/>
   </g>
   <g id="patch_41">
    <path d="M 108.974025 236.626261 
L 102.850453 240.161707 
L 102.850453 247.232599 
L 108.974025 250.768044 
L 115.097597 247.232599 
L 115.097597 240.161707 
z
" clip-path="url(#p576db8b568)" style="fill: #da9086"/>
   </g>
   <g id="patch_42">
    <path d="M 100.055194 253.199134 
L 94.905904 256.172078 
L 94.905904 262.117965 
L 100.055194 265.090909 
L 105.204483 262.117965 
L 105.204483 256.172078 
z
" clip-path="url(#p576db8b568)" style="fill: #76b08a"/>
   </g>
   <g id="patch_43">
    <path d="M 126.811687 237.751265 
L 121.662398 240.724209 
L 121.662398 246.670096 
L 126.811687 249.64304 
L 131.960977 246.670096 
L 131.960977 240.724209 
z
" clip-path="url(#p576db8b568)" style="fill: #76b08a"/>
   </g>
   <g id="patch_44">
    <path d="M 117.892856 253.199134 
L 112.743567 256.172078 
L 112.743567 262.117965 
L 117.892856 265.090909 
L 123.042146 262.117965 
L 123.042146 256.172078 
z
" clip-path="url(#p576db8b568)" style="fill: #84a5d9"/>
   </g>
   <g id="patch_45">
    <path d="M 135.730519 254.627124 
L 131.817905 256.886073 
L 131.817905 261.40397 
L 135.730519 263.662919 
L 139.643133 261.40397 
L 139.643133 256.886073 
z
" clip-path="url(#p576db8b568)" style="fill: #da9086"/>
   </g>
   <g id="patch_46">
    <path d="M 251.675325 89.218464 
L 224.918831 135.562071 
L 278.431819 135.562071 
z
" clip-path="url(#p576db8b568)" style="fill: #333333; stroke: #cccccc; stroke-linejoin: miter"/>
   </g>
   <g id="patch_47">
    <path d="M 251.675325 83.272576 
L 246.526035 86.24552 
L 246.526035 92.191408 
L 251.675325 95.164351 
L 256.824615 92.191408 
L 256.824615 86.24552 
z
" clip-path="url(#p576db8b568)" style="fill: #d99185"/>
   </g>
   <g id="patch_48">
    <path d="M 242.756494 98.720445 
L 237.607204 101.693389 
L 237.607204 107.639277 
L 242.756494 110.61222 
L 247.905783 107.639277 
L 247.905783 101.693389 
z
" clip-path="url(#p576db8b568)" style="fill: #d78fa1"/>
   </g>
   <g id="patch_49">
    <path d="M 233.837663 114.168314 
L 228.688373 117.141258 
L 228.688373 123.087145 
L 233.837663 126.060089 
L 238.986952 123.087145 
L 238.986952 117.141258 
z
" clip-path="url(#p576db8b568)" style="fill: #aa9bd3"/>
   </g>
   <g id="patch_50">
    <path d="M 224.918831 129.616183 
L 219.769542 132.589127 
L 219.769542 138.535014 
L 224.918831 141.507958 
L 230.068121 138.535014 
L 230.068121 132.589127 
z
" clip-path="url(#p576db8b568)" style="fill: #84a5d9"/>
   </g>
   <g id="patch_51">
    <path d="M 260.594156 98.720445 
L 255.444867 101.693389 
L 255.444867 107.639277 
L 260.594156 110.61222 
L 265.743446 107.639277 
L 265.743446 101.693389 
z
" clip-path="url(#p576db8b568)" style="fill: #ca9973"/>
   </g>
   <g id="patch_52">
    <path d="M 251.675325 120.114202 
L 251.675325 120.114202 
L 251.675325 120.114202 
L 251.675325 120.114202 
L 251.675325 120.114202 
L 251.675325 120.114202 
z
" clip-path="url(#p576db8b568)" style="fill: #aba56d"/>
   </g>
   <g id="patch_53">
    <path d="M 242.756494 129.616183 
L 237.607204 132.589127 
L 237.607204 138.535014 
L 242.756494 141.507958 
L 247.905783 138.535014 
L 247.905783 132.589127 
z
" clip-path="url(#p576db8b568)" style="fill: #5cacd3"/>
   </g>
   <g id="patch_54">
    <path d="M 269.512988 114.168314 
L 264.363698 117.141258 
L 264.363698 123.087145 
L 269.512988 126.060089 
L 274.662277 123.087145 
L 274.662277 117.141258 
z
" clip-path="url(#p576db8b568)" style="fill: #96aa72"/>
   </g>
   <g id="patch_55">
    <path d="M 260.594156 129.616183 
L 255.444867 132.589127 
L 255.444867 138.535014 
L 260.594156 141.507958 
L 265.743446 138.535014 
L 265.743446 132.589127 
z
" clip-path="url(#p576db8b568)" style="fill: #58b2a5"/>
   </g>
   <g id="patch_56">
    <path d="M 278.431819 129.616183 
L 273.282529 132.589127 
L 273.282529 138.535014 
L 278.431819 141.507958 
L 283.581108 138.535014 
L 283.581108 132.589127 
z
" clip-path="url(#p576db8b568)" style="fill: #76b08a"/>
   </g>
   <g id="patch_57">
    <path d="M 216 151.009939 
L 189.243506 197.353546 
L 242.756494 197.353546 
z
" clip-path="url(#p576db8b568)" style="fill: #333333; stroke: #cccccc; stroke-linejoin: miter"/>
   </g>
   <g id="patch_58">
    <path d="M 216 143.939048 
L 209.876428 147.474494 
L 209.876428 154.545385 
L 216 158.080831 
L 222.123572 154.545385 
L 222.123572 147.474494 
z
" clip-path="url(#p576db8b568)" style="fill: #d99185"/>
   </g>
   <g id="patch_59">
    <path d="M 207.081169 166.457808 
L 207.081169 166.457808 
L 207.081169 166.457808 
L 207.081169 166.457808 
L 207.081169 166.457808 
L 207.081169 166.457808 
z
" clip-path="url(#p576db8b568)" style="fill: #7aaf86"/>
   </g>
   <g id="patch_60">
    <path d="M 198.162337 181.905677 
L 198.162337 181.905677 
L 198.162337 181.905677 
L 198.162337 181.905677 
L 198.162338 181.905677 
L 198.162338 181.905677 
z
" clip-path="url(#p576db8b568)" style="fill: #80a5d9"/>
   </g>
   <g id="patch_61">
    <path d="M 189.243506 190.282654 
L 183.119934 193.8181 
L 183.119934 200.888992 
L 189.243506 204.424438 
L 195.367078 200.888992 
L 195.367078 193.8181 
z
" clip-path="url(#p576db8b568)" style="fill: #da9086"/>
   </g>
   <g id="patch_62">
    <path d="M 224.918831 166.457808 
L 224.918831 166.457808 
L 224.918831 166.457808 
L 224.918831 166.457808 
L 224.918831 166.457808 
L 224.918831 166.457808 
z
" clip-path="url(#p576db8b568)" style="fill: #b4a26d"/>
   </g>
   <g id="patch_63">
    <path d="M 216 174.080449 
L 209.223154 177.993063 
L 209.223154 185.818291 
L 216 189.730905 
L 222.776846 185.818291 
L 222.776846 177.993063 
z
" clip-path="url(#p576db8b568)" style="fill: #42b2c1"/>
   </g>
   <g id="patch_64">
    <path d="M 207.081169 197.353546 
L 207.081169 197.353546 
L 207.081169 197.353546 
L 207.081169 197.353546 
L 207.081169 197.353546 
L 207.081169 197.353546 
z
" clip-path="url(#p576db8b568)" style="fill: #82ae80"/>
   </g>
   <g id="patch_65">
    <path d="M 233.837663 181.905677 
L 233.837662 181.905677 
L 233.837662 181.905677 
L 233.837663 181.905677 
L 233.837663 181.905677 
L 233.837663 181.905677 
z
" clip-path="url(#p576db8b568)" style="fill: #c294c3"/>
   </g>
   <g id="patch_66">
    <path d="M 224.918831 197.353546 
L 224.918831 197.353546 
L 224.918831 197.353546 
L 224.918831 197.353546 
L 224.918831 197.353546 
L 224.918831 197.353546 
z
" clip-path="url(#p576db8b568)" style="fill: #ac9ad2"/>
   </g>
   <g id="patch_67">
    <path d="M 242.756494 190.282654 
L 236.632922 193.8181 
L 236.632922 200.888992 
L 242.756494 204.424438 
L 248.880066 200.888992 
L 248.880066 193.8181 
z
" clip-path="url(#p576db8b568)" style="fill: #da9086"/>
   </g>
   <g id="patch_68">
    <path d="M 180.324675 212.801415 
L 153.568181 259.145022 
L 207.081169 259.145022 
z
" clip-path="url(#p576db8b568)" style="fill: #333333; stroke: #cccccc; stroke-linejoin: miter"/>
   </g>
   <g id="patch_69">
    <path d="M 180.324675 206.855527 
L 175.175385 209.828471 
L 175.175385 215.774359 
L 180.324675 218.747302 
L 185.473965 215.774359 
L 185.473965 209.828471 
z
" clip-path="url(#p576db8b568)" style="fill: #d99185"/>
   </g>
   <g id="patch_70">
    <path d="M 171.405844 222.303396 
L 166.256554 225.27634 
L 166.256554 231.222228 
L 171.405844 234.195171 
L 176.555133 231.222228 
L 176.555133 225.27634 
z
" clip-path="url(#p576db8b568)" style="fill: #58b2a5"/>
   </g>
   <g id="patch_71">
    <path d="M 162.487012 237.751265 
L 157.337723 240.724209 
L 157.337723 246.670096 
L 162.487012 249.64304 
L 167.636302 246.670096 
L 167.636302 240.724209 
z
" clip-path="url(#p576db8b568)" style="fill: #d78fa1"/>
   </g>
   <g id="patch_72">
    <path d="M 153.568181 253.199134 
L 148.418892 256.172078 
L 148.418892 262.117965 
L 153.568181 265.090909 
L 158.717471 262.117965 
L 158.717471 256.172078 
z
" clip-path="url(#p576db8b568)" style="fill: #76b08a"/>
   </g>
   <g id="patch_73">
    <path d="M 189.243506 222.303396 
L 184.094217 225.27634 
L 184.094217 231.222228 
L 189.243506 234.195171 
L 194.392796 231.222228 
L 194.392796 225.27634 
z
" clip-path="url(#p576db8b568)" style="fill: #5cacd3"/>
   </g>
   <g id="patch_74">
    <path d="M 180.324675 243.697153 
L 180.324675 243.697153 
L 180.324675 243.697153 
L 180.324675 243.697153 
L 180.324675 243.697153 
L 180.324675 243.697153 
z
" clip-path="url(#p576db8b568)" style="fill: #94ab73"/>
   </g>
   <g id="patch_75">
    <path d="M 171.405844 253.199134 
L 166.256554 256.172078 
L 166.256554 262.117965 
L 171.405844 265.090909 
L 176.555133 262.117965 
L 176.555133 256.172078 
z
" clip-path="url(#p576db8b568)" style="fill: #aa9bd3"/>
   </g>
   <g id="patch_76">
    <path d="M 198.162337 237.751265 
L 193.013048 240.724209 
L 193.013048 246.670096 
L 198.162337 249.64304 
L 203.311627 246.670096 
L 203.311627 240.724209 
z
" clip-path="url(#p576db8b568)" style="fill: #ca9973"/>
   </g>
   <g id="patch_77">
    <path d="M 189.243506 253.199134 
L 184.094217 256.172078 
L 184.094217 262.117965 
L 189.243506 265.090909 
L 194.392796 262.117965 
L 194.392796 256.172078 
z
" clip-path="url(#p576db8b568)" style="fill: #96aa72"/>
   </g>
   <g id="patch_78">
    <path d="M 207.081169 253.199134 
L 201.931879 256.172078 
L 201.931879 262.117965 
L 207.081169 265.090909 
L 212.230458 262.117965 
L 212.230458 256.172078 
z
" clip-path="url(#p576db8b568)" style="fill: #84a5d9"/>
   </g>
   <g id="patch_79">
    <path d="M 287.35065 151.009939 
L 260.594156 197.353546 
L 314.107144 197.353546 
z
" clip-path="url(#p576db8b568)" style="fill: #333333; stroke: #cccccc; stroke-linejoin: miter"/>
   </g>
   <g id="patch_80">
    <path d="M 287.35065 145.064052 
L 282.20136 148.036996 
L 282.20136 153.982883 
L 287.35065 156.955827 
L 292.49994 153.982883 
L 292.49994 148.036996 
z
" clip-path="url(#p576db8b568)" style="fill: #d99185"/>
   </g>
   <g id="patch_81">
    <path d="M 278.431819 160.511921 
L 273.282529 163.484865 
L 273.282529 169.430752 
L 278.431819 172.403696 
L 283.581108 169.430752 
L 283.581108 163.484865 
z
" clip-path="url(#p576db8b568)" style="fill: #aa9bd3"/>
   </g>
   <g id="patch_82">
    <path d="M 269.512988 175.95979 
L 264.363698 178.932733 
L 264.363698 184.878621 
L 269.512988 187.851565 
L 274.662277 184.878621 
L 274.662277 178.932733 
z
" clip-path="url(#p576db8b568)" style="fill: #5cacd3"/>
   </g>
   <g id="patch_83">
    <path d="M 260.594156 191.407659 
L 255.444867 194.380602 
L 255.444867 200.32649 
L 260.594156 203.299434 
L 265.743446 200.32649 
L 265.743446 194.380602 
z
" clip-path="url(#p576db8b568)" style="fill: #76b08a"/>
   </g>
   <g id="patch_84">
    <path d="M 296.269481 160.511921 
L 291.120192 163.484865 
L 291.120192 169.430752 
L 296.269481 172.403696 
L 301.418771 169.430752 
L 301.418771 163.484865 
z
" clip-path="url(#p576db8b568)" style="fill: #96aa72"/>
   </g>
   <g id="patch_85">
    <path d="M 287.35065 181.905677 
L 287.35065 181.905677 
L 287.35065 181.905677 
L 287.35065 181.905677 
L 287.35065 181.905677 
L 287.35065 181.905677 
z
" clip-path="url(#p576db8b568)" style="fill: #b897cb"/>
   </g>
   <g id="patch_86">
    <path d="M 278.431819 191.407659 
L 273.282529 194.380602 
L 273.282529 200.32649 
L 278.431819 203.299434 
L 283.581108 200.32649 
L 283.581108 194.380602 
z
" clip-path="url(#p576db8b568)" style="fill: #ca9973"/>
   </g>
   <g id="patch_87">
    <path d="M 305.188313 175.95979 
L 300.039023 178.932733 
L 300.039023 184.878621 
L 305.188313 187.851565 
L 310.337602 184.878621 
L 310.337602 178.932733 
z
" clip-path="url(#p576db8b568)" style="fill: #58b2a5"/>
   </g>
   <g id="patch_88">
    <path d="M 296.269481 191.407659 
L 291.120192 194.380602 
L 291.120192 200.32649 
L 296.269481 203.299434 
L 301.418771 200.32649 
L 301.418771 194.380602 
z
" clip-path="url(#p576db8b568)" style="fill: #d78fa1"/>
   </g>
   <g id="patch_89">
    <path d="M 314.107144 191.407659 
L 308.957854 194.380602 
L 308.957854 200.32649 
L 314.107144 203.299434 
L 319.256433 200.32649 
L 319.256433 194.380602 
z
" clip-path="url(#p576db8b568)" style="fill: #84a5d9"/>
   </g>
   <g id="patch_90">
    <path d="M 251.675325 212.801415 
L 224.918831 259.145022 
L 278.431819 259.145022 
z
" clip-path="url(#p576db8b568)" style="fill: #333333; stroke: #cccccc; stroke-linejoin: miter"/>
   </g>
   <g id="patch_91">
    <path d="M 251.675325 206.855527 
L 246.526035 209.828471 
L 246.526035 215.774359 
L 251.675325 218.747302 
L 256.824615 215.774359 
L 256.824615 209.828471 
z
" clip-path="url(#p576db8b568)" style="fill: #d99185"/>
   </g>
   <g id="patch_92">
    <path d="M 242.756494 222.303396 
L 237.607204 225.27634 
L 237.607204 231.222228 
L 242.756494 234.195171 
L 247.905783 231.222228 
L 247.905783 225.27634 
z
" clip-path="url(#p576db8b568)" style="fill: #5cacd3"/>
   </g>
   <g id="patch_93">
    <path d="M 233.837663 237.751265 
L 228.688373 240.724209 
L 228.688373 246.670096 
L 233.837663 249.64304 
L 238.986952 246.670096 
L 238.986952 240.724209 
z
" clip-path="url(#p576db8b568)" style="fill: #ca9973"/>
   </g>
   <g id="patch_94">
    <path d="M 224.918831 253.199134 
L 219.769542 256.172078 
L 219.769542 262.117965 
L 224.918831 265.090909 
L 230.068121 262.117965 
L 230.068121 256.172078 
z
" clip-path="url(#p576db8b568)" style="fill: #84a5d9"/>
   </g>
   <g id="patch_95">
    <path d="M 260.594156 222.303396 
L 255.444867 225.27634 
L 255.444867 231.222228 
L 260.594156 234.195171 
L 265.743446 231.222228 
L 265.743446 225.27634 
z
" clip-path="url(#p576db8b568)" style="fill: #58b2a5"/>
   </g>
   <g id="patch_96">
    <path d="M 251.675325 243.697153 
L 251.675325 243.697153 
L 251.675325 243.697153 
L 251.675325 243.697153 
L 251.675325 243.697153 
L 251.675325 243.697153 
z
" clip-path="url(#p576db8b568)" style="fill: #ac9ad2"/>
   </g>
   <g id="patch_97">
    <path d="M 242.756494 253.199134 
L 237.607204 256.172078 
L 237.607204 262.117965 
L 242.756494 265.090909 
L 247.905783 262.117965 
L 247.905783 256.172078 
z
" clip-path="url(#p576db8b568)" style="fill: #96aa72"/>
   </g>
   <g id="patch_98">
    <path d="M 269.512988 237.751265 
L 264.363698 240.724209 
L 264.363698 246.670096 
L 269.512988 249.64304 
L 274.662277 246.670096 
L 274.662277 240.724209 
z
" clip-path="url(#p576db8b568)" style="fill: #d78fa1"/>
   </g>
   <g id="patch_99">
    <path d="M 260.594156 253.199134 
L 255.444867 256.172078 
L 255.444867 262.117965 
L 260.594156 265.090909 
L 265.743446 262.117965 
L 265.743446 256.172078 
z
" clip-path="url(#p576db8b568)" style="fill: #aa9bd3"/>
   </g>
   <g id="patch_100">
    <path d="M 278.431819 253.199134 
L 273.282529 256.172078 
L 273.282529 262.117965 
L 278.431819 265.090909 
L 283.581108 262.117965 
L 283.581108 256.172078 
z
" clip-path="url(#p576db8b568)" style="fill: #76b08a"/>
   </g>
   <g id="patch_101">
    <path d="M 323.025975 212.801415 
L 296.269481 259.145022 
L 349.782469 259.145022 
z
" clip-path="url(#p576db8b568)" style="fill: #333333; stroke: #cccccc; stroke-linejoin: miter"/>
   </g>
   <g id="patch_102">
    <path d="M 323.025975 208.283517 
L 319.113361 210.542466 
L 319.113361 215.060364 
L 323.025975 217.319312 
L 326.938589 215.060364 
L 326.938589 210.542466 
z
" clip-path="url(#p576db8b568)" style="fill: #d99185"/>
   </g>
   <g id="patch_103">
    <path d="M 314.107144 222.303396 
L 308.957854 225.27634 
L 308.957854 231.222228 
L 314.107144 234.195171 
L 319.256433 231.222228 
L 319.256433 225.27634 
z
" clip-path="url(#p576db8b568)" style="fill: #84a5d9"/>
   </g>
   <g id="patch_104">
    <path d="M 305.188313 237.751265 
L 300.039023 240.724209 
L 300.039023 246.670096 
L 305.188313 249.64304 
L 310.337602 246.670096 
L 310.337602 240.724209 
z
" clip-path="url(#p576db8b568)" style="fill: #76b08a"/>
   </g>
   <g id="patch_105">
    <path d="M 296.269481 254.627124 
L 292.356867 256.886073 
L 292.356867 261.40397 
L 296.269481 263.662919 
L 300.182095 261.40397 
L 300.182095 256.886073 
z
" clip-path="url(#p576db8b568)" style="fill: #da9086"/>
   </g>
   <g id="patch_106">
    <path d="M 331.944806 222.303396 
L 326.795517 225.27634 
L 326.795517 231.222228 
L 331.944806 234.195171 
L 337.094096 231.222228 
L 337.094096 225.27634 
z
" clip-path="url(#p576db8b568)" style="fill: #76b08a"/>
   </g>
   <g id="patch_107">
    <path d="M 323.025975 236.626261 
L 316.902403 240.161707 
L 316.902403 247.232599 
L 323.025975 250.768044 
L 329.149547 247.232599 
L 329.149547 240.161707 
z
" clip-path="url(#p576db8b568)" style="fill: #da9086"/>
   </g>
   <g id="patch_108">
    <path d="M 314.107144 253.199134 
L 308.957854 256.172078 
L 308.957854 262.117965 
L 314.107144 265.090909 
L 319.256433 262.117965 
L 319.256433 256.172078 
z
" clip-path="url(#p576db8b568)" style="fill: #84a5d9"/>
   </g>
   <g id="patch_109">
    <path d="M 340.863638 237.751265 
L 335.714348 240.724209 
L 335.714348 246.670096 
L 340.863638 249.64304 
L 346.012927 246.670096 
L 346.012927 240.724209 
z
" clip-path="url(#p576db8b568)" style="fill: #84a5d9"/>
   </g>
   <g id="patch_110">
    <path d="M 331.944806 253.199134 
L 326.795517 256.172078 
L 326.795517 262.117965 
L 331.944806 265.090909 
L 337.094096 262.117965 
L 337.094096 256.172078 
z
" clip-path="url(#p576db8b568)" style="fill: #76b08a"/>
   </g>
   <g id="patch_111">
    <path d="M 349.782469 254.627124 
L 345.869855 256.886073 
L 345.869855 261.40397 
L 349.782469 263.662919 
L 353.695083 261.40397 
L 353.695083 256.886073 
z
" clip-path="url(#p576db8b568)" style="fill: #da9086"/>
   </g>
  </g>
 </g>
 <defs>
  <clipPath id="p576db8b568">
   <rect x="64.535409" y="10.8" width="302.929182" height="266.4"/>
  </clipPath>
 </defs>
</svg>
