<?xml version="1.0" encoding="UTF-8" standalone="no"?>
<!-- Created with Inkscape (http://www.inkscape.org/) -->

<svg
   width="700"
   height="620"
   id="svg2"
   sodipodi:version="0.32"
   inkscape:version="1.1.2 (08b2f3d93c, 2022-04-05)"
   version="1.0"
   sodipodi:docname="Baryon-decuplet.svg"
   inkscape:output_extension="org.inkscape.output.svg.inkscape"
   xmlns:inkscape="http://www.inkscape.org/namespaces/inkscape"
   xmlns:sodipodi="http://sodipodi.sourceforge.net/DTD/sodipodi-0.dtd"
   xmlns="http://www.w3.org/2000/svg"
   xmlns:svg="http://www.w3.org/2000/svg"
   xmlns:rdf="http://www.w3.org/1999/02/22-rdf-syntax-ns#"
   xmlns:cc="http://creativecommons.org/ns#"
   xmlns:dc="http://purl.org/dc/elements/1.1/">
  <defs
     id="defs4" />
  <sodipodi:namedview
     id="base"
     pagecolor="#ffffff"
     bordercolor="#666666"
     borderopacity="1.0"
     inkscape:pageopacity="0.0"
     inkscape:pageshadow="2"
     inkscape:zoom="0.96"
     inkscape:cx="132.29167"
     inkscape:cy="227.60417"
     inkscape:document-units="px"
     inkscape:current-layer="layer1"
     width="700px"
     height="620px"
     borderlayer="true"
     inkscape:window-width="1848"
     inkscape:window-height="1136"
     inkscape:window-x="1352"
     inkscape:window-y="27"
     showguides="true"
     inkscape:guide-bbox="true"
     showgrid="false"
     inkscape:window-maximized="1"
     inkscape:pagecheckerboard="0">
    <sodipodi:guide
       orientation="vertical"
       position="2165.2361"
       id="guide3244" />
  </sodipodi:namedview>
  <metadata
     id="metadata7">
    <rdf:RDF>
      <cc:Work
         rdf:about="">
        <dc:format>image/svg+xml</dc:format>
        <dc:type
           rdf:resource="http://purl.org/dc/dcmitype/StillImage" />
        <dc:title />
      </cc:Work>
    </rdf:RDF>
  </metadata>
  <g
     inkscape:label="initial"
     inkscape:groupmode="layer"
     id="layer1"
     transform="translate(-449.65294,-489.74078)">
    <rect
       style="fill:#666666;stroke:none;stroke-width:8.71609;stroke-linejoin:round;stroke-miterlimit:10;stroke-dasharray:34.8645, 17.4322, 8.71609, 17.4322;stop-color:#000000"
       id="rect954"
       width="700"
       height="620"
       x="449.65295"
       y="489.74078" />
    <path
       style="fill:#000000;fill-opacity:1;fill-rule:evenodd;stroke:none"
       d="m 686.74961,890.73066 2.04433,2.6614 173.79062,0 -0.29942,-2.2799 -175.53553,-0.3815 z"
       id="path8484"
       sodipodi:nodetypes="ccccc"
       inkscape:connector-curvature="0" />
    <path
       sodipodi:nodetypes="ccccc"
       id="path7505"
       d="m 685.22543,889.7729 -2.4374,0.005 0.12602,-314.15837 2.31138,-0.14436 0,314.29796 z"
       style="fill:#000000;fill-opacity:1;fill-rule:evenodd;stroke:none"
       inkscape:connector-curvature="0" />
    <path
       sodipodi:nodetypes="ccccc"
       id="path7501"
       d="m 859.48824,884.63929 2.3344,2.70497 0.0467,-311.04535 -2.57576,0.1515 0.19465,308.18888 z"
       style="fill:#000000;fill-opacity:1;fill-rule:evenodd;stroke:none"
       inkscape:connector-curvature="0" />
    <path
       sodipodi:nodetypes="ccccc"
       id="path7511"
       d="m 953.73909,735.1463 3.4703,0.0319 -95.09369,-158.99589 -2.15495,1.4191 93.77834,157.5449 z"
       style="fill:#000000;fill-opacity:1;fill-rule:evenodd;stroke:none"
       inkscape:connector-curvature="0" />
    <path
       sodipodi:nodetypes="ccccc"
       id="path7509"
       d="m 540.49226,866.6418 1.39289,2.17005 550.34585,-317.7424 -1.4191,-2.15493 -550.31964,317.72728 z"
       style="fill:#000000;fill-opacity:1;fill-rule:evenodd;stroke:none"
       inkscape:connector-curvature="0" />
    <path
       sodipodi:nodetypes="ccccc"
       id="path7499"
       d="m 772.7642,1087.9148 2.57576,-0.128 0.17908,-537.89377 -2.84048,-0.29251 0.0856,538.31428 z"
       style="fill:#000000;fill-opacity:1;fill-rule:evenodd;stroke:none"
       inkscape:connector-curvature="0" />
    <path
       sodipodi:nodetypes="ccccc"
       id="path7513"
       d="m 856.87465,891.76066 3.15689,0.25184 -173.99238,-316.79331 -2.15492,1.41908 172.99041,315.12239 z"
       style="fill:#000000;fill-opacity:1;fill-rule:evenodd;stroke:none"
       inkscape:connector-curvature="0" />
    <path
       style="fill:#000000;fill-opacity:1;fill-rule:evenodd;stroke:none"
       d="m 479.81929,734.8076 0.12125,2.57576 635.48466,0 -0.1515,-2.57576 -635.45441,0 z"
       id="path4590"
       sodipodi:nodetypes="ccccc"
       inkscape:connector-curvature="0" />
    <path
       sodipodi:nodetypes="ccccc"
       id="path7503"
       d="m 1038.1175,735.86356 2.3655,0.35368 0.1012,-161.84728 -2.5757,0.1515 0.109,161.3421 z"
       style="fill:#000000;fill-opacity:1;fill-rule:evenodd;stroke:none"
       inkscape:connector-curvature="0" />
    <path
       sodipodi:nodetypes="ccccc"
       id="path7507"
       d="m 499.35919,735.29894 2.61469,0.15903 0.0779,-161.80056 -2.57576,0.1515 -0.11679,161.49003 z"
       style="fill:#000000;fill-opacity:1;fill-rule:evenodd;stroke:none"
       inkscape:connector-curvature="0" />
    <path
       id="path2269"
       style="fill:#000000;fill-opacity:1;fill-rule:evenodd;stroke:none"
       d="m 493.27229,571.97434 280.9403,477.10366 275.93951,-477.06465 -556.87981,-0.039 z m 539.59231,8.96905 -258.66081,452.42061 -264.31945,-452.42659 522.98026,0.006 z"
       inkscape:connector-curvature="0" />
    <path
       d="m 1066.7591,538.22004 c 1.5071,-2.81468 4.307,-8.03838 6.2221,-11.60822 1.9151,-3.56983 3.8002,-6.55596 4.1892,-6.6359 0.4678,-0.0961 2.7683,3.72357 6.7949,11.28199 3.3483,6.28495 6.0877,11.574 6.0877,11.75345 0,0.17944 -5.8577,0.32628 -13.0171,0.32628 l -13.0171,0 2.7403,-5.1176 z m 15.5088,-3.74459 c -4.6796,-8.87146 -5.9347,-11.10953 -6.2233,-11.0973 -0.1375,0.006 -2.302,3.93741 -4.8099,8.73686 l -4.5597,8.72624 9.4754,0 9.4754,0 -3.3579,-6.3658 z"
       style="fill:#000000;fill-opacity:1;stroke:#000000;stroke-width:0.5;stroke-opacity:1"
       id="path3448"
       inkscape:connector-curvature="0" />
    <path
       d="m 618.31686,949.67654 c 0,-2.82545 0.8082,-3.8488 1.09245,-1.38335 l 0.1583,1.373 8.8905,0.13635 8.89045,0.1364 0.3025,-1.5094 c 0.49655,-2.4778 1.24185,-1.70985 1.0791,1.11185 l -0.1512,2.62115 -10.13105,0.1352 -10.13105,0.13515 0,-2.75635 z m 3.5021,-8.99735 c 0,-1.51035 0.2251,-2.74605 0.5003,-2.74605 0.27515,0 0.5003,0.337 0.5003,0.7489 0,0.6223 0.97275,0.74895 5.7534,0.74895 4.78065,0 5.75345,-0.12665 5.75345,-0.74895 0,-0.4119 0.22515,-0.7489 0.5003,-0.7489 0.27515,0 0.5003,1.2357 0.5003,2.74605 0,1.51035 -0.22515,2.746 -0.5003,2.746 -0.27515,0 -0.5003,-0.337 -0.5003,-0.7489 0,-0.62235 -0.9728,-0.74895 -5.75345,-0.74895 -4.78065,0 -5.7534,0.1266 -5.7534,0.74895 0,0.4119 -0.22515,0.7489 -0.5003,0.7489 -0.2752,0 -0.5003,-1.23565 -0.5003,-2.746 z m -3.31715,-6.3658 c 0.16595,-0.6179 0.30475,-1.8536 0.30855,-2.74605 l 0.007,-1.62265 9.6922,0 9.6921,0 0.259,2.6212 c 0.1425,1.44165 0.1861,2.6999 0.0969,2.79605 -0.4374,0.47185 -1.2292,-0.6246 -1.2292,-1.7021 l 0,-1.21875 -8.6927,0 -8.6927,0 -0.30015,1.49785 c -0.1651,0.8238 -0.5572,1.4978 -0.87135,1.4978 -0.34815,0 -0.45335,-0.43855 -0.2695,-1.12335 z"
       style="fill:#000000;fill-opacity:1;stroke:#000000;stroke-width:0.5;stroke-opacity:1"
       id="path3450"
       inkscape:connector-curvature="0" />
    <path
       transform="matrix(0.550328,0,0,0.5492058,-2119.3978,416.51582)"
       d="m 5001.8648,581.76996 a 67.436539,67.436539 0 1 1 -134.8731,0 67.436539,67.436539 0 1 1 134.8731,0 z"
       sodipodi:ry="67.436539"
       sodipodi:rx="67.436539"
       sodipodi:cy="581.76996"
       sodipodi:cx="4934.4282"
       id="path3642"
       style="fill:#ff81b3;fill-opacity:1;stroke:none"
       sodipodi:type="arc" />
    <path
       sodipodi:type="arc"
       style="fill:#fd81b3;fill-opacity:1;stroke:#000000;stroke-width:0;stroke-miterlimit:4;stroke-opacity:1;stroke-dasharray:none"
       id="path3720"
       sodipodi:cx="4934.4282"
       sodipodi:cy="581.76996"
       sodipodi:rx="67.436539"
       sodipodi:ry="67.436539"
       d="m 5001.8648,581.76996 a 67.436539,67.436539 0 1 1 -134.8731,0 67.436539,67.436539 0 1 1 134.8731,0 z"
       transform="matrix(0.550328,0,0,0.5492058,-2212.5193,261.34837)" />
    <path
       style="fill:#000000;fill-opacity:1;fill-rule:evenodd;stroke:#000000;stroke-width:0.5px;stroke-linecap:butt;stroke-linejoin:miter;stroke-opacity:1"
       d="m 779.04852,550.03494 c -9.76405,0 -9.91475,0.4839 -9.76405,0 l 4.7685,-15.3139 4.99555,15.3139 z"
       id="path3476"
       sodipodi:nodetypes="cscc"
       inkscape:connector-curvature="0" />
    <path
       style="fill:#000000;fill-opacity:1;fill-rule:evenodd;stroke:#000000;stroke-width:0.5px;stroke-linecap:butt;stroke-linejoin:miter;stroke-opacity:1"
       d="m 1091.3178,555.78641 c -4.882,-8.4559 -5.3764,-8.34445 -4.882,-8.4559 l 15.6465,-3.52735 -10.7645,11.98325 z"
       id="path3478"
       sodipodi:nodetypes="cscc"
       inkscape:connector-curvature="0" />
    <path
       style="fill:#000000;fill-opacity:1;stroke:#000000;stroke-width:0.5;stroke-opacity:1"
       d="m 743.97154,545.37227 c -0.004,-0.3874 -0.7872,-5.6366 -1.26845,-8.5 -0.3955,-2.3535 0.801,-2.0785 1.96935,0.4526 2.7889,6.0419 8.586,8.6489 12.85395,5.7806 1.86655,-1.2545 2.8236,-3.7974 2.26575,-6.02 -0.43415,-1.7298 -3.3658,-4.5121 -6.7865,-6.4408 -8.41015,-4.7419 -10.61335,-8.6133 -8.07835,-14.1952 1.84205,-4.056 6.1477,-5.4476 12.08825,-3.9068 3.36335,0.8723 3.59795,0.8759 4.1914,0.064 1.19995,-1.641 1.65135,-0.844 1.991,3.5153 0.1875,2.4062 0.45425,4.7687 0.59285,5.25 0.49595,1.7225 -1.23725,0.8769 -1.81965,-0.8877 -1.35875,-4.1171 -5.5345,-7.0321 -9.4424,-6.5916 -3.99415,0.4502 -5.67255,3.7629 -3.61555,7.1361 0.90145,1.4782 2.48775,2.614 8.7432,6.2599 7.2355,4.217 9.29395,10.1046 5.1736,14.7975 -3.1406,3.5769 -6.9805,4.3803 -13.46035,2.8163 -3.284,-0.7926 -3.5278,-0.7926 -3.9714,0 -0.47705,0.8525 -1.4197,1.1627 -1.4267,0.4695 z"
       id="path3482"
       inkscape:connector-curvature="0" />
    <path
       id="path3484"
       style="fill:#000000;fill-opacity:1;stroke:#000000;stroke-width:0.5;stroke-opacity:1"
       d="m 1113.8833,597.92126 c -1.375,-0.4192 -4.525,-0.80615 -7,-0.8599 -5.4042,-0.11735 -8.2524,-1.2851 -11.8294,-4.8501 -5.6566,-5.63755 -7.3157,-13.7609 -4.1441,-20.2906 3.7084,-7.6348 13.8254,-11.20225 21.3248,-7.51955 9.9433,4.8828 13.6014,18.8665 6.9209,26.456 l -1.9973,2.269 2.8954,0.8124 c 4.3675,1.2255 7.6105,0.9781 12.2047,-0.931 0.5173,-0.2149 0.875,-0.14305 0.875,0.17565 0,0.7882 -7.8099,4.38715 -10.8996,5.0227 -3.4484,0.7094 -5.2966,0.6464 -8.3504,-0.2846 z m -0.131,-4.79725 c 5.1203,-2.8778 5.8978,-8.86015 2.1714,-16.70695 -2.7498,-5.7902 -7.1631,-9.92335 -11.6235,-10.88565 -3.5047,-0.7561 -8.5151,2.0374 -9.9914,5.57065 -1.8714,4.4789 0.2616,11.9206 5.159,17.99935 4.3209,5.3631 9.3697,6.78485 14.2845,4.0226 z"
       inkscape:connector-curvature="0" />
    <path
       style="fill:#000000;fill-opacity:1;stroke:#000000;stroke-width:0.5;stroke-opacity:1"
       d="m 1070.4158,786.23804 c 0,-0.23985 0.8929,-0.5789 1.9842,-0.7534 1.2155,-0.19435 2.1841,-0.69065 2.5,-1.281 0.6956,-1.29965 0.6956,-26.75935 0,-28.059 -0.3159,-0.59035 -1.2845,-1.08665 -2.5,-1.28105 -4.1011,-0.65575 -1.7384,-1.18945 5.2658,-1.18945 6.9238,0 9.2496,0.5136 5.5061,1.21585 -0.9592,0.17995 -1.9717,0.7527 -2.25,1.2728 -0.6782,1.2673 -0.6782,26.7554 0,28.0227 0.2783,0.5201 1.2908,1.09285 2.25,1.27275 3.7435,0.7023 1.4177,1.2159 -5.5061,1.2159 -3.9875,0 -7.25,-0.19625 -7.25,-0.4361 z"
       id="path3486"
       inkscape:transform-center-y="-8.6704094"
       inkscape:transform-center-x="1.7319e-005"
       inkscape:connector-curvature="0" />
    <path
       style="fill:#000000;fill-opacity:1;fill-rule:evenodd;stroke:#000000;stroke-width:0.5px;stroke-linecap:butt;stroke-linejoin:miter;stroke-opacity:1"
       d="m 1112.6645,740.91274 c 0,-9.764 -0.4839,-9.9147 0,-9.764 l 15.3139,4.76845 -15.3139,4.99555 z"
       id="path3488"
       sodipodi:nodetypes="cscc"
       inkscape:connector-curvature="0" />
    <path
       style="fill:#000000;fill-opacity:1;stroke:#000000;stroke-width:0.5;stroke-opacity:1"
       d="m 841.80471,1019.4593 c 0,-0.6381 1.30555,-0.75 8.75,-0.75 7.44445,0 8.75,0.1119 8.75,0.75 0,0.6381 -1.30555,0.75 -8.75,0.75 -7.44445,0 -8.75,-0.1119 -8.75,-0.75 z"
       id="path3492"
       inkscape:connector-curvature="0" />
    <path
       id="path3494"
       style="fill:#000000;fill-opacity:1;stroke:#000000;stroke-width:0.5;stroke-opacity:1"
       d="m 885.32326,949.58069 c 0,-2.82945 0.8077,-3.8543 1.0918,-1.3853 l 0.1582,1.37495 8.8852,0.13655 8.88515,0.1366 0.30235,-1.5115 c 0.49625,-2.4814 1.2411,-1.71235 1.07845,1.11335 l -0.15115,2.625 -10.125,0.13535 -10.125,0.13535 0,-2.76035 z m 3.5,-9.01025 c 0,-1.5125 0.225,-2.75 0.5,-2.75 0.275,0 0.5,0.3375 0.5,0.75 0,0.6232 0.9722,0.75 5.75,0.75 4.7778,0 5.75,-0.1268 5.75,-0.75 0,-0.4125 0.225,-0.75 0.5,-0.75 0.275,0 0.5,1.2375 0.5,2.75 0,1.5125 -0.225,2.75 -0.5,2.75 -0.275,0 -0.5,-0.3375 -0.5,-0.75 0,-0.6232 -0.9722,-0.75 -5.75,-0.75 -4.7778,0 -5.75,0.1268 -5.75,0.75 0,0.4125 -0.225,0.75 -0.5,0.75 -0.275,0 -0.5,-1.2375 -0.5,-2.75 z m -3.31515,-6.375 c 0.16585,-0.61875 0.30455,-1.85625 0.30835,-2.75 l 0.007,-1.625 9.6864,0 9.68635,0 0.25885,2.625 c 0.1424,1.44375 0.186,2.7038 0.0969,2.8001 -0.43715,0.4725 -1.2285,-0.6255 -1.2285,-1.7046 l 0,-1.2205 -8.6875,0 -8.6875,0 -0.3,1.5 c -0.165,0.825 -0.55685,1.5 -0.8708,1.5 -0.34795,0 -0.4531,-0.4392 -0.26935,-1.125 z"
       inkscape:connector-curvature="0" />
    <path
       style="fill:#000000;fill-opacity:1;stroke:#000000;stroke-width:0.5;stroke-opacity:1"
       d="m 913.67216,941.11189 c -0.18555,-0.18555 -0.19435,-1.2318 -0.0195,-2.325 l 0.3178,-1.9876 -2.281,1.33675 c -1.541,0.9031 -2.3924,1.15655 -2.6243,0.7813 -0.45675,-0.739 -0.0486,-1.08695 2.39575,-2.043 l 2.05595,-0.80405 -1.97245,-0.63135 c -2.358,-0.75475 -2.9538,-1.23155 -2.4856,-1.98915 0.2409,-0.38975 1.04805,-0.1564 2.59505,0.75015 l 2.2454,1.3159 -0.1636,-2.1687 c -0.1249,-1.65535 0.0115,-2.1687 0.57655,-2.1687 0.56325,0 0.70295,0.51555 0.58445,2.15685 l -0.1557,2.15685 2.0306,-1.28185 c 2.38115,-1.50315 2.55045,-1.5358 2.55045,-0.49165 0,0.4619 -0.85855,1.1275 -2.06635,1.6019 l -2.06635,0.8117 2.06635,0.8776 c 1.1482,0.48765 2.06635,1.21995 2.06635,1.6481 0,1.02275 -0.17625,0.9874 -2.55045,-0.51135 l -2.0306,-1.2819 0.153,2.1194 c 0.14155,1.9602 -0.4169,2.93275 -1.2218,2.1278 z"
       id="path3498"
       inkscape:connector-curvature="0" />
    <path
       style="fill:#000000;fill-opacity:1;stroke:#000000;stroke-width:0.5;stroke-opacity:1"
       d="m 648.17021,940.39029 c -0.18555,-0.18555 -0.19435,-1.2318 -0.0195,-2.325 l 0.3178,-1.9876 -2.281,1.33675 c -1.541,0.9031 -2.3924,1.15655 -2.6243,0.7813 -0.45675,-0.739 -0.0487,-1.08695 2.39575,-2.043 l 2.05595,-0.80405 -1.97245,-0.63135 c -2.358,-0.75475 -2.9538,-1.23155 -2.4856,-1.98915 0.2409,-0.38975 1.04805,-0.1564 2.59505,0.75015 l 2.2454,1.3159 -0.1636,-2.1687 c -0.1249,-1.65535 0.0116,-2.1687 0.57655,-2.1687 0.56325,0 0.70295,0.51555 0.58445,2.15685 l -0.1557,2.15685 2.0306,-1.28185 c 2.38115,-1.50315 2.55045,-1.5358 2.55045,-0.49165 0,0.4619 -0.85855,1.1275 -2.06635,1.6019 l -2.06635,0.8117 2.06635,0.8776 c 1.1482,0.48765 2.06635,1.21995 2.06635,1.6481 0,1.02275 -0.17625,0.9874 -2.55045,-0.51135 l -2.0306,-1.2819 0.153,2.1194 c 0.14155,1.9602 -0.4169,2.93275 -1.2218,2.1278 z"
       id="path3500"
       inkscape:connector-curvature="0" />
    <path
       style="fill:#000000;fill-opacity:1;stroke:#000000;stroke-width:0.5;stroke-opacity:1"
       d="m 988.46769,780.42304 c 0,-0.2211 0.80755,-1.17735 1.79455,-2.125 0.98705,-0.9477 2.92005,-3.01485 4.29565,-4.59365 l 2.50105,-2.87055 -4.0808,-5.5552 c -2.24445,-3.0554 -4.20155,-5.8699 -4.3491,-6.25445 -0.2245,-0.585 1.40635,-0.69925 9.9795,-0.69925 l 10.24776,0 0.2726,1.625 c 0.7884,4.6998 0.8885,5.875 0.5,5.875 -0.2346,0 -0.8079,-1.06875 -1.274,-2.375 -1.2377,-3.46855 -2.0728,-3.82115 -9.57011,-4.04035 l -6.43295,-0.18805 2.88735,3.9267 c 1.588,2.1597 3.30985,4.47375 3.82625,5.1424 l 0.93876,1.21575 -2.39671,2.53425 c -1.31825,1.39385 -3.40775,3.62115 -4.6433,4.94955 l -2.2465,2.41525 7.33555,-0.16525 c 6.97616,-0.15715 7.39896,-0.225 8.63326,-1.3853 0.7139,-0.67105 1.5547,-2.0773 1.8686,-3.125 0.7344,-2.45115 1.5829,-2.47185 1.2275,-0.0299 -0.15,1.03125 -0.4146,2.83125 -0.5879,4 l -0.315,2.125 -10.20596,0 c -5.6133,0 -10.20605,-0.18085 -10.20605,-0.4019 z"
       id="path3502"
       inkscape:connector-curvature="0" />
    <path
       id="path3504"
       d="m 805.69856,780.42304 c 0,-0.2211 0.80755,-1.17735 1.79455,-2.125 0.98705,-0.9477 2.92005,-3.01485 4.29565,-4.59365 l 2.50105,-2.87055 -4.0808,-5.5552 c -2.24445,-3.0554 -4.20155,-5.8699 -4.3491,-6.25445 -0.2245,-0.585 1.40635,-0.69925 9.9795,-0.69925 l 10.24785,0 0.2726,1.625 c 0.78845,4.6998 0.8885,5.875 0.5,5.875 -0.2346,0 -0.8079,-1.06875 -1.274,-2.375 -1.23765,-3.46855 -2.07275,-3.82115 -9.5702,-4.04035 l -6.43295,-0.18805 2.88735,3.9267 c 1.588,2.1597 3.30985,4.47375 3.82625,5.1424 l 0.9389,1.21575 -2.39685,2.53425 c -1.31825,1.39385 -3.40775,3.62115 -4.6433,4.94955 l -2.2465,2.41525 7.33555,-0.16525 c 6.9763,-0.15715 7.3991,-0.225 8.6334,-1.3853 0.71385,-0.67105 1.5547,-2.0773 1.8686,-3.125 0.7344,-2.45115 1.58285,-2.47185 1.2275,-0.0299 -0.15005,1.03125 -0.4146,2.83125 -0.5879,4 l -0.31505,2.125 -10.20605,0 c -5.6133,0 -10.20605,-0.18085 -10.20605,-0.4019 z"
       style="fill:#000000;fill-opacity:1;stroke:#000000;stroke-width:0.5;stroke-opacity:1"
       inkscape:connector-curvature="0" />
    <path
       style="fill:#000000;fill-opacity:1;stroke:#000000;stroke-width:0.5;stroke-opacity:1"
       d="m 509.72226,780.42304 c 0,-0.2211 0.80755,-1.17735 1.79455,-2.125 0.98705,-0.9477 2.92005,-3.01485 4.29565,-4.59365 l 2.50105,-2.87055 -4.0808,-5.5552 c -2.24445,-3.0554 -4.20155,-5.8699 -4.3491,-6.25445 -0.2245,-0.585 1.40635,-0.69925 9.9795,-0.69925 l 10.24785,0 0.2726,1.625 c 0.78845,4.6998 0.8885,5.875 0.5,5.875 -0.2346,0 -0.8079,-1.06875 -1.274,-2.375 -1.23765,-3.46855 -2.07275,-3.82115 -9.5702,-4.04035 l -6.43295,-0.18805 2.88735,3.9267 c 1.588,2.1597 3.30985,4.47375 3.82625,5.1424 l 0.9389,1.21575 -2.39685,2.53425 c -1.31825,1.39385 -3.40775,3.62115 -4.6433,4.94955 l -2.2465,2.41525 7.33555,-0.16525 c 6.9763,-0.15715 7.3991,-0.225 8.6334,-1.3853 0.71385,-0.67105 1.5547,-2.0773 1.8686,-3.125 0.7344,-2.45115 1.58285,-2.47185 1.2275,-0.0299 -0.15005,1.03125 -0.4146,2.83125 -0.5879,4 l -0.31505,2.125 -10.20605,0 c -5.6133,0 -10.20605,-0.18085 -10.20605,-0.4019 z"
       id="path3506"
       inkscape:connector-curvature="0" />
    <path
       id="path3510"
       style="fill:#000000;fill-opacity:1;stroke:#000000;stroke-width:0.5;stroke-opacity:1"
       d="m 647.92696,538.24906 c 1.5062,-2.81875 4.3045,-8.05 6.2184,-11.625 1.91395,-3.575 3.79795,-6.56545 4.1867,-6.6455 0.46755,-0.0962 2.7667,3.72895 6.7909,11.2983 3.34625,6.29405 6.08405,11.59075 6.08405,11.77045 0,0.1797 -5.8542,0.32675 -13.00935,0.32675 l -13.00935,0 2.73865,-5.125 z m 15.4996,-3.75 c -4.6768,-8.8843 -5.93115,-11.1256 -6.21955,-11.11335 -0.1375,0.006 -2.3007,3.9431 -4.80705,8.7495 l -4.55705,8.73885 9.46975,0 9.46975,0 -3.35585,-6.375 z"
       inkscape:connector-curvature="0" />
    <path
       d="m 469.95176,538.24906 c 1.5062,-2.81875 4.3045,-8.05 6.2184,-11.625 1.91395,-3.575 3.79795,-6.56545 4.1867,-6.6455 0.46755,-0.0962 2.7667,3.72895 6.7909,11.2983 3.34625,6.29405 6.08405,11.59075 6.08405,11.77045 0,0.1797 -5.8542,0.32675 -13.00935,0.32675 l -13.00935,0 2.73865,-5.125 z m 15.4996,-3.75 c -4.6768,-8.8843 -5.93115,-11.1256 -6.21955,-11.11335 -0.1375,0.006 -2.3007,3.9431 -4.80705,8.7495 l -4.55705,8.73885 9.46975,0 9.46975,0 -3.35585,-6.375 z"
       style="fill:#000000;fill-opacity:1;stroke:#000000;stroke-width:0.5;stroke-opacity:1"
       id="path3512"
       inkscape:connector-curvature="0" />
    <path
       style="fill:#000000;fill-opacity:1;stroke:#000000;stroke-width:0.5;stroke-opacity:1"
       d="m 656.63856,936.16449 c 0,-0.6381 1.30555,-0.75 8.75,-0.75 7.44445,0 8.75,0.1119 8.75,0.75 0,0.6381 -1.30555,0.75 -8.75,0.75 -7.44445,0 -8.75,-0.1119 -8.75,-0.75 z"
       id="path3514"
       inkscape:connector-curvature="0" />
    <path
       style="fill:#000000;fill-opacity:1;stroke:#000000;stroke-width:0.5;stroke-opacity:1"
       d="m 539.15771,767.20904 c -0.18555,-0.18555 -0.19435,-1.2318 -0.0195,-2.325 l 0.3178,-1.9876 -2.281,1.33675 c -1.541,0.9031 -2.3924,1.15655 -2.6243,0.7813 -0.45675,-0.739 -0.0486,-1.08695 2.39575,-2.043 l 2.05595,-0.80405 -1.97245,-0.63135 c -2.358,-0.75475 -2.9538,-1.23155 -2.4856,-1.98915 0.2409,-0.38975 1.04805,-0.1564 2.59505,0.75015 l 2.2454,1.3159 -0.1636,-2.1687 c -0.1249,-1.65535 0.0115,-2.1687 0.57655,-2.1687 0.56325,0 0.70295,0.51555 0.58445,2.15685 l -0.1557,2.15685 2.0306,-1.28185 c 2.38115,-1.50315 2.55045,-1.5358 2.55045,-0.49165 0,0.4619 -0.85855,1.1275 -2.06635,1.6019 l -2.06635,0.8117 2.06635,0.8776 c 1.1482,0.48765 2.06635,1.21995 2.06635,1.6481 0,1.02275 -0.17625,0.9874 -2.55045,-0.51135 l -2.0306,-1.2819 0.153,2.1194 c 0.14155,1.9602 -0.4169,2.93275 -1.2218,2.1278 z"
       id="path3516"
       inkscape:connector-curvature="0" />
    <path
       style="fill:#000000;fill-opacity:1;stroke:#000000;stroke-width:0.5;stroke-opacity:1"
       d="m 834.53481,768.40754 c -0.18555,-0.18555 -0.19435,-1.2318 -0.0195,-2.325 l 0.3178,-1.9876 -2.281,1.33675 c -1.541,0.9031 -2.3924,1.15655 -2.6243,0.7813 -0.45675,-0.739 -0.0487,-1.08695 2.39575,-2.043 l 2.05595,-0.80405 -1.97245,-0.63135 c -2.358,-0.75475 -2.9538,-1.23155 -2.4856,-1.98915 0.2409,-0.38975 1.04805,-0.1564 2.59505,0.75015 l 2.2454,1.3159 -0.1636,-2.1687 c -0.1249,-1.65535 0.0116,-2.1687 0.57655,-2.1687 0.56325,0 0.70295,0.51555 0.58445,2.15685 l -0.1557,2.15685 2.0306,-1.28185 c 2.38115,-1.50315 2.55045,-1.5358 2.55045,-0.49165 0,0.4619 -0.85855,1.1275 -2.06635,1.6019 l -2.06635,0.8117 2.06635,0.8776 c 1.1482,0.48765 2.06635,1.21995 2.06635,1.6481 0,1.02275 -0.17625,0.9874 -2.55045,-0.51135 l -2.0306,-1.2819 0.153,2.1194 c 0.14155,1.9602 -0.4169,2.93275 -1.2218,2.1278 z"
       id="path3518"
       inkscape:connector-curvature="0" />
    <path
       style="fill:#000000;fill-opacity:1;stroke:#000000;stroke-width:0.5;stroke-opacity:1"
       d="m 1017.3038,768.40754 c -0.1856,-0.18555 -0.1944,-1.2318 -0.019,-2.325 l 0.3178,-1.9876 -2.281,1.33675 c -1.541,0.9031 -2.3924,1.15655 -2.6243,0.7813 -0.4568,-0.739 -0.049,-1.08695 2.3957,-2.043 l 2.056,-0.80405 -1.9725,-0.63135 c -2.358,-0.75475 -2.9538,-1.23155 -2.4856,-1.98915 0.2409,-0.38975 1.0481,-0.1564 2.5951,0.75015 l 2.2454,1.3159 -0.1636,-2.1687 c -0.1249,-1.65535 0.011,-2.1687 0.5765,-2.1687 0.5633,0 0.703,0.51555 0.5845,2.15685 l -0.1557,2.15685 2.0306,-1.28185 c 2.3811,-1.50315 2.5504,-1.5358 2.5504,-0.49165 0,0.4619 -0.8585,1.1275 -2.0663,1.6019 l -2.0664,0.8117 2.0664,0.8776 c 1.1482,0.48765 2.0663,1.21995 2.0663,1.6481 0,1.02275 -0.1762,0.9874 -2.5504,-0.51135 l -2.0306,-1.2819 0.153,2.1194 c 0.1415,1.9602 -0.4169,2.93275 -1.2218,2.1278 z"
       id="path3520"
       inkscape:connector-curvature="0" />
    <path
       style="fill:#000000;fill-opacity:1;stroke:#000000;stroke-width:0.5;stroke-opacity:1"
       d="m 545.82846,762.98324 c 0,-0.6381 1.30555,-0.75 8.75,-0.75 7.44445,0 8.75,0.1119 8.75,0.75 0,0.6381 -1.30555,0.75 -8.75,0.75 -7.44445,0 -8.75,-0.1119 -8.75,-0.75 z"
       id="path3522"
       inkscape:connector-curvature="0" />
    <path
       style="fill:#000000;fill-opacity:1;stroke:#000000;stroke-width:0.5;stroke-opacity:1"
       d="m 491.24751,525.08376 c 0,-0.6381 1.30555,-0.75 8.75,-0.75 7.44445,0 8.75,0.1119 8.75,0.75 0,0.6381 -1.30555,0.75 -8.75,0.75 -7.44445,0 -8.75,-0.1119 -8.75,-0.75 z"
       id="path3524"
       inkscape:connector-curvature="0" />
    <path
       id="path3526"
       style="fill:#000000;fill-opacity:1;stroke:#000000;stroke-width:0.5;stroke-opacity:1"
       d="m 922.18061,940.67589 c -1.1134,-0.93685 -1.67135,-2.5178 -1.67135,-4.7356 0,-3.44325 1.50465,-5.57685 3.9329,-5.57685 2.42825,0 3.9329,2.1336 3.9329,5.57685 0,2.2178 -0.55795,3.79875 -1.67135,4.7356 -1.3564,1.1414 -3.1667,1.1414 -4.5231,0 z m 3.89345,-0.46265 c 0.90105,-0.901 1.0781,-1.86005 0.9444,-5.1156 -0.1026,-2.49705 -0.2056,-2.89655 -0.8904,-3.45105 -0.98905,-0.80085 -2.38275,-0.80085 -3.3718,0 -0.68475,0.5545 -0.7878,0.954 -0.8904,3.45105 -0.0638,1.55315 -0.0231,3.1938 0.0903,3.6459 0.30425,1.212 1.3673,2.1175 2.486,2.1175 0.5425,0 1.27485,-0.2907 1.6319,-0.6478 z"
       inkscape:connector-curvature="0" />
    <path
       id="path3528"
       style="fill:#000000;fill-opacity:1;stroke:#000000;stroke-width:0.5;stroke-opacity:1"
       d="m 844.29601,769.27874 c -1.1134,-0.93685 -1.67135,-2.5178 -1.67135,-4.7356 0,-3.44325 1.50465,-5.57685 3.9329,-5.57685 2.42825,0 3.9329,2.1336 3.9329,5.57685 0,2.2178 -0.55795,3.79875 -1.67135,4.7356 -1.3564,1.1414 -3.1667,1.1414 -4.5231,0 z m 3.89345,-0.46265 c 0.90105,-0.901 1.0781,-1.86005 0.9444,-5.1156 -0.1026,-2.49705 -0.2056,-2.89655 -0.8904,-3.45105 -0.98905,-0.80085 -2.38275,-0.80085 -3.3718,0 -0.68475,0.5545 -0.7878,0.954 -0.8904,3.45105 -0.0638,1.55315 -0.0231,3.1938 0.0903,3.6459 0.30425,1.212 1.3673,2.1175 2.486,2.1175 0.5425,0 1.27485,-0.2907 1.6319,-0.6478 z"
       inkscape:transform-center-y="7.9070381"
       inkscape:connector-curvature="0" />
    <path
       id="path3530"
       style="fill:#000000;fill-opacity:1;stroke:#000000;stroke-width:0.5;stroke-opacity:1"
       d="m 673.50356,528.90414 c -1.1134,-0.93685 -1.67135,-2.5178 -1.67135,-4.7356 0,-3.44325 1.50465,-5.57685 3.9329,-5.57685 2.42825,0 3.9329,2.1336 3.9329,5.57685 0,2.2178 -0.55795,3.79875 -1.67135,4.7356 -1.3564,1.1414 -3.1667,1.1414 -4.5231,0 z m 3.89345,-0.46265 c 0.90105,-0.901 1.0781,-1.86005 0.9444,-5.1156 -0.1026,-2.49705 -0.2056,-2.89655 -0.8904,-3.45105 -0.98905,-0.80085 -2.38275,-0.80085 -3.3718,0 -0.68475,0.5545 -0.7878,0.954 -0.8904,3.45105 -0.0638,1.55315 -0.0231,3.1938 0.0903,3.6459 0.30425,1.212 1.3673,2.1175 2.486,2.1175 0.5425,0 1.27485,-0.2907 1.6319,-0.6478 z"
       inkscape:connector-curvature="0" />
    <path
       style="fill:#000000;fill-opacity:1;stroke:#000000;stroke-width:0.5;stroke-opacity:1"
       d="m 1031.6135,766.40104 0,-3.2805 -3.2805,0 c -1.944,0 -3.2805,-0.1485 -3.2805,-0.3645 0,-0.216 1.3365,-0.3645 3.2805,-0.3645 l 3.2805,0 0,-3.46275 c 0,-2.835 0.099,-3.46275 0.5467,-3.46275 0.4477,0 0.5468,0.62775 0.5468,3.46275 l 0,3.46275 3.0982,0 c 1.8225,0 3.0983,0.1501 3.0983,0.3645 0,0.21445 -1.2758,0.3645 -3.0983,0.3645 l -3.0982,0 0,3.2805 c 0,2.673 -0.1013,3.2805 -0.5468,3.2805 -0.4455,0 -0.5467,-0.6075 -0.5467,-3.2805 z"
       id="path3532"
       inkscape:connector-curvature="0" />
    <path
       id="path3534"
       d="m 1094.4746,527.60784 0,-3.2805 -3.2805,0 c -1.944,0 -3.2805,-0.1485 -3.2805,-0.3645 0,-0.216 1.3365,-0.3645 3.2805,-0.3645 l 3.2805,0 0,-3.46275 c 0,-2.835 0.099,-3.46275 0.5468,-3.46275 0.4476,0 0.5467,0.62775 0.5467,3.46275 l 0,3.46275 3.0983,0 c 1.8225,0 3.0982,0.1501 3.0982,0.3645 0,0.21445 -1.2757,0.3645 -3.0982,0.3645 l -3.0983,0 0,3.2805 c 0,2.673 -0.1012,3.2805 -0.5467,3.2805 -0.4455,0 -0.5468,-0.6075 -0.5468,-3.2805 z"
       style="fill:#000000;fill-opacity:1;stroke:#000000;stroke-width:0.5;stroke-opacity:1"
       inkscape:transform-center-x="184.62986"
       inkscape:connector-curvature="0" />
    <path
       inkscape:transform-center-x="184.62986"
       style="fill:#000000;fill-opacity:1;stroke:#000000;stroke-width:0.5;stroke-opacity:1"
       d="m 1112.2655,527.60784 0,-3.2805 -3.2805,0 c -1.944,0 -3.2805,-0.1485 -3.2805,-0.3645 0,-0.216 1.3365,-0.3645 3.2805,-0.3645 l 3.2805,0 0,-3.46275 c 0,-2.835 0.099,-3.46275 0.5468,-3.46275 0.4476,0 0.5467,0.62775 0.5467,3.46275 l 0,3.46275 3.0983,0 c 1.8225,0 3.0982,0.1501 3.0982,0.3645 0,0.21445 -1.2757,0.3645 -3.0982,0.3645 l -3.0983,0 0,3.2805 c 0,2.673 -0.1012,3.2805 -0.5467,3.2805 -0.4455,0 -0.5468,-0.6075 -0.5468,-3.2805 z"
       id="path3536"
       inkscape:connector-curvature="0" />
    <path
       id="path3538"
       style="fill:#000000;fill-opacity:1;stroke:#000000;stroke-width:0.5;stroke-opacity:1"
       d="m 516.29746,731.01734 c -0.48255,-0.5815 -0.49845,-0.91275 -0.0647,-1.3466 0.43385,-0.4338 0.94025,-0.3056 2.05855,0.5212 1.9054,1.4087 2.78375,1.382 4.2964,-0.1307 2.3922,-2.39215 0.7274,-6.77275 -2.5739,-6.77275 l -1.3467,0 1.69235,-1.14045 c 2.8163,-1.8979 3.1797,-4.57065 0.8235,-6.0569 -1.1666,-0.7359 -3.45755,0.189 -4.22495,1.7057 -0.59515,1.17625 -0.62865,1.18475 -0.63565,0.1611 -0.01,-1.43475 2.7085,-3.66945 4.4636,-3.66945 1.93315,0 4.02905,1.7578 4.02905,3.3791 0,0.71855 -0.46185,1.7981 -1.0263,2.39895 l -1.0263,1.09245 1.5263,1.5263 c 2.626,2.626 1.71585,6.4453 -1.993,8.3632 -1.88455,0.97455 -5.1778,0.95745 -5.9983,-0.0311 z m 11.02595,0.39615 c 0.005,-0.20625 1.2199,-4.0875 2.7007,-8.625 1.8553,-5.68505 2.9409,-8.30025 3.49165,-8.41165 0.4396,-0.0889 0.7993,-0.0119 0.7993,0.17095 0,0.18295 -1.2508,4.13695 -2.77955,8.7867 -1.8876,5.7412 -3.01075,8.454 -3.5,8.454 -0.39625,0 -0.7167,-0.16875 -0.7121,-0.375 z m 10.65085,-3.56725 c 4.7124,-4.88125 5.9941,-8.4044 3.8408,-10.55775 -1.5526,-1.55255 -3.6946,-1.2955 -5.2082,0.625 -1.3906,1.76445 -1.72335,1.1599 -0.5793,-1.05245 1.45645,-2.81645 5.0722,-3.36475 7.32595,-1.111 2.5283,2.5283 1.9599,4.7719 -2.53095,9.9897 l -3.0543,3.54875 3.359,0 c 2.44385,0 3.6119,-0.2288 4.28705,-0.8398 0.8978,-0.8125 0.9046,-0.78405 0.2081,0.875 l -0.7199,1.7148 -5.1437,0.1436 -5.1437,0.1436 3.35915,-3.47945 z m -30.6592,-2.30775 c 0,-0.5833 0.66665,-0.75 3,-0.75 2.33335,0 3,0.1667 3,0.75 0,0.58335 -0.66665,0.75 -3,0.75 -2.33335,0 -3,-0.16665 -3,-0.75 z"
       inkscape:transform-center-x="8.3024092"
       inkscape:transform-center-y="2.3721209"
       inkscape:connector-curvature="0" />
    <path
       id="path3540"
       style="fill:#000000;fill-opacity:1;stroke:#000000;stroke-width:0.5;stroke-opacity:1"
       d="m 596.77936,694.22144 1.375,-0.5022 0,-6.625 c 0,-3.64375 -0.1421,-6.7671 -0.31575,-6.94075 -0.17365,-0.17365 -0.73615,-0.0907 -1.25,0.18425 -0.51385,0.275 -0.93425,0.3119 -0.93425,0.082 0,-0.2299 1.00695,-0.9072 2.23765,-1.5051 l 2.2377,-1.08715 0.1373,8.09045 0.13735,8.0905 1.25,0.3472 c 0.7612,0.2114 -0.2164,0.35125 -2.5,0.35755 -3.0826,0.009 -3.5053,-0.079 -2.375,-0.4918 z m -11.625,-5.1689 c 0,-0.5833 0.66665,-0.75 3,-0.75 2.33335,0 3,0.1667 3,0.75 0,0.58335 -0.66665,0.75 -3,0.75 -2.33335,0 -3,-0.16665 -3,-0.75 z"
       inkscape:connector-curvature="0" />
    <path
       id="path3542"
       style="fill:#000000;fill-opacity:1;stroke:#000000;stroke-width:0.5;stroke-opacity:1"
       d="m 621.66871,815.67324 0.93965,-1.12245 -3.3125,-5.7374 c -1.82185,-3.1556 -3.5066,-5.78945 -3.7438,-5.853 -0.2372,-0.0635 -0.6829,0.2895 -0.9904,0.78455 -0.3075,0.4951 -0.65315,0.73725 -0.76805,0.5382 -0.11495,-0.1991 0.4184,-1.28915 1.1853,-2.42225 l 1.3943,-2.06035 4.16415,6.93785 4.1642,6.9379 1.25615,-0.3243 c 0.7649,-0.1975 -0.0118,0.4124 -1.9863,1.55965 -2.66535,1.5487 -3.0752,1.68425 -2.3027,0.7616 z m -12.652,1.3361 c -0.29165,-0.50515 0.2023,-0.98285 2.22305,-2.14955 2.02075,-1.16665 2.68145,-1.3556 2.9731,-0.85045 0.29165,0.5052 -0.20235,0.98285 -2.2231,2.1495 -2.02075,1.1667 -2.6814,1.3557 -2.97305,0.8505 z"
       inkscape:transform-center-y="-13.046645"
       inkscape:connector-curvature="0" />
    <path
       id="path3544"
       style="fill:#000000;fill-opacity:1;stroke:#000000;stroke-width:0.5;stroke-opacity:1"
       d="m 709.18581,731.00564 c 0.005,-0.20625 1.2199,-4.0875 2.7007,-8.625 1.8553,-5.68505 2.9409,-8.30025 3.49165,-8.41165 0.4396,-0.0889 0.7993,-0.012 0.7993,0.17095 0,0.18295 -1.2508,4.13695 -2.77955,8.78665 -1.8876,5.74125 -3.01075,8.45405 -3.5,8.45405 -0.39625,0 -0.7167,-0.16875 -0.7121,-0.375 z m -8.38335,-0.7061 1.375,-0.5022 0,-6.625 c 0,-3.64375 -0.1421,-6.7671 -0.31575,-6.94075 -0.17365,-0.17365 -0.73615,-0.0908 -1.25,0.18425 -0.51385,0.275 -0.93425,0.3119 -0.93425,0.0821 0,-0.2299 1.00695,-0.9072 2.23765,-1.5051 l 2.2377,-1.08715 0.1373,8.09045 0.13735,8.0905 1.25,0.3472 c 0.7612,0.2114 -0.2164,0.35125 -2.5,0.35755 -3.0826,0.009 -3.5053,-0.079 -2.375,-0.4918 z m 19.0342,-2.86115 c 4.7124,-4.88125 5.9941,-8.4044 3.8408,-10.55775 -1.5526,-1.55255 -3.6946,-1.2955 -5.2082,0.625 -1.3906,1.76445 -1.72335,1.15985 -0.5793,-1.05245 1.45645,-2.81645 5.0722,-3.36475 7.32595,-1.111 2.5283,2.5283 1.9599,4.7719 -2.53095,9.9897 l -3.0543,3.54875 3.359,0 c 2.44385,0 3.6119,-0.2288 4.28705,-0.8398 0.8978,-0.8125 0.9046,-0.78405 0.2081,0.875 l -0.7199,1.7148 -5.1437,0.1436 -5.1437,0.1436 3.35915,-3.47945 z m -30.6592,-2.30775 c 0,-0.5833 0.66665,-0.75 3,-0.75 2.33335,0 3,0.1667 3,0.75 0,0.58335 -0.66665,0.75 -3,0.75 -2.33335,0 -3,-0.16665 -3,-0.75 z"
       inkscape:connector-curvature="0" />
    <path
       style="fill:#000000;fill-opacity:1;stroke:#000000;stroke-width:0.5;stroke-opacity:1"
       d="m 947.74234,696.98889 1.375,-0.5022 0,-6.625 c 0,-3.64375 -0.1421,-6.7671 -0.31575,-6.94075 -0.17365,-0.17365 -0.73615,-0.0908 -1.25,0.18425 -0.51385,0.275 -0.93425,0.3119 -0.93425,0.082 0,-0.2299 1.00695,-0.9072 2.23765,-1.5051 l 2.2377,-1.08715 0.1373,8.09045 0.13735,8.0905 1.25,0.3472 c 0.7612,0.2114 -0.2164,0.35125 -2.5,0.35755 -3.0826,0.009 -3.5053,-0.079 -2.375,-0.4918 z"
       id="path3548"
       inkscape:transform-center-y="3.5581797"
       inkscape:connector-curvature="0" />
    <path
       id="path3550"
       style="fill:#000000;fill-opacity:1;stroke:#000000;stroke-width:0.5;stroke-opacity:1"
       d="m 875.12366,730.61029 c 0.005,-0.20625 1.2199,-4.0875 2.7007,-8.625 1.8553,-5.68505 2.9409,-8.30025 3.49165,-8.41165 0.4396,-0.089 0.7993,-0.012 0.7993,0.17095 0,0.1829 -1.2508,4.1369 -2.77955,8.78665 -1.8876,5.7412 -3.01075,8.45405 -3.5,8.45405 -0.39625,0 -0.7167,-0.16875 -0.7121,-0.375 z m -8.38335,-0.70615 1.375,-0.5022 0,-6.625 c 0,-3.64375 -0.1421,-6.76705 -0.31575,-6.94075 -0.17365,-0.17365 -0.73615,-0.0907 -1.25,0.1843 -0.51385,0.275 -0.93425,0.3119 -0.93425,0.082 0,-0.22985 1.00695,-0.90715 2.23765,-1.5051 l 2.2377,-1.08715 0.1373,8.0905 0.13735,8.09045 1.25,0.3472 c 0.7612,0.21145 -0.2164,0.35125 -2.5,0.3576 -3.0826,0.008 -3.5053,-0.0791 -2.375,-0.49185 z m 19.0342,-2.86115 c 4.7124,-4.8812 5.9941,-8.4044 3.8408,-10.5577 -1.5526,-1.5526 -3.6946,-1.29555 -5.2082,0.625 -1.3906,1.7644 -1.72335,1.15985 -0.5793,-1.0525 1.45645,-2.8164 5.0722,-3.36475 7.32595,-1.11095 2.5283,2.5283 1.9599,4.77185 -2.53095,9.9897 l -3.0543,3.54875 3.359,0 c 2.44385,0 3.6119,-0.22885 4.28705,-0.83985 0.8978,-0.8125 0.9046,-0.78405 0.2081,0.875 l -0.7199,1.71485 -5.1437,0.1436 -5.1437,0.1436 3.35915,-3.4795 z"
       inkscape:transform-center-x="-2.7674736"
       inkscape:connector-curvature="0" />
    <path
       id="path3556"
       style="fill:#000000;fill-opacity:1;stroke:#000000;stroke-width:0.5;stroke-opacity:1"
       d="m 1045.721,730.22659 c -0.4826,-0.5815 -0.4985,-0.91275 -0.065,-1.34655 0.4339,-0.43385 0.9403,-0.30565 2.0586,0.5212 1.9054,1.4087 2.7837,1.38195 4.2964,-0.13075 2.3922,-2.39215 0.7274,-6.7727 -2.5739,-6.7727 l -1.3467,0 1.6923,-1.1405 c 2.8163,-1.8979 3.1797,-4.57065 0.8235,-6.0569 -1.1666,-0.7359 -3.4575,0.189 -4.2249,1.7057 -0.5952,1.17625 -0.6287,1.18475 -0.6357,0.16115 -0.01,-1.4348 2.7085,-3.66945 4.4636,-3.66945 1.9332,0 4.0291,1.7578 4.0291,3.37905 0,0.71855 -0.4619,1.7981 -1.0263,2.39895 l -1.0263,1.09245 1.5263,1.5263 c 2.626,2.626 1.7158,6.4453 -1.993,8.36325 -1.8846,0.9745 -5.1778,0.9574 -5.9983,-0.0312 z m 11.0259,0.3962 c 0,-0.20625 1.2199,-4.0875 2.7007,-8.625 1.8553,-5.68505 2.9409,-8.30025 3.4917,-8.41165 0.4396,-0.0889 0.7993,-0.012 0.7993,0.17095 0,0.1829 -1.2508,4.1369 -2.7796,8.78665 -1.8876,5.7412 -3.0107,8.45405 -3.5,8.45405 -0.3962,0 -0.7167,-0.16875 -0.7121,-0.375 z m 10.6509,-3.5673 c 4.7124,-4.8812 5.9941,-8.4044 3.8408,-10.5577 -1.5526,-1.5526 -3.6946,-1.29555 -5.2082,0.625 -1.3906,1.7644 -1.7234,1.15985 -0.5793,-1.0525 1.4564,-2.8164 5.0722,-3.36475 7.3259,-1.11095 2.5283,2.5283 1.9599,4.77185 -2.5309,9.9897 l -3.0543,3.54875 3.359,0 c 2.4438,0 3.6119,-0.22885 4.287,-0.83985 0.8978,-0.8125 0.9046,-0.78405 0.2081,0.875 l -0.7199,1.71485 -5.1437,0.1436 -5.1437,0.1436 3.3592,-3.4795 z"
       inkscape:connector-curvature="0" />
    <path
       id="path3592"
       style="fill:#000000;fill-opacity:1;stroke:#000000;stroke-width:0.5;stroke-opacity:1"
       d="m 792.51131,696.89129 c -2.0087,-0.94005 -3.45385,-3.04755 -4.3287,-6.3126 -1.3583,-5.0692 0.0153,-8.80395 3.59015,-9.76185 3.57495,-0.9579 6.63185,1.58975 7.9901,6.6589 0.8749,3.2651 0.6771,5.8128 -0.59245,7.63125 -1.54675,2.21545 -4.21185,2.92955 -6.6591,1.7843 z m 5.5496,-2.21705 c 0.97105,-1.68195 0.8534,-3.1637 -0.6277,-7.90385 -1.13605,-3.63575 -1.4454,-4.18325 -2.67225,-4.7294 -1.77195,-0.78895 -3.82385,-0.23915 -4.964,1.33005 -0.7894,1.08645 -0.78355,1.71525 0.0505,5.43195 0.5188,2.31175 1.22585,4.71115 1.57125,5.33195 0.9259,1.66425 2.8482,2.57805 4.49515,2.13675 0.79875,-0.21405 1.7622,-0.93085 2.14705,-1.59745 z"
       inkscape:connector-curvature="0" />
    <path
       style="fill:#000000;fill-opacity:1;stroke:#000000;stroke-width:0.5;stroke-opacity:1"
       d="m 910.86931,650.66856 0.9397,-1.12241 -3.3125,-5.73743 c -1.8219,-3.15557 -3.50665,-5.78942 -3.74385,-5.85298 -0.2372,-0.0636 -0.6829,0.28948 -0.9904,0.78456 -0.3075,0.49509 -0.65315,0.73724 -0.76805,0.53819 -0.11495,-0.1991 0.41845,-1.28914 1.1853,-2.42228 l 1.39435,-2.06035 4.1641,6.93788 4.1642,6.93791 1.25615,-0.32433 c 0.7649,-0.19751 -0.0118,0.4124 -1.9863,1.55965 -2.66535,1.54872 -3.07515,1.68424 -2.3027,0.76159 z"
       id="path3594"
       inkscape:connector-curvature="0" />
    <path
       style="fill:#000000;fill-opacity:1;stroke:#000000;stroke-width:0.5;stroke-opacity:1"
       d="m 1018.1764,541.56875 c 1.6404,-6.58349 0.9888,-10.27546 -1.9527,-11.06368 -2.1208,-0.56825 -3.8473,0.72537 -4.1979,3.14537 -0.3221,2.22336 -0.9125,1.86613 -1.0279,-0.6218 -0.1469,-3.16734 2.7103,-5.45005 5.789,-4.62513 3.4537,0.92543 4.0832,3.15264 2.8029,9.91681 l -0.8707,4.60045 2.909,-1.6795 c 2.1164,-1.22192 3.0136,-2.00408 3.2928,-2.87081 0.3713,-1.15254 0.3914,-1.1313 0.6177,0.65373 l 0.234,1.84501 -4.3828,2.69621 -4.3828,2.69621 1.1694,-4.69287 z"
       id="path3596"
       inkscape:connector-curvature="0" />
    <path
       transform="matrix(0.550328,0,0,0.5492058,-1854.7017,262.18121)"
       d="m 5001.8648,581.76996 a 67.436539,67.436539 0 1 1 -134.8731,0 67.436539,67.436539 0 1 1 134.8731,0 z"
       sodipodi:ry="67.436539"
       sodipodi:rx="67.436539"
       sodipodi:cy="581.76996"
       sodipodi:cx="4934.4282"
       id="path3634"
       style="fill:#ff81b3;fill-opacity:1;stroke:#000000;stroke-width:0;stroke-miterlimit:4;stroke-opacity:1;stroke-dasharray:none"
       sodipodi:type="arc" />
    <path
       transform="matrix(0.550328,0,0,0.5492058,-2030.657,261.71602)"
       d="m 5001.8648,581.76996 a 67.436539,67.436539 0 1 1 -134.8731,0 67.436539,67.436539 0 1 1 134.8731,0 z"
       sodipodi:ry="67.436539"
       sodipodi:rx="67.436539"
       sodipodi:cy="581.76996"
       sodipodi:cx="4934.4282"
       id="path3632"
       style="fill:#fd81b3;fill-opacity:1;stroke:#000000;stroke-width:0;stroke-miterlimit:4;stroke-opacity:1;stroke-dasharray:none"
       sodipodi:type="arc" />
    <path
       transform="matrix(0.550328,0,0,0.5492058,-1676.2931,261.21146)"
       d="m 5001.8648,581.76996 a 67.436539,67.436539 0 1 1 -134.8731,0 67.436539,67.436539 0 1 1 134.8731,0 z"
       sodipodi:ry="67.436539"
       sodipodi:rx="67.436539"
       sodipodi:cy="581.76996"
       sodipodi:cx="4934.4282"
       id="path3636"
       style="fill:#ff81b3;fill-opacity:1;stroke:none"
       sodipodi:type="arc" />
    <path
       sodipodi:nodetypes="cscc"
       id="path3630"
       d="m 1091.2937,555.73206 c -4.8849,-8.44369 -5.3796,-8.3324 -4.8849,-8.44369 l 15.6559,-3.52226 -10.771,11.96595 z"
       style="fill:#000000;fill-opacity:1;fill-rule:evenodd;stroke:#000000;stroke-width:0.5px;stroke-linecap:butt;stroke-linejoin:miter;stroke-opacity:1"
       inkscape:connector-curvature="0" />
    <path
       sodipodi:nodetypes="cscc"
       id="path3652"
       d="m 1112.6532,740.59104 c 0,-9.7499 -0.4842,-9.9004 0,-9.7499 l 15.323,4.76155 -15.323,4.98835 z"
       style="fill:#000000;fill-opacity:1;fill-rule:evenodd;stroke:#000000;stroke-width:0.5px;stroke-linecap:butt;stroke-linejoin:miter;stroke-opacity:1"
       inkscape:connector-curvature="0" />
    <path
       d="m 647.63851,538.22004 c 1.5071,-2.81468 4.30705,-8.03838 6.2221,-11.60822 1.9151,-3.56983 3.8002,-6.55596 4.1892,-6.6359 0.4678,-0.0961 2.76835,3.72357 6.79495,11.28199 3.34825,6.28495 6.08765,11.574 6.08765,11.75345 0,0.17944 -5.8577,0.32628 -13.0171,0.32628 l -13.0171,0 2.7403,-5.1176 z m 15.5088,-3.74459 c -4.67955,-8.87146 -5.93465,-11.10953 -6.22325,-11.0973 -0.13755,0.006 -2.30205,3.93741 -4.8099,8.73686 l -4.55975,8.72624 9.47535,0 9.4754,0 -3.35785,-6.3658 z"
       style="fill:#000000;fill-opacity:1;stroke:#000000;stroke-width:0.5;stroke-opacity:1"
       id="path3670"
       inkscape:connector-curvature="0" />
    <path
       d="m 673.23036,528.88861 c -1.1141,-0.9355 -1.67235,-2.51417 -1.67235,-4.72876 0,-3.43828 1.50555,-5.5688 3.93525,-5.5688 2.4297,0 3.9352,2.13052 3.9352,5.5688 0,2.21459 -0.55825,3.79326 -1.6723,4.72876 -1.35725,1.13975 -3.1686,1.13975 -4.5258,0 z m 3.89575,-0.46199 c 0.9016,-0.8997 1.07875,-1.85736 0.94495,-5.10821 -0.10265,-2.49344 -0.2057,-2.89237 -0.8909,-3.44606 -0.98965,-0.7997 -2.3842,-0.7997 -3.37385,0 -0.68515,0.55369 -0.78825,0.95262 -0.8909,3.44606 -0.0638,1.5509 -0.0231,3.18919 0.0904,3.64064 0.30445,1.21025 1.3681,2.11444 2.4875,2.11444 0.5428,0 1.2756,-0.29028 1.63285,-0.64687 z"
       style="fill:#000000;fill-opacity:1;stroke:#000000;stroke-width:0.5;stroke-opacity:1"
       id="path3690"
       inkscape:connector-curvature="0" />
    <path
       id="path3694"
       d="m 912.87521,527.59417 0,-3.27576 -3.28245,0 c -1.94515,0 -3.28245,-0.14829 -3.28245,-0.36397 0,-0.21569 1.3373,-0.36398 3.28245,-0.36398 l 3.28245,0 0,-3.45775 c 0,-2.8309 0.0992,-3.45775 0.54705,-3.45775 0.44795,0 0.5471,0.62685 0.5471,3.45775 l 0,3.45775 3.1001,0 c 1.8236,0 3.1001,0.14989 3.1001,0.36398 0,0.21413 -1.2765,0.36397 -3.1001,0.36397 l -3.1001,0 0,3.27576 c 0,2.66914 -0.1013,3.27577 -0.5471,3.27577 -0.44575,0 -0.54705,-0.60663 -0.54705,-3.27577 z"
       style="fill:#000000;fill-opacity:1;stroke:#000000;stroke-width:0.5;stroke-opacity:1"
       inkscape:connector-curvature="0" />
    <path
       d="m 596.46036,693.96719 1.37585,-0.5015 0,-6.61545 c 0,-3.63845 -0.1422,-6.7573 -0.31595,-6.9307 -0.17375,-0.1734 -0.7366,-0.0906 -1.25075,0.184 -0.51415,0.2746 -0.9348,0.31145 -0.9348,0.0819 0,-0.22955 1.00755,-0.9059 2.239,-1.5029 l 2.239,-1.0856 0.1374,8.07875 0.13745,8.07885 1.25075,0.3467 c 0.76165,0.2111 -0.21655,0.35075 -2.5015,0.357 -3.08445,0.009 -3.5074,-0.0788 -2.37645,-0.49105 z m -11.6319,-5.16145 c 0,-0.58245 0.66705,-0.7489 3.0018,-0.7489 2.3347,0 3.00175,0.16645 3.00175,0.7489 0,0.5825 -0.66705,0.7489 -3.00175,0.7489 -2.33475,0 -3.0018,-0.1664 -3.0018,-0.7489 z"
       style="fill:#000000;fill-opacity:1;stroke:#000000;stroke-width:0.5;stroke-opacity:1"
       id="path3702"
       inkscape:connector-curvature="0" />
    <path
       inkscape:transform-center-y="-13.027805"
       d="m 621.36456,815.24359 0.94025,-1.1208 -3.3145,-5.72915 c -1.82295,-3.15105 -3.5087,-5.78105 -3.74605,-5.84455 -0.2373,-0.0634 -0.6833,0.28905 -0.99095,0.78345 -0.3077,0.49435 -0.65355,0.73615 -0.76855,0.5374 -0.115,-0.1988 0.41865,-1.28725 1.18605,-2.4188 l 1.3951,-2.05735 4.16665,6.92785 4.1667,6.9279 1.25685,-0.32385 c 0.7654,-0.19725 -0.0118,0.4118 -1.98745,1.5574 -2.66695,1.54645 -3.07705,1.6818 -2.3041,0.7605 z m -12.65955,1.33415 c -0.2918,-0.5044 0.20245,-0.98145 2.2244,-2.1464 2.02195,-1.165 2.68305,-1.3537 2.97485,-0.84925 0.29185,0.50445 -0.20245,0.9814 -2.2244,2.1464 -2.02195,1.165 -2.683,1.3537 -2.97485,0.84925 z"
       style="fill:#000000;fill-opacity:1;stroke:#000000;stroke-width:0.5;stroke-opacity:1"
       id="path3704"
       inkscape:connector-curvature="0" />
    <path
       inkscape:transform-center-x="-2.7691239"
       d="m 874.97066,730.30349 c 0.005,-0.20595 1.22065,-4.0816 2.70235,-8.61255 1.8564,-5.67685 2.94265,-8.28825 3.4937,-8.3995 0.4399,-0.0888 0.7998,-0.012 0.7998,0.1707 0,0.18265 -1.25155,4.13095 -2.7812,8.77395 -1.88875,5.7329 -3.01255,8.44185 -3.5021,8.44185 -0.3965,0 -0.71715,-0.1685 -0.71255,-0.37445 z m -8.38835,-0.70515 1.37585,-0.50145 0,-6.61545 c 0,-3.6385 -0.1422,-6.75725 -0.31595,-6.9307 -0.17375,-0.1734 -0.7366,-0.0906 -1.25075,0.184 -0.51415,0.2746 -0.9348,0.31145 -0.9348,0.0819 0,-0.22955 1.00755,-0.90585 2.239,-1.50295 l 2.239,-1.08555 0.1374,8.0788 0.13745,8.07875 1.25075,0.3467 c 0.76165,0.21115 -0.21655,0.35075 -2.5015,0.3571 -3.08445,0.009 -3.5074,-0.0789 -2.37645,-0.49115 z m 19.04555,-2.857 c 4.71525,-4.87415 5.9977,-8.39225 3.8431,-10.54245 -1.5535,-1.55035 -3.6968,-1.2937 -5.2113,0.6241 -1.3914,1.76185 -1.72435,1.15815 -0.57965,-1.051 1.45735,-2.8123 5.07525,-3.3599 7.33035,-1.10935 2.5298,2.52465 1.96105,4.76495 -2.5325,9.9753 l -3.0561,3.5436 3.361,0 c 2.4453,0 3.61405,-0.2285 4.2896,-0.8386 0.89835,-0.81135 0.90515,-0.78295 0.20825,0.8737 l -0.72035,1.7124 -5.14675,0.1434 -5.1468,0.14335 3.36115,-3.47445 z"
       style="fill:#000000;fill-opacity:1;stroke:#000000;stroke-width:0.5;stroke-opacity:1"
       id="path3712"
       inkscape:connector-curvature="0" />
    <path
       d="m 508.42091,577.83325 c -1.6102,-0.8906 -2.51745,-2.6546 -2.5389,-4.93616 -0.0583,-6.2152 7.09425,-12.23355 10.4999,-8.83482 1.1419,1.13955 1.0663,1.25299 2.2188,-3.32868 1.00905,-4.01145 0.99065,-4.17183 -0.4791,-4.17183 -1.76915,0 -1.5547,-0.81307 0.3127,-1.18577 1.897,-0.37867 3.93985,-0.40663 3.93985,-0.054 0,0.14194 -1.15215,4.85393 -2.5603,10.4711 -1.40815,5.61714 -2.42835,10.55619 -2.26705,10.97569 0.1613,0.41944 0.63225,0.76264 1.04655,0.76264 0.79815,0 2.2799,-2.41755 2.2799,-3.71978 0,-0.42557 0.22515,-0.77372 0.5003,-0.77372 0.6241,0 0.64105,1.06351 0.0418,2.63603 -1.11135,2.91719 -3.8092,3.76712 -5.3763,1.69375 l -0.8785,-1.16226 -1.7162,1.16226 c -1.9318,1.30832 -3.2749,1.43279 -5.0235,0.46553 z m 5.1051,-1.78521 c 1.43235,-1.25509 1.82715,-2.10322 2.56475,-5.50993 0.80465,-3.71659 0.8096,-4.1212 0.0639,-5.25685 -2.3753,-3.61772 -6.9351,1.1429 -7.642,7.97856 -0.4424,4.27742 1.85535,5.55532 5.0133,2.78822 z"
       style="fill:#000000;fill-opacity:1;stroke:#000000;stroke-width:0.5;stroke-opacity:1"
       id="path3722"
       inkscape:connector-curvature="0" />
    <path
       d="m 486.34251,577.97764 c -1.61015,-0.89062 -2.51745,-2.65462 -2.53885,-4.93617 -0.0583,-6.21521 7.0942,-12.23356 10.4999,-8.83482 1.14185,1.13956 1.06625,1.25299 2.21875,-3.32869 1.00905,-4.01145 0.99065,-4.17181 -0.4791,-4.17181 -1.76915,0 -1.5547,-0.81308 0.3127,-1.18579 1.897,-0.37865 3.93985,-0.40661 3.93985,-0.054 0,0.14195 -1.15215,4.85393 -2.56025,10.47111 -1.4082,5.61712 -2.42835,10.55619 -2.26705,10.97567 0.16125,0.41944 0.6322,0.76265 1.0465,0.76265 0.7982,0 2.2799,-2.41756 2.2799,-3.71977 0,-0.42559 0.22515,-0.77373 0.5003,-0.77373 0.62415,0 0.64105,1.06352 0.0419,2.63604 -1.1114,2.91718 -3.80925,3.7671 -5.3763,1.69375 l -0.87855,-1.16227 -1.71615,1.16227 c -1.9318,1.3083 -3.2749,1.43278 -5.02355,0.46553 z m 5.10515,-1.78523 c 1.43235,-1.25507 1.8271,-2.1032 2.5647,-5.50992 0.80465,-3.71658 0.8096,-4.12119 0.0639,-5.25685 -2.37525,-3.61772 -6.9351,1.1429 -7.642,7.97856 -0.44235,4.27741 1.85535,5.55531 5.01335,2.78821 z"
       style="fill:#000000;fill-opacity:1;stroke:#000000;stroke-width:0.5;stroke-opacity:1"
       id="path3724"
       inkscape:connector-curvature="0" />
    <path
       d="m 601.07686,734.19074 c -1.61015,-0.8906 -2.51745,-2.6546 -2.5389,-4.93615 -0.0583,-6.2152 7.09425,-12.23355 10.49995,-8.8348 1.14185,1.13955 1.06625,1.25295 2.21875,-3.3287 1.00905,-4.01145 0.99065,-4.1718 -0.4791,-4.1718 -1.76915,0 -1.5547,-0.8131 0.3127,-1.1858 1.897,-0.37865 3.93985,-0.4066 3.93985,-0.054 0,0.14195 -1.15215,4.85395 -2.56025,10.47115 -1.4082,5.6171 -2.42835,10.55615 -2.26705,10.97565 0.16125,0.41945 0.6322,0.76265 1.0465,0.76265 0.7982,0 2.2799,-2.41755 2.2799,-3.71975 0,-0.4256 0.22515,-0.77375 0.5003,-0.77375 0.62415,0 0.64105,1.0635 0.0419,2.63605 -1.1114,2.91715 -3.80925,3.7671 -5.3763,1.69375 l -0.87855,-1.1623 -1.71615,1.1623 c -1.9318,1.3083 -3.2749,1.43275 -5.02355,0.4655 z m 5.10515,-1.7852 c 1.43235,-1.2551 1.8271,-2.1032 2.5647,-5.50995 0.80465,-3.71655 0.8096,-4.12115 0.0639,-5.25685 -2.37525,-3.6177 -6.9351,1.1429 -7.642,7.9786 -0.44235,4.2774 1.85535,5.5553 5.01335,2.7882 z"
       style="fill:#000000;fill-opacity:1;stroke:#000000;stroke-width:0.5;stroke-opacity:1"
       id="path3728"
       inkscape:connector-curvature="0" />
    <path
       d="m 579.06906,734.16024 c -1.61015,-0.8906 -2.51745,-2.6546 -2.53885,-4.93615 -0.0584,-6.21525 7.0942,-12.2336 10.4999,-8.83485 1.1419,1.13955 1.0663,1.253 2.21875,-3.3287 1.00905,-4.01145 0.99065,-4.1718 -0.47905,-4.1718 -1.76915,0 -1.55475,-0.81305 0.31265,-1.1858 1.897,-0.37865 3.93985,-0.4066 3.93985,-0.0539 0,0.14195 -1.1521,4.8539 -2.56025,10.4711 -1.4082,5.61715 -2.42835,10.5562 -2.26705,10.9757 0.1613,0.4194 0.6322,0.7626 1.0465,0.7626 0.7982,0 2.27995,-2.41755 2.27995,-3.71975 0,-0.4256 0.2251,-0.77375 0.50025,-0.77375 0.62415,0 0.64105,1.06355 0.0419,2.63605 -1.11135,2.9172 -3.8092,3.7671 -5.3763,1.69375 l -0.87855,-1.16225 -1.71615,1.16225 c -1.9318,1.3083 -3.2749,1.4328 -5.02355,0.46555 z m 5.10515,-1.78525 c 1.43235,-1.25505 1.82715,-2.1032 2.56475,-5.5099 0.8046,-3.7166 0.80955,-4.1212 0.0639,-5.25685 -2.37525,-3.61775 -6.93505,1.1429 -7.642,7.97855 -0.44235,4.2774 1.85535,5.5553 5.01335,2.7882 z"
       style="fill:#000000;fill-opacity:1;stroke:#000000;stroke-width:0.5;stroke-opacity:1"
       id="path3730"
       inkscape:connector-curvature="0" />
    <path
       transform="matrix(0.550328,0,0,0.5492058,-2031.8561,572.36785)"
       d="m 5001.8648,581.76996 a 67.436539,67.436539 0 1 1 -134.8731,0 67.436539,67.436539 0 1 1 134.8731,0 z"
       sodipodi:ry="67.436539"
       sodipodi:rx="67.436539"
       sodipodi:cy="581.76996"
       sodipodi:cx="4934.4282"
       id="path3644"
       style="fill:#ff81b3;fill-opacity:1;stroke:none"
       sodipodi:type="arc" />
    <path
       inkscape:transform-center-y="6.7112971"
       d="m 688.71331,890.06509 c -1.6102,-0.8906 -2.51745,-2.6546 -2.5389,-4.93615 -0.0583,-6.2152 7.09425,-12.23355 10.49995,-8.8348 1.14185,1.13955 1.06625,1.25295 2.21875,-3.3287 1.00905,-4.01145 0.99065,-4.1718 -0.4791,-4.1718 -1.76915,0 -1.5547,-0.8131 0.3127,-1.1858 1.897,-0.37865 3.93985,-0.4066 3.93985,-0.054 0,0.14195 -1.15215,4.85395 -2.5603,10.47115 -1.40815,5.6171 -2.42835,10.55615 -2.26705,10.97565 0.1613,0.41945 0.63225,0.76265 1.04655,0.76265 0.79815,0 2.2799,-2.41755 2.2799,-3.71975 0,-0.4256 0.22515,-0.77375 0.5003,-0.77375 0.6241,0 0.64105,1.0635 0.0419,2.63605 -1.1114,2.91715 -3.80925,3.7671 -5.37635,1.69375 l -0.8785,-1.1623 -1.71615,1.1623 c -1.93185,1.3083 -3.27495,1.43275 -5.02355,0.4655 z m 5.1051,-1.7852 c 1.4324,-1.2551 1.82715,-2.1032 2.56475,-5.50995 0.80465,-3.71655 0.8096,-4.12115 0.0639,-5.25685 -2.3753,-3.6177 -6.9351,1.1429 -7.642,7.9786 -0.4424,4.2774 1.85535,5.5553 5.0133,2.7882 z"
       style="fill:#000000;fill-opacity:1;stroke:#000000;stroke-width:0.5;stroke-opacity:1"
       id="path3732"
       inkscape:connector-curvature="0" />
    <path
       transform="matrix(0.550328,0,0,0.5492058,-1943.1153,415.96055)"
       d="m 5001.8648,581.76996 a 67.436539,67.436539 0 1 1 -134.8731,0 67.436539,67.436539 0 1 1 134.8731,0 z"
       sodipodi:ry="67.436539"
       sodipodi:rx="67.436539"
       sodipodi:cy="581.76996"
       sodipodi:cx="4934.4282"
       id="path3640"
       style="fill:#ff81b3;fill-opacity:1;stroke:none"
       sodipodi:type="arc" />
    <path
       inkscape:transform-center-y="2.7634767"
       inkscape:transform-center-x="-8.2462438"
       d="m 777.50366,733.96914 c -1.61015,-0.89065 -2.51745,-2.6546 -2.53885,-4.93615 -0.0583,-6.21525 7.0942,-12.2336 10.4999,-8.83485 1.14185,1.13955 1.0663,1.253 2.21875,-3.3287 1.00905,-4.01145 0.99065,-4.1718 -0.47905,-4.1718 -1.76915,0 -1.55475,-0.8131 0.31265,-1.1858 1.897,-0.37865 3.93985,-0.4066 3.93985,-0.0539 0,0.14195 -1.1521,4.8539 -2.56025,10.4711 -1.4082,5.6171 -2.42835,10.5562 -2.26705,10.9757 0.1613,0.4194 0.6322,0.7626 1.0465,0.7626 0.7982,0 2.2799,-2.41755 2.2799,-3.71975 0,-0.4256 0.22515,-0.77375 0.5003,-0.77375 0.62415,0 0.64105,1.06355 0.0419,2.63605 -1.11135,2.9172 -3.80925,3.7671 -5.3763,1.69375 l -0.87855,-1.16225 -1.71615,1.16225 c -1.9318,1.3083 -3.2749,1.4328 -5.02355,0.46555 z m 5.10515,-1.78525 c 1.43235,-1.25505 1.82715,-2.1032 2.5647,-5.5099 0.80465,-3.7166 0.8096,-4.1212 0.064,-5.25685 -2.37525,-3.61775 -6.93505,1.1429 -7.642,7.97855 -0.44235,4.2774 1.85535,5.5553 5.01335,2.7882 z"
       style="fill:#000000;fill-opacity:1;stroke:#000000;stroke-width:0.5;stroke-opacity:1"
       id="path3734"
       inkscape:connector-curvature="0" />
    <path
       d="m 667.15976,577.46346 c -1.61015,-0.89061 -2.51745,-2.65461 -2.53885,-4.93616 -0.0584,-6.21521 7.0942,-12.23356 10.4999,-8.83483 1.1419,1.13957 1.0663,1.25299 2.21875,-3.32868 1.00905,-4.01145 0.99065,-4.17182 -0.47905,-4.17182 -1.76915,0 -1.55475,-0.81307 0.31265,-1.18578 1.897,-0.37865 3.93985,-0.40662 3.93985,-0.054 0,0.14195 -1.1521,4.85394 -2.56025,10.47111 -1.4082,5.61713 -2.42835,10.55619 -2.26705,10.97568 0.1613,0.41945 0.6322,0.76265 1.0465,0.76265 0.7982,0 2.27995,-2.41756 2.27995,-3.71978 0,-0.42558 0.2251,-0.77372 0.5003,-0.77372 0.6241,0 0.641,1.06351 0.0418,2.63604 -1.11135,2.91717 -3.8092,3.7671 -5.3763,1.69375 l -0.87855,-1.16228 -1.71615,1.16228 c -1.9318,1.30831 -3.2749,1.43277 -5.02355,0.46552 z m 5.10515,-1.78522 c 1.43235,-1.25508 1.82715,-2.1032 2.56475,-5.50993 0.8046,-3.71657 0.80955,-4.12119 0.0639,-5.25685 -2.37525,-3.61771 -6.93505,1.1429 -7.642,7.97856 -0.44235,4.27742 1.85535,5.55532 5.01335,2.78822 z"
       style="fill:#000000;fill-opacity:1;stroke:#000000;stroke-width:0.5;stroke-opacity:1"
       id="path3736"
       inkscape:connector-curvature="0" />
    <path
       d="m 853.72926,602.86117 c -1.61015,-0.89061 -2.51745,-2.65461 -2.53885,-4.93615 -0.0584,-6.21521 7.0942,-12.23356 10.4999,-8.83482 1.1419,1.13955 1.0663,1.25299 2.21875,-3.32869 1.0091,-4.01145 0.99065,-4.17182 -0.47905,-4.17182 -1.76915,0 -1.55475,-0.81308 0.31265,-1.18578 1.897,-0.37866 3.93985,-0.40661 3.93985,-0.054 0,0.14193 -1.1521,4.85392 -2.56025,10.4711 -1.4082,5.61712 -2.42835,10.55618 -2.26705,10.97567 0.1613,0.41945 0.6322,0.76265 1.0465,0.76265 0.7982,0 2.27995,-2.41755 2.27995,-3.71976 0,-0.42559 0.2251,-0.77374 0.5003,-0.77374 0.6241,0 0.641,1.06351 0.0418,2.63604 -1.11135,2.91719 -3.8092,3.7671 -5.3763,1.69375 l -0.87855,-1.16226 -1.71615,1.16226 c -1.9318,1.30831 -3.2749,1.43277 -5.02355,0.46552 z m 5.10515,-1.78521 c 1.43235,-1.25509 1.82715,-2.10321 2.56475,-5.50994 0.8046,-3.71657 0.80955,-4.12118 0.0639,-5.25683 -2.37525,-3.61773 -6.93505,1.14288 -7.642,7.97855 -0.44235,4.27742 1.85535,5.55532 5.01335,2.78822 z"
       style="fill:#000000;fill-opacity:1;stroke:#000000;stroke-width:0.5;stroke-opacity:1"
       id="path3738"
       inkscape:connector-curvature="0" />
    <path
       id="path3740"
       d="m 1020.526,576.87409 c -1.578,-1.57473 -1.5705,-3.48985 0.031,-8.01117 1.4905,-4.20756 1.5535,-5.24241 0.3194,-5.24241 -1.1654,0 -2.4056,1.35179 -3.122,3.40253 -0.3056,0.87463 -0.7586,1.59025 -1.0069,1.59025 -0.6668,0 -0.5521,-0.88528 0.3643,-2.81269 1.4425,-3.03346 4.1984,-4.09881 5.8608,-2.26561 1.0644,1.1737 1.0359,2.12876 -0.179,5.99652 -1.6204,5.15889 -1.2115,7.5695 1.2842,7.5695 2.2341,0 3.4837,-1.98577 4.9425,-7.85389 1.3365,-5.37623 1.9503,-6.45007 3.2342,-5.65822 0.4631,0.28569 0.3029,1.57826 -0.6708,5.41152 -0.7035,2.76994 -1.2792,5.72572 -1.2792,6.5684 0,2.6305 2.1411,1.70214 2.9387,-1.27421 0.2023,-0.7548 0.6606,-1.46977 1.0184,-1.5888 0.7846,-0.26101 0.3772,1.37631 -0.9072,3.64628 -1.0732,1.89676 -3.0668,2.22992 -4.5408,0.75891 l -1.0512,-1.04909 -1.2979,1.01883 c -1.8096,1.4205 -4.3983,1.33042 -5.9385,-0.20665 z"
       style="fill:#000000;fill-opacity:1;stroke:#000000;stroke-width:0.5;stroke-opacity:1"
       inkscape:connector-curvature="0" />
    <path
       id="path3742"
       d="m 1044.7299,576.66594 c -1.5779,-1.57473 -1.5705,-3.48987 0.031,-8.01118 1.4905,-4.20756 1.5535,-5.24241 0.3193,-5.24241 -1.1653,0 -2.4056,1.35179 -3.122,3.40252 -0.3055,0.87464 -0.7586,1.59025 -1.0068,1.59025 -0.6669,0 -0.5522,-0.88526 0.3643,-2.81267 1.4424,-3.03346 4.1983,-4.09883 5.8608,-2.26564 1.0643,1.17371 1.0358,2.12878 -0.1791,5.99654 -1.6204,5.15889 -1.2115,7.5695 1.2842,7.5695 2.2341,0 3.4838,-1.98578 4.9426,-7.85389 1.3365,-5.37622 1.9502,-6.45007 3.2341,-5.65822 0.4631,0.28568 0.3029,1.57827 -0.6707,5.41152 -0.7036,2.76995 -1.2793,5.72573 -1.2793,6.5684 0,2.6305 2.1411,1.70214 2.9387,-1.2742 0.2023,-0.75481 0.6606,-1.46977 1.0185,-1.5888 0.7845,-0.26102 0.3772,1.3763 -0.9072,3.64628 -1.0733,1.89675 -3.0668,2.22992 -4.5408,0.7589 l -1.0513,-1.04909 -1.2979,1.01882 c -1.8096,1.4205 -4.3983,1.33044 -5.9385,-0.20663 z"
       style="fill:#000000;fill-opacity:1;stroke:#000000;stroke-width:0.5;stroke-opacity:1"
       inkscape:connector-curvature="0" />
    <path
       id="path3744"
       d="m 1035.2708,598.97551 c -1.5779,-1.57472 -1.5704,-3.48986 0.031,-8.01117 1.4905,-4.20757 1.5535,-5.24242 0.3194,-5.24242 -1.1654,0 -2.4057,1.35179 -3.1221,3.40253 -0.3055,0.87464 -0.7586,1.59025 -1.0068,1.59025 -0.6669,0 -0.5522,-0.88526 0.3643,-2.81269 1.4424,-3.03345 4.1984,-4.09881 5.8608,-2.26561 1.0643,1.1737 1.0358,2.12876 -0.1791,5.99652 -1.6204,5.15889 -1.2114,7.5695 1.2843,7.5695 2.234,0 3.4837,-1.98577 4.9425,-7.85388 1.3365,-5.37623 1.9503,-6.45008 3.2341,-5.65823 0.4632,0.2857 0.303,1.57828 -0.6707,5.41153 -0.7036,2.76995 -1.2792,5.72572 -1.2792,6.5684 0,2.6305 2.141,1.70215 2.9387,-1.2742 0.2022,-0.75482 0.6605,-1.46978 1.0184,-1.5888 0.7845,-0.26103 0.3772,1.3763 -0.9072,3.64627 -1.0732,1.89675 -3.0668,2.22993 -4.5408,0.7589 l -1.0512,-1.04909 -1.298,1.01884 c -1.8095,1.42049 -4.3982,1.33041 -5.9385,-0.20665 z"
       style="fill:#000000;fill-opacity:1;stroke:#000000;stroke-width:0.5;stroke-opacity:1"
       inkscape:connector-curvature="0" />
    <path
       id="path3746"
       d="m 690.31826,576.88655 c -1.57795,-1.57473 -1.5705,-3.48985 0.031,-8.01116 1.4905,-4.20757 1.5535,-5.24242 0.31935,-5.24242 -1.16535,0 -2.40565,1.35179 -3.122,3.40253 -0.30555,0.87464 -0.7586,1.59025 -1.00685,1.59025 -0.66685,0 -0.5522,-0.88528 0.3643,-2.81269 1.4424,-3.03346 4.19835,-4.09881 5.8608,-2.26562 1.06435,1.17371 1.03585,2.12877 -0.17905,5.99652 -1.6204,5.1589 -1.21145,7.56951 1.2842,7.56951 2.2341,0 3.48375,-1.98577 4.94255,-7.8539 1.3365,-5.37621 1.95025,-6.45006 3.23415,-5.65821 0.4631,0.28569 0.3029,1.57828 -0.67075,5.41153 -0.7036,2.76995 -1.2792,5.72572 -1.2792,6.5684 0,2.6305 2.14105,1.70213 2.9387,-1.2742 0.20225,-0.75482 0.6605,-1.46978 1.0184,-1.5888 0.78455,-0.26103 0.3772,1.3763 -0.9072,3.64627 -1.07325,1.89675 -3.0668,2.22993 -4.5408,0.7589 l -1.05125,-1.04909 -1.2979,1.01883 c -1.8096,1.4205 -4.3983,1.33042 -5.9385,-0.20665 z"
       style="fill:#000000;fill-opacity:1;stroke:#000000;stroke-width:0.5;stroke-opacity:1"
       inkscape:transform-center-x="-9.4193218"
       inkscape:transform-center-y="-4.7442362"
       inkscape:connector-curvature="0" />
    <path
       d="m 678.10701,603.1693 c -1.61015,-0.89061 -2.51745,-2.65461 -2.53885,-4.93616 -0.0584,-6.21522 7.09425,-12.23357 10.4999,-8.83483 1.1419,1.13955 1.0663,1.25299 2.2188,-3.32869 1.00905,-4.01143 0.99065,-4.17181 -0.4791,-4.17181 -1.76915,0 -1.55475,-0.81307 0.3127,-1.18579 1.89695,-0.37865 3.93985,-0.40661 3.93985,-0.054 0,0.14194 -1.15215,4.85393 -2.5603,10.4711 -1.4082,5.61713 -2.42835,10.55619 -2.26705,10.97568 0.1613,0.41945 0.63225,0.76265 1.04655,0.76265 0.79815,0 2.2799,-2.41755 2.2799,-3.71978 0,-0.42557 0.2251,-0.77372 0.5003,-0.77372 0.6241,0 0.641,1.0635 0.0418,2.63603 -1.11135,2.91718 -3.8092,3.7671 -5.3763,1.69375 l -0.8785,-1.16227 -1.7162,1.16227 c -1.9318,1.3083 -3.2749,1.43278 -5.02355,0.46553 z m 5.10515,-1.78521 c 1.43235,-1.2551 1.82715,-2.10322 2.56475,-5.50994 0.8046,-3.71658 0.80955,-4.12119 0.0639,-5.25685 -2.3753,-3.61771 -6.9351,1.1429 -7.64205,7.97856 -0.44235,4.27741 1.8554,5.55531 5.01335,2.78823 z"
       style="fill:#000000;fill-opacity:1;stroke:#000000;stroke-width:0.5;stroke-opacity:1"
       id="path3748"
       inkscape:connector-curvature="0" />
    <path
       id="path3750"
       d="m 756.80191,733.39509 c -1.57795,-1.57475 -1.5705,-3.48985 0.031,-8.0112 1.4905,-4.20755 1.5535,-5.2424 0.31935,-5.2424 -1.16535,0 -2.4056,1.3518 -3.122,3.4025 -0.30555,0.87465 -0.7586,1.59025 -1.00685,1.59025 -0.66685,0 -0.5522,-0.88525 0.3643,-2.81265 1.44245,-3.03345 4.19835,-4.09885 5.8608,-2.26565 1.06435,1.1737 1.03585,2.1288 -0.17905,5.99655 -1.6204,5.1589 -1.21145,7.5695 1.2842,7.5695 2.2341,0 3.48375,-1.9858 4.94255,-7.8539 1.3365,-5.3762 1.9503,-6.45005 3.23415,-5.6582 0.4631,0.2857 0.3029,1.57825 -0.67075,5.4115 -0.7036,2.76995 -1.2792,5.72575 -1.2792,6.5684 0,2.6305 2.14105,1.70215 2.9387,-1.2742 0.20225,-0.7548 0.66055,-1.46975 1.0184,-1.5888 0.78455,-0.261 0.3772,1.3763 -0.9072,3.6463 -1.07325,1.89675 -3.0668,2.2299 -4.5408,0.7589 l -1.05125,-1.0491 -1.2979,1.01885 c -1.8096,1.4205 -4.3983,1.3304 -5.9385,-0.20665 z"
       style="fill:#000000;fill-opacity:1;stroke:#000000;stroke-width:0.5;stroke-opacity:1"
       inkscape:connector-curvature="0" />
    <path
       transform="matrix(0.550328,0,0,0.5492058,-1853.7748,572.96622)"
       d="m 5001.8648,581.76996 a 67.436539,67.436539 0 1 1 -134.8731,0 67.436539,67.436539 0 1 1 134.8731,0 z"
       sodipodi:ry="67.436539"
       sodipodi:rx="67.436539"
       sodipodi:cy="581.76996"
       sodipodi:cx="4934.4282"
       id="path3646"
       style="fill:#ff81b3;fill-opacity:1;stroke:#000000;stroke-width:0;stroke-miterlimit:4;stroke-opacity:1;stroke-dasharray:none"
       sodipodi:type="arc" />
    <path
       id="path3752"
       d="m 868.66696,889.53224 c -1.57795,-1.57475 -1.5705,-3.48985 0.031,-8.01115 1.4905,-4.2076 1.5535,-5.24245 0.31935,-5.24245 -1.16535,0 -2.40565,1.3518 -3.122,3.40255 -0.30555,0.87465 -0.7586,1.59025 -1.00685,1.59025 -0.66685,0 -0.5522,-0.8853 0.3643,-2.8127 1.4424,-3.03345 4.19835,-4.0988 5.8608,-2.2656 1.06435,1.1737 1.0358,2.12875 -0.17905,5.9965 -1.6204,5.1589 -1.2115,7.5695 1.2842,7.5695 2.2341,0 3.48375,-1.98575 4.94255,-7.8539 1.3365,-5.3762 1.95025,-6.45005 3.23415,-5.6582 0.4631,0.2857 0.3029,1.5783 -0.67075,5.41155 -0.7036,2.76995 -1.27925,5.7257 -1.27925,6.5684 0,2.6305 2.1411,1.7021 2.9387,-1.27425 0.2023,-0.7548 0.66055,-1.46975 1.01845,-1.5888 0.78455,-0.261 0.3772,1.37635 -0.9072,3.6463 -1.07325,1.89675 -3.0668,2.2299 -4.5408,0.7589 l -1.05125,-1.0491 -1.2979,1.01885 c -1.8096,1.4205 -4.3983,1.3304 -5.9385,-0.20665 z"
       style="fill:#000000;fill-opacity:1;stroke:#000000;stroke-width:0.5;stroke-opacity:1"
       inkscape:connector-curvature="0" />
    <path
       transform="matrix(0.550328,0,0,0.5492058,-1762.6356,416.3282)"
       d="m 5001.8648,581.76996 a 67.436539,67.436539 0 1 1 -134.8731,0 67.436539,67.436539 0 1 1 134.8731,0 z"
       sodipodi:ry="67.436539"
       sodipodi:rx="67.436539"
       sodipodi:cy="581.76996"
       sodipodi:cx="4934.4282"
       id="path3638"
       style="fill:#ff81b3;fill-opacity:1;stroke:none"
       sodipodi:type="arc" />
    <path
       id="path3754"
       d="m 933.20366,733.30289 c -1.57795,-1.5747 -1.57045,-3.48985 0.0311,-8.01115 1.49045,-4.2076 1.55345,-5.24245 0.3193,-5.24245 -1.1653,0 -2.4056,1.3518 -3.122,3.40255 -0.3055,0.87465 -0.7586,1.59025 -1.00685,1.59025 -0.66685,0 -0.55215,-0.88525 0.36435,-2.8127 1.4424,-3.03345 4.19835,-4.0988 5.86073,-2.2656 1.06435,1.1737 1.03585,2.12875 -0.17905,5.9965 -1.62038,5.1589 -1.21143,7.5695 1.28425,7.5695 2.23405,0 3.4837,-1.98575 4.94255,-7.85385 1.33645,-5.37625 1.95025,-6.4501 3.2341,-5.65825 0.46315,0.2857 0.30295,1.5783 -0.67075,5.41155 -0.70355,2.76995 -1.2792,5.7257 -1.2792,6.5684 0,2.6305 2.14105,1.70215 2.9387,-1.2742 0.20225,-0.75485 0.66055,-1.4698 1.0184,-1.5888 0.78455,-0.26105 0.37725,1.3763 -0.9072,3.64625 -1.07325,1.89675 -3.06675,2.22995 -4.5408,0.7589 l -1.0512,-1.04905 -1.29795,1.0188 c -1.80955,1.4205 -4.39823,1.3304 -5.93848,-0.20665 z"
       style="fill:#000000;fill-opacity:1;stroke:#000000;stroke-width:0.5;stroke-opacity:1"
       inkscape:connector-curvature="0" />
    <path
       inkscape:transform-center-x="1.9779477"
       inkscape:transform-center-y="2.7634772"
       id="path3756"
       d="m 957.32439,733.57419 c -1.57795,-1.57475 -1.57045,-3.48985 0.0311,-8.01115 1.49045,-4.2076 1.55345,-5.24245 0.3193,-5.24245 -1.1653,0 -2.4056,1.3518 -3.122,3.40255 -0.3055,0.87465 -0.7586,1.59025 -1.00685,1.59025 -0.66685,0 -0.55215,-0.8853 0.36435,-2.8127 1.4424,-3.03345 4.19835,-4.0988 5.86075,-2.2656 1.06435,1.1737 1.03585,2.12875 -0.17905,5.9965 -1.6204,5.1589 -1.21145,7.5695 1.28425,7.5695 2.23405,0 3.4837,-1.98575 4.94255,-7.8539 1.33645,-5.3762 1.95025,-6.45005 3.2341,-5.6582 0.46315,0.2857 0.30295,1.5783 -0.67075,5.41155 -0.70355,2.76995 -1.2792,5.7257 -1.2792,6.5684 0,2.6305 2.14105,1.7021 2.9387,-1.27425 0.20225,-0.7548 0.66055,-1.46975 1.0184,-1.58875 0.78455,-0.26105 0.3772,1.3763 -0.9072,3.64625 -1.07325,1.89675 -3.06675,2.22995 -4.5408,0.7589 l -1.0512,-1.0491 -1.29795,1.01885 c -1.8096,1.4205 -4.39825,1.3304 -5.9385,-0.20665 z"
       style="fill:#000000;fill-opacity:1;stroke:#000000;stroke-width:0.5;stroke-opacity:1"
       inkscape:connector-curvature="0" />
    <path
       inkscape:transform-center-x="3.9558816"
       id="path3758"
       d="m 844.82526,577.14002 c -1.57795,-1.57471 -1.5705,-3.48985 0.0311,-8.01116 1.4905,-4.20756 1.5535,-5.24241 0.31935,-5.24241 -1.16535,0 -2.40565,1.35179 -3.122,3.40252 -0.30555,0.87464 -0.7586,1.59025 -1.00685,1.59025 -0.66685,0 -0.5522,-0.88527 0.3643,-2.81268 1.4424,-3.03347 4.19835,-4.09882 5.8608,-2.26562 1.06435,1.1737 1.0358,2.12877 -0.17905,5.99652 -1.6204,5.1589 -1.2115,7.56951 1.2842,7.56951 2.2341,0 3.48375,-1.98578 4.94255,-7.85389 1.3365,-5.37622 1.95025,-6.45007 3.23415,-5.65822 0.4631,0.28568 0.3029,1.57827 -0.67075,5.41152 -0.7036,2.76995 -1.27925,5.72573 -1.27925,6.5684 0,2.6305 2.1411,1.70215 2.9387,-1.2742 0.2023,-0.75481 0.66055,-1.46977 1.01845,-1.5888 0.78455,-0.26102 0.3772,1.3763 -0.9072,3.64628 -1.07325,1.89675 -3.0668,2.22992 -4.5408,0.7589 l -1.05125,-1.04909 -1.2979,1.01884 c -1.8096,1.42048 -4.3983,1.33041 -5.9385,-0.20667 z"
       style="fill:#000000;fill-opacity:1;stroke:#000000;stroke-width:0.5;stroke-opacity:1"
       inkscape:connector-curvature="0" />
    <path
       sodipodi:type="arc"
       style="fill:#ff81b3;fill-opacity:1;stroke:none"
       id="path3480"
       sodipodi:cx="4934.4282"
       sodipodi:cy="581.76996"
       sodipodi:rx="67.436539"
       sodipodi:ry="67.436539"
       d="m 5001.8648,581.76996 a 67.436539,67.436539 0 1 1 -134.8731,0 67.436539,67.436539 0 1 1 134.8731,0 z"
       transform="matrix(0.55,0,0,0.55,-1941.7328,719.05694)" />
    <path
       inkscape:transform-center-y="1.6033157"
       inkscape:transform-center-x="-2.8918666"
       id="path3766"
       d="m 757.77011,1035.5387 c -1.75195,-0.9485 -2.00695,-3.9407 -0.37975,-4.4561 2.01925,-0.6396 2.7749,1.1518 1.0071,2.3874 -0.97925,0.6846 -0.974,0.7092 0.27375,1.2765 2.86385,1.3023 6.94895,0.1175 7.5275,-2.1831 0.42255,-1.6799 -0.51625,-2.6735 -2.88255,-3.0511 -4.32135,-0.6896 -5.6946,-3.7324 -3.02835,-6.7104 1.0651,-1.1896 1.9171,-1.6068 3.62715,-1.776 3.1755,-0.3143 4.73665,0.6186 4.73665,2.8305 0,1.4168 -0.2053,1.7618 -1.1257,1.8923 -1.27345,0.1804 -1.58365,-1.2503 -0.5045,-2.3273 0.8394,-0.8376 -0.3085,-1.5589 -2.49725,-1.5692 -1.95225,-0.01 -3.7556,1.5879 -3.5329,3.1288 0.11905,0.8234 0.74665,1.2411 2.65735,1.7687 4.53615,1.2524 5.9643,3.908 3.66825,6.8211 -2.04165,2.5901 -6.6448,3.5391 -9.54675,1.9679 z"
       style="fill:#000000;fill-opacity:1;stroke:#000000;stroke-width:0.5;stroke-opacity:1"
       inkscape:connector-curvature="0" />
    <path
       inkscape:transform-center-y="1.6033234"
       inkscape:transform-center-x="-2.8918576"
       id="path3768"
       d="m 768.50406,1063.0017 c -1.75195,-0.9485 -2.00695,-3.9408 -0.37975,-4.4562 2.0192,-0.6395 2.77485,1.1518 1.0071,2.3875 -0.97925,0.6845 -0.974,0.7092 0.2737,1.2765 2.8639,1.3022 6.94895,0.1174 7.52755,-2.1831 0.4225,-1.6799 -0.51625,-2.6735 -2.88255,-3.0511 -4.3214,-0.6897 -5.6946,-3.7325 -3.02835,-6.7105 1.06505,-1.1895 1.9171,-1.6067 3.62715,-1.7759 3.1755,-0.3144 4.7366,0.6185 4.7366,2.8304 0,1.4168 -0.20525,1.7618 -1.12565,1.8923 -1.27345,0.1805 -1.58365,-1.2502 -0.5045,-2.3272 0.8394,-0.8377 -0.30855,-1.559 -2.4973,-1.5693 -1.9522,-0.01 -3.7556,1.588 -3.53285,3.1289 0.11905,0.8233 0.74665,1.241 2.65735,1.7686 4.53615,1.2524 5.9643,3.908 3.6682,6.8211 -2.0416,2.5902 -6.6448,3.5391 -9.5467,1.968 z"
       style="fill:#000000;fill-opacity:1;stroke:#000000;stroke-width:0.5;stroke-opacity:1"
       inkscape:connector-curvature="0" />
    <path
       inkscape:transform-center-y="1.6033174"
       inkscape:transform-center-x="-2.8918562"
       id="path3770"
       d="m 776.18696,1035.156 c -1.75195,-0.9486 -2.00695,-3.9408 -0.37975,-4.4562 2.0192,-0.6396 2.77485,1.1518 1.0071,2.3874 -0.97925,0.6846 -0.974,0.7092 0.2737,1.2765 2.8639,1.3023 6.94895,0.1175 7.52755,-2.183 0.4225,-1.68 -0.51625,-2.6736 -2.88255,-3.0512 -4.3214,-0.6896 -5.6946,-3.7324 -3.02835,-6.7105 1.06505,-1.1895 1.9171,-1.6067 3.62715,-1.7759 3.1755,-0.3143 4.7366,0.6186 4.7366,2.8305 0,1.4168 -0.20525,1.7618 -1.12565,1.8922 -1.27345,0.1806 -1.58365,-1.2502 -0.5045,-2.3272 0.8394,-0.8376 -0.30855,-1.5589 -2.4973,-1.5692 -1.9522,-0.01 -3.7556,1.588 -3.53285,3.1288 0.11905,0.8234 0.74665,1.2411 2.65735,1.7687 4.53615,1.2524 5.9643,3.908 3.66825,6.821 -2.04165,2.5903 -6.64485,3.5392 -9.54675,1.9681 z"
       style="fill:#000000;fill-opacity:1;stroke:#000000;stroke-width:0.5;stroke-opacity:1"
       inkscape:connector-curvature="0" />
    <path
       inkscape:transform-center-y="1.603317"
       inkscape:transform-center-x="-2.8918751"
       id="path3772"
       d="m 669.49166,889.87009 c -1.75195,-0.94855 -2.00695,-3.94075 -0.37975,-4.45615 2.0192,-0.6396 2.77485,1.15175 1.0071,2.38745 -0.97925,0.68455 -0.974,0.70915 0.27375,1.2765 2.86385,1.3022 6.9489,0.1174 7.5275,-2.1831 0.4225,-1.6799 -0.51625,-2.67355 -2.88255,-3.05115 -4.3214,-0.6896 -5.6946,-3.73245 -3.02835,-6.71045 1.0651,-1.18955 1.9171,-1.6067 3.62715,-1.77595 3.1755,-0.3143 4.73665,0.6186 4.73665,2.8305 0,1.4168 -0.2053,1.7618 -1.1257,1.89225 -1.27345,0.1805 -1.58365,-1.25025 -0.5045,-2.32725 0.8394,-0.8376 -0.30855,-1.5589 -2.4973,-1.5692 -1.9522,-0.009 -3.75555,1.58795 -3.53285,3.1288 0.11905,0.82335 0.74665,1.24105 2.65735,1.76865 4.53615,1.25245 5.9643,3.90805 3.66825,6.8211 -2.04165,2.5902 -6.64485,3.5391 -9.54675,1.968 z"
       style="fill:#000000;fill-opacity:1;stroke:#000000;stroke-width:0.5;stroke-opacity:1"
       inkscape:connector-curvature="0" />
    <path
       inkscape:transform-center-y="1.6033151"
       inkscape:transform-center-x="-2.8918547"
       id="path3774"
       d="m 677.11196,914.08574 c -1.75195,-0.9485 -2.00695,-3.94075 -0.37975,-4.45615 2.0192,-0.63955 2.77485,1.1518 1.0071,2.38745 -0.97925,0.68455 -0.974,0.7092 0.2737,1.2765 2.8639,1.30225 6.94895,0.11745 7.52755,-2.18305 0.4225,-1.67995 -0.51625,-2.67355 -2.88255,-3.05115 -4.3214,-0.6896 -5.6946,-3.73245 -3.02835,-6.71045 1.06505,-1.1896 1.9171,-1.60675 3.62715,-1.776 3.1755,-0.3143 4.7366,0.6186 4.7366,2.8305 0,1.4168 -0.20525,1.7618 -1.12565,1.8923 -1.27345,0.18045 -1.58365,-1.25025 -0.5045,-2.32725 0.8394,-0.83765 -0.30855,-1.55895 -2.4973,-1.56925 -1.9522,-0.009 -3.7556,1.58795 -3.53285,3.12885 0.11905,0.82335 0.74665,1.24105 2.65735,1.76865 4.53615,1.2524 5.9643,3.90805 3.66825,6.82105 -2.04165,2.5902 -6.64485,3.53915 -9.54675,1.968 z"
       style="fill:#000000;fill-opacity:1;stroke:#000000;stroke-width:0.5;stroke-opacity:1"
       inkscape:connector-curvature="0" />
    <path
       inkscape:transform-center-y="1.6033155"
       inkscape:transform-center-x="-2.8918578"
       id="path3776"
       d="m 857.50826,914.00494 c -1.75195,-0.94855 -2.00695,-3.94075 -0.37975,-4.45615 2.0192,-0.6396 2.77485,1.15175 1.0071,2.38745 -0.9793,0.68455 -0.974,0.70915 0.2737,1.2765 2.8639,1.3022 6.94895,0.1174 7.52755,-2.1831 0.4225,-1.67995 -0.51625,-2.67355 -2.88255,-3.05115 -4.3214,-0.6896 -5.6946,-3.73245 -3.02835,-6.71045 1.06505,-1.18955 1.9171,-1.6067 3.62715,-1.776 3.1755,-0.31425 4.7366,0.61865 4.7366,2.83055 0,1.4168 -0.20525,1.7618 -1.12565,1.89225 -1.27345,0.1805 -1.58365,-1.25025 -0.5045,-2.32725 0.8394,-0.83765 -0.30855,-1.55895 -2.4973,-1.5692 -1.9522,-0.009 -3.7556,1.58795 -3.53285,3.1288 0.11905,0.82335 0.74665,1.24105 2.65735,1.76865 4.53615,1.25245 5.9643,3.90805 3.6682,6.8211 -2.0416,2.5902 -6.6448,3.5391 -9.5467,1.968 z"
       style="fill:#000000;fill-opacity:1;stroke:#000000;stroke-width:0.5;stroke-opacity:1"
       inkscape:connector-curvature="0" />
    <path
       inkscape:transform-center-y="1.6033157"
       inkscape:transform-center-x="-2.8918631"
       id="path3778"
       d="m 848.04926,889.96179 c -1.75195,-0.94855 -2.00695,-3.94075 -0.3797,-4.4562 2.0192,-0.63955 2.77485,1.1518 1.0071,2.38745 -0.9793,0.6846 -0.97405,0.7092 0.2737,1.27655 2.86385,1.3022 6.94895,0.1174 7.52755,-2.1831 0.4225,-1.67995 -0.5163,-2.67355 -2.8826,-3.05115 -4.32135,-0.6896 -5.6946,-3.73245 -3.02835,-6.71045 1.0651,-1.1896 1.9171,-1.6067 3.62715,-1.776 3.1755,-0.3143 4.73665,0.61865 4.73665,2.8305 0,1.41685 -0.2053,1.76185 -1.1257,1.8923 -1.27345,0.1805 -1.5836,-1.25025 -0.5045,-2.32725 0.8394,-0.83765 -0.3085,-1.55895 -2.49725,-1.56925 -1.95225,-0.009 -3.7556,1.588 -3.53285,3.12885 0.119,0.82335 0.7466,1.24105 2.6573,1.76865 4.53615,1.25245 5.9643,3.90805 3.66825,6.8211 -2.0416,2.5902 -6.6448,3.5391 -9.54675,1.968 z"
       style="fill:#000000;fill-opacity:1;stroke:#000000;stroke-width:0.5;stroke-opacity:1"
       inkscape:connector-curvature="0" />
    <path
       inkscape:transform-center-y="1.6033157"
       inkscape:transform-center-x="-2.8918631"
       id="path3780"
       d="m 767.32396,752.93384 c -1.75195,-0.9485 -2.00695,-3.94075 -0.37975,-4.45615 2.0192,-0.63955 2.77485,1.1518 1.0071,2.38745 -0.9793,0.68455 -0.97405,0.7092 0.2737,1.2765 2.86385,1.30225 6.94895,0.11745 7.52755,-2.1831 0.4225,-1.6799 -0.51625,-2.6735 -2.88255,-3.0511 -4.3214,-0.6896 -5.6946,-3.73245 -3.02835,-6.71045 1.06505,-1.1896 1.91705,-1.60675 3.62715,-1.776 3.1755,-0.3143 4.7366,0.6186 4.7366,2.8305 0,1.4168 -0.20525,1.7618 -1.12565,1.8923 -1.27345,0.18045 -1.58365,-1.25025 -0.5045,-2.32725 0.8394,-0.83765 -0.30855,-1.55895 -2.4973,-1.56925 -1.9522,-0.009 -3.7556,1.58795 -3.53285,3.12885 0.119,0.82335 0.74665,1.24105 2.65735,1.7686 4.53615,1.25245 5.9643,3.9081 3.6682,6.8211 -2.0416,2.5902 -6.6448,3.53915 -9.5467,1.968 z"
       style="fill:#000000;fill-opacity:1;stroke:#000000;stroke-width:0.5;stroke-opacity:1"
       inkscape:connector-curvature="0" />
    <path
       inkscape:transform-center-y="1.603318"
       inkscape:transform-center-x="-2.8918572"
       id="path3782"
       d="m 946.09829,753.37549 c -1.75195,-0.94855 -2.00695,-3.94075 -0.3797,-4.45615 2.0192,-0.6396 2.77485,1.1518 1.0071,2.38745 -0.9793,0.68455 -0.97405,0.70915 0.2737,1.2765 2.86385,1.3022 6.94895,0.1174 7.52755,-2.1831 0.4225,-1.6799 -0.51625,-2.67355 -2.8826,-3.05115 -4.32135,-0.6896 -5.69455,-3.73245 -3.02835,-6.71045 1.0651,-1.18955 1.9171,-1.6067 3.6272,-1.77595 3.17545,-0.3143 4.7366,0.6186 4.7366,2.8305 0,1.4168 -0.20525,1.7618 -1.12565,1.89225 -1.2735,0.1805 -1.58365,-1.25025 -0.5045,-2.3272 0.8394,-0.83765 -0.30855,-1.55895 -2.4973,-1.56925 -1.9522,-0.009 -3.7556,1.58795 -3.53285,3.1288 0.119,0.8234 0.74665,1.24105 2.6573,1.76865 4.53615,1.25245 5.9643,3.90805 3.66825,6.8211 -2.0416,2.5902 -6.6448,3.53915 -9.54675,1.968 z"
       style="fill:#000000;fill-opacity:1;stroke:#000000;stroke-width:0.5;stroke-opacity:1"
       inkscape:connector-curvature="0" />
    <path
       inkscape:transform-center-y="1.603316"
       inkscape:transform-center-x="-2.8918567"
       id="path3784"
       d="m 591.68346,753.44729 c -1.75195,-0.94855 -2.00695,-3.94075 -0.37975,-4.45615 2.0192,-0.6396 2.77485,1.15175 1.0071,2.3874 -0.97925,0.6846 -0.974,0.7092 0.2737,1.27655 2.8639,1.3022 6.94895,0.1174 7.52755,-2.1831 0.4225,-1.67995 -0.51625,-2.67355 -2.88255,-3.05115 -4.3214,-0.6896 -5.6946,-3.73245 -3.02835,-6.71045 1.06505,-1.1896 1.9171,-1.60675 3.62715,-1.776 3.1755,-0.31425 4.7366,0.61865 4.7366,2.83055 0,1.4168 -0.20525,1.7618 -1.12565,1.89225 -1.27345,0.1805 -1.58365,-1.25025 -0.5045,-2.32725 0.8394,-0.83765 -0.30855,-1.55895 -2.4973,-1.5692 -1.9522,-0.009 -3.7556,1.58795 -3.53285,3.1288 0.11905,0.82335 0.74665,1.24105 2.65735,1.76865 4.53615,1.25245 5.9643,3.90805 3.66825,6.8211 -2.04165,2.5902 -6.64485,3.5391 -9.54675,1.968 z"
       style="fill:#000000;fill-opacity:1;stroke:#000000;stroke-width:0.5;stroke-opacity:1"
       inkscape:connector-curvature="0" />
    <path
       style="fill:#000000;fill-opacity:1;stroke:#000000;stroke-width:0.5;stroke-opacity:1"
       d="m 868.53981,577.04845 c -1.57795,-1.57471 -1.5705,-3.48985 0.0311,-8.01116 1.4905,-4.20757 1.5535,-5.24242 0.31935,-5.24242 -1.16535,0 -2.40565,1.35179 -3.122,3.40253 -0.30555,0.87464 -0.7586,1.59025 -1.00685,1.59025 -0.66685,0 -0.5522,-0.88528 0.3643,-2.81269 1.4424,-3.03346 4.19835,-4.09881 5.8608,-2.26561 1.06435,1.1737 1.0358,2.12876 -0.17905,5.99651 -1.6204,5.1589 -1.2115,7.56951 1.2842,7.56951 2.2341,0 3.48375,-1.98577 4.94255,-7.85388 1.3365,-5.37623 1.95025,-6.45008 3.23415,-5.65823 0.4631,0.28569 0.3029,1.57828 -0.67075,5.41153 -0.7036,2.76995 -1.27925,5.72572 -1.27925,6.5684 0,2.6305 2.1411,1.70215 2.9387,-1.2742 0.2023,-0.75482 0.66055,-1.46978 1.01845,-1.5888 0.78455,-0.26103 0.3772,1.3763 -0.9072,3.64627 -1.07325,1.89675 -3.0668,2.22993 -4.5408,0.7589 l -1.05125,-1.04909 -1.2979,1.01884 c -1.8096,1.42049 -4.3983,1.33041 -5.9385,-0.20666 z"
       id="path3786"
       inkscape:transform-center-x="3.9558816"
       inkscape:connector-curvature="0" />
    <path
       id="path3790"
       style="fill:#000000;fill-opacity:1;stroke:#000000;stroke-width:0.5;stroke-opacity:1"
       d="m 887.83456,538.22004 c 1.5071,-2.81468 4.30705,-8.03838 6.2221,-11.60822 1.9151,-3.56983 3.8002,-6.55596 4.1892,-6.6359 0.4678,-0.0961 2.76835,3.72357 6.79495,11.28199 3.34825,6.28495 6.08765,11.574 6.08765,11.75345 0,0.17944 -5.85765,0.32628 -13.0171,0.32628 l -13.0171,0 2.7403,-5.1176 z m 15.50885,-3.74459 c -4.6796,-8.87146 -5.9347,-11.10953 -6.2233,-11.0973 -0.13755,0.006 -2.30205,3.93741 -4.8099,8.73686 l -4.55975,8.72624 9.4754,0 9.4754,0 -3.35785,-6.3658 z"
       inkscape:connector-curvature="0" />
    <path
       id="path2330"
       style="fill:#000000;fill-opacity:1;stroke:#000000;stroke-width:0.5;stroke-opacity:1"
       d="m 494.71778,603.1693 c -1.61015,-0.89061 -2.51745,-2.65461 -2.53885,-4.93616 -0.0583,-6.21522 7.09425,-12.23357 10.4999,-8.83483 1.1419,1.13955 1.0663,1.25299 2.2188,-3.32869 1.00905,-4.01143 0.99065,-4.17181 -0.4791,-4.17181 -1.76915,0 -1.55475,-0.81307 0.3127,-1.18579 1.89695,-0.37865 3.93985,-0.40661 3.93985,-0.054 0,0.14194 -1.15215,4.85393 -2.5603,10.4711 -1.4082,5.61713 -2.42835,10.55619 -2.26705,10.97568 0.1613,0.41945 0.63225,0.76265 1.04655,0.76265 0.79815,0 2.2799,-2.41755 2.2799,-3.71978 0,-0.42557 0.2251,-0.77372 0.5003,-0.77372 0.6241,0 0.641,1.0635 0.0419,2.63603 -1.11135,2.91718 -3.8092,3.7671 -5.3763,1.69375 l -0.8785,-1.16227 -1.7162,1.16227 c -1.9318,1.3083 -3.2749,1.43278 -5.02355,0.46553 z m 5.10515,-1.78521 c 1.43235,-1.2551 1.82715,-2.10322 2.56475,-5.50994 0.8046,-3.71658 0.80955,-4.12119 0.064,-5.25685 -2.3753,-3.61771 -6.9351,1.1429 -7.64205,7.97856 -0.44235,4.27741 1.8554,5.55531 5.01335,2.78823 z"
       inkscape:connector-curvature="0" />
    <path
       style="fill:#000000"
       d="m 817.38773,1037.7692 c -0.40089,-2.1035 -0.42759,-2.7731 -0.11052,-2.7731 0.22993,0 0.51458,0.6036 0.63254,1.3415 0.29485,1.8438 0.82821,2.1781 3.27941,2.0555 l 2.0793,-0.104 -0.44515,-1.2907 c -0.24486,-0.7099 -1.31977,-2.7377 -2.38877,-4.5062 -3.35619,-5.5528 -3.77463,-8.3258 -1.7485,-11.5884 3.9719,-6.3956 14.99301,-6.005 18.30885,0.6491 1.62417,3.2593 1.0142,6.0993 -2.47791,11.5367 -1.67429,2.607 -2.52105,4.3027 -2.52105,5.0488 0,0.3805 3.802,0.4315 4.38372,0.059 0.2186,-0.1401 0.57556,-0.9177 0.79331,-1.7279 0.40093,-1.4921 1.29189,-2.1378 0.95644,-0.6933 -0.0996,0.4289 -0.3753,1.6768 -0.61267,2.7731 l -0.4316,1.9931 -3.11228,0 -3.1123,0 0.21828,-1.8571 c 0.12003,-1.0213 0.93072,-3.8654 1.80147,-6.32 1.87128,-5.275 2.23125,-7.9444 1.40623,-10.4283 -1.29299,-3.8929 -5.52257,-5.9402 -9.14779,-4.4283 -3.1234,1.3028 -4.81113,4.4045 -4.496,8.2626 0.0952,1.1655 0.83206,4.0687 1.6375,6.4519 0.80541,2.3831 1.54877,5.2298 1.65189,6.3261 l 0.18747,1.9931 -3.1017,0 -3.10166,0 -0.52851,-2.773 z"
       id="path2564"
       inkscape:connector-curvature="0" />
    <text
       xml:space="preserve"
       style="font-size:24px;font-style:normal;font-weight:normal;fill:#000000;fill-opacity:1;stroke:none;font-family:Times New Roman"
       x="1087.6448"
       y="791.45978"
       id="text4271"><tspan
         sodipodi:role="line"
         id="tspan4273"
         x="1087.6448"
         y="791.45978">3</tspan></text>
    <path
       id="path2266"
       style="fill:#000000;fill-opacity:1;stroke:#000000;stroke-width:0.49999997;stroke-opacity:1"
       d="m 758.898,600.00376 c -1.69695,-1.4279 -2.5474,-3.83762 -2.54739,-7.21785 -10e-6,-5.24802 2.29337,-8.50001 5.99438,-8.50002 3.70106,10e-6 5.99441,3.25203 5.99439,8.5 2e-5,3.38027 -0.85043,5.78997 -2.54738,7.21787 -2.06744,1.73964 -4.82655,1.73963 -6.894,0 z m 5.93431,-0.70516 c 1.37329,-1.37331 1.64315,-2.83501 1.43935,-7.79699 -0.15632,-3.8059 -0.31343,-4.41481 -1.35712,-5.25987 -1.50738,-1.22069 -3.63166,-1.22069 -5.1391,-5e-5 -1.0437,0.84511 -1.2008,1.454 -1.35711,5.25992 -0.0972,2.36725 -0.0353,4.8679 0.1377,5.55694 0.46361,1.84719 2.0839,3.22737 3.78895,3.22737 0.82693,-2e-5 1.94307,-0.44303 2.48733,-0.98732 z"
       inkscape:connector-curvature="0" />
    <text
       xml:space="preserve"
       style="font-size:42px;font-style:normal;font-variant:normal;font-weight:normal;font-stretch:normal;text-align:start;line-height:125%;letter-spacing:0px;word-spacing:0px;writing-mode:lr-tb;text-anchor:start;fill:#000000;fill-opacity:1;stroke:none;font-family:Angsana New;-inkscape-font-specification:Angsana New"
       x="708.91821"
       y="1054.6718"
       id="text3097"><tspan
         sodipodi:role="line"
         id="tspan3099"
         x="708.91821"
         y="1054.6718">-3</tspan></text>
    <text
       xml:space="preserve"
       style="font-size:42px;font-style:normal;font-variant:normal;font-weight:normal;font-stretch:normal;text-align:start;line-height:125%;letter-spacing:0px;word-spacing:0px;writing-mode:lr-tb;text-anchor:start;fill:#000000;fill-opacity:1;stroke:none;font-family:Angsana New;-inkscape-font-specification:Angsana New"
       x="745.29559"
       y="916.20795"
       id="text3097-3"><tspan
         sodipodi:role="line"
         id="tspan3099-8"
         x="745.29559"
         y="916.20795">-2</tspan></text>
    <text
       xml:space="preserve"
       style="font-size:42px;font-style:normal;font-variant:normal;font-weight:normal;font-stretch:normal;text-align:start;line-height:125%;letter-spacing:0px;word-spacing:0px;writing-mode:lr-tb;text-anchor:start;fill:#000000;fill-opacity:1;stroke:none;font-family:Angsana New;-inkscape-font-specification:Angsana New"
       x="744.54553"
       y="793.02039"
       id="text3097-5"><tspan
         sodipodi:role="line"
         id="tspan3099-1"
         x="744.54553"
         y="793.02039">-1</tspan></text>
  </g>
</svg>
