<?xml version="1.0" encoding="utf-8" standalone="no"?>
<!DOCTYPE svg PUBLIC "-//W3C//DTD SVG 1.1//EN"
  "http://www.w3.org/Graphics/SVG/1.1/DTD/svg11.dtd">
<svg xmlns:xlink="http://www.w3.org/1999/xlink" width="432pt" height="288pt" viewBox="0 0 432 288" xmlns="http://www.w3.org/2000/svg" version="1.1">
 <metadata>
  <rdf:RDF xmlns:dc="http://purl.org/dc/elements/1.1/" xmlns:cc="http://creativecommons.org/ns#" xmlns:rdf="http://www.w3.org/1999/02/22-rdf-syntax-ns#">
   <cc:Work>
    <dc:type rdf:resource="http://purl.org/dc/dcmitype/StillImage"/>
    <dc:date>2022-05-10T22:45:21.944366</dc:date>
    <dc:format>image/svg+xml</dc:format>
    <dc:creator>
     <cc:Agent>
      <dc:title>Matplotlib v3.5.1, https://matplotlib.org/</dc:title>
     </cc:Agent>
    </dc:creator>
   </cc:Work>
  </rdf:RDF>
 </metadata>
 <defs>
  <style type="text/css">*{stroke-linejoin: round; stroke-linecap: butt}</style>
 </defs>
 <g id="figure_1">
  <g id="patch_1">
   <path d="M 0 288 
L 432 288 
L 432 0 
L 0 0 
L 0 288 
z
" style="fill: none"/>
  </g>
  <g id="axes_1">
   <g id="patch_2">
    <path d="M 189.36 90.72 
L 242.64 90.72 
L 242.64 37.44 
L 189.36 37.44 
z
" clip-path="url(#p6d276acd59)" style="fill: #333333; stroke: #cccccc; stroke-linejoin: miter"/>
   </g>
   <g id="patch_3">
    <path d="M 205.878989 47.561011 
L 226.121011 47.561011 
L 226.121011 27.318989 
L 205.878989 27.318989 
z
" clip-path="url(#p6d276acd59)" style="fill: #d99185"/>
   </g>
   <g id="patch_4">
    <path d="M 205.878989 74.201011 
L 226.121011 74.201011 
L 226.121011 53.958989 
L 205.878989 53.958989 
z
" clip-path="url(#p6d276acd59)" style="fill: #d99185"/>
   </g>
   <g id="patch_5">
    <path d="M 205.878989 100.841011 
L 226.121011 100.841011 
L 226.121011 80.598989 
L 205.878989 80.598989 
z
" clip-path="url(#p6d276acd59)" style="fill: #d99185"/>
   </g>
   <g id="patch_6">
    <path d="M 189.36 170.64 
L 242.64 170.64 
L 242.64 117.36 
L 189.36 117.36 
z
" clip-path="url(#p6d276acd59)" style="fill: #333333; stroke: #cccccc; stroke-linejoin: miter"/>
   </g>
   <g id="patch_7">
    <path d="M 205.878989 127.481011 
L 226.121011 127.481011 
L 226.121011 107.238989 
L 205.878989 107.238989 
z
" clip-path="url(#p6d276acd59)" style="fill: #d99185"/>
   </g>
   <g id="patch_8">
    <path d="M 205.878989 154.121011 
L 226.121011 154.121011 
L 226.121011 133.878989 
L 205.878989 133.878989 
z
" clip-path="url(#p6d276acd59)" style="fill: #76b08a"/>
   </g>
   <g id="patch_9">
    <path d="M 205.878989 180.761011 
L 226.121011 180.761011 
L 226.121011 160.518989 
L 205.878989 160.518989 
z
" clip-path="url(#p6d276acd59)" style="fill: #84a5d9"/>
   </g>
   <g id="patch_10">
    <path d="M 189.36 250.56 
L 242.64 250.56 
L 242.64 197.28 
L 189.36 197.28 
z
" clip-path="url(#p6d276acd59)" style="fill: #333333; stroke: #cccccc; stroke-linejoin: miter"/>
   </g>
   <g id="patch_11">
    <path d="M 205.878989 207.401011 
L 226.121011 207.401011 
L 226.121011 187.158989 
L 205.878989 187.158989 
z
" clip-path="url(#p6d276acd59)" style="fill: #d99185"/>
   </g>
   <g id="patch_12">
    <path d="M 205.878989 234.041011 
L 226.121011 234.041011 
L 226.121011 213.798989 
L 205.878989 213.798989 
z
" clip-path="url(#p6d276acd59)" style="fill: #84a5d9"/>
   </g>
   <g id="patch_13">
    <path d="M 205.878989 260.681011 
L 226.121011 260.681011 
L 226.121011 240.438989 
L 205.878989 240.438989 
z
" clip-path="url(#p6d276acd59)" style="fill: #76b08a"/>
   </g>
  </g>
 </g>
 <defs>
  <clipPath id="p6d276acd59">
   <rect x="82.8" y="10.8" width="266.4" height="266.4"/>
  </clipPath>
 </defs>
</svg>
