<?xml version="1.0" encoding="utf-8" standalone="no"?>
<!DOCTYPE svg PUBLIC "-//W3C//DTD SVG 1.1//EN"
  "http://www.w3.org/Graphics/SVG/1.1/DTD/svg11.dtd">
<!-- Created with matplotlib (http://matplotlib.org/) -->
<svg height="228pt" version="1.1" viewBox="0 0 423 228" width="423pt" xmlns="http://www.w3.org/2000/svg" xmlns:xlink="http://www.w3.org/1999/xlink">
 <defs>
  <style type="text/css">
*{stroke-linecap:butt;stroke-linejoin:round;}
  </style>
 </defs>
 <g id="figure_1">
  <g id="patch_1">
   <path d="M 0 228.522188 
L 423.0025 228.522188 
L 423.0025 0 
L 0 0 
z
" style="fill:none;"/>
  </g>
  <g id="axes_1">
   <g id="patch_2">
    <path d="M 44.2225 186.82 
L 220.3425 186.82 
L 220.3425 10.7 
L 44.2225 10.7 
z
" style="fill:none;"/>
   </g>
   <g id="PathCollection_1">
    <defs>
     <path d="M 0 0.707107 
C 0.187527 0.707107 0.367398 0.632602 0.5 0.5 
C 0.632602 0.367398 0.707107 0.187527 0.707107 0 
C 0.707107 -0.187527 0.632602 -0.367398 0.5 -0.5 
C 0.367398 -0.632602 0.187527 -0.707107 0 -0.707107 
C -0.187527 -0.707107 -0.367398 -0.632602 -0.5 -0.5 
C -0.632602 -0.367398 -0.707107 -0.187527 -0.707107 0 
C -0.707107 0.187527 -0.632602 0.367398 -0.5 0.5 
C -0.367398 0.632602 -0.187527 0.707107 0 0.707107 
z
" id="m4fe8d587d6" style="stroke:#b3cde3;"/>
    </defs>
    <g clip-path="url(#p6378778061)">
     <use style="fill:#b3cde3;stroke:#b3cde3;" x="183.296565" xlink:href="#m4fe8d587d6" y="40.388801"/>
     <use style="fill:#b3cde3;stroke:#b3cde3;" x="160.842489" xlink:href="#m4fe8d587d6" y="54.403822"/>
     <use style="fill:#b3cde3;stroke:#b3cde3;" x="198.327498" xlink:href="#m4fe8d587d6" y="59.132992"/>
     <use style="fill:#b3cde3;stroke:#b3cde3;" x="187.6345" xlink:href="#m4fe8d587d6" y="40.053334"/>
     <use style="fill:#b3cde3;stroke:#b3cde3;" x="182.602494" xlink:href="#m4fe8d587d6" y="42.887452"/>
     <use style="fill:#b3cde3;stroke:#b3cde3;" x="176.312501" xlink:href="#m4fe8d587d6" y="59.133"/>
     <use style="fill:#b3cde3;stroke:#b3cde3;" x="182.0105" xlink:href="#m4fe8d587d6" y="42.401599"/>
     <use style="fill:#b3cde3;stroke:#b3cde3;" x="187.075381" xlink:href="#m4fe8d587d6" y="53.472003"/>
     <use style="fill:#b3cde3;stroke:#b3cde3;" x="182.6025" xlink:href="#m4fe8d587d6" y="59.622223"/>
     <use style="fill:#b3cde3;stroke:#b3cde3;" x="177.866508" xlink:href="#m4fe8d587d6" y="61.187722"/>
     <use style="fill:#b3cde3;stroke:#b3cde3;" x="178.576904" xlink:href="#m4fe8d587d6" y="42.887442"/>
     <use style="fill:#b3cde3;stroke:#b3cde3;" x="188.640899" xlink:href="#m4fe8d587d6" y="40.744"/>
     <use style="fill:#b3cde3;stroke:#b3cde3;" x="174.55133" xlink:href="#m4fe8d587d6" y="65.607916"/>
     <use style="fill:#b3cde3;stroke:#b3cde3;" x="182.010526" xlink:href="#m4fe8d587d6" y="51.794672"/>
     <use style="fill:#b3cde3;stroke:#b3cde3;" x="194.442508" xlink:href="#m4fe8d587d6" y="33.008526"/>
     <use style="fill:#b3cde3;stroke:#b3cde3;" x="178.576898" xlink:href="#m4fe8d587d6" y="47.745933"/>
     <use style="fill:#b3cde3;stroke:#b3cde3;" x="173.828758" xlink:href="#m4fe8d587d6" y="50.85536"/>
     <use style="fill:#b3cde3;stroke:#b3cde3;" x="188.155052" xlink:href="#m4fe8d587d6" y="40.3888"/>
     <use style="fill:#b3cde3;stroke:#b3cde3;" x="177.5705" xlink:href="#m4fe8d587d6" y="51.794667"/>
     <use style="fill:#b3cde3;stroke:#b3cde3;" x="187.07539" xlink:href="#m4fe8d587d6" y="43.544"/>
     <use style="fill:#b3cde3;stroke:#b3cde3;" x="174.551304" xlink:href="#m4fe8d587d6" y="44.888"/>
     <use style="fill:#b3cde3;stroke:#b3cde3;" x="179.247832" xlink:href="#m4fe8d587d6" y="44.887997"/>
     <use style="fill:#b3cde3;stroke:#b3cde3;" x="191.892347" xlink:href="#m4fe8d587d6" y="46.850947"/>
     <use style="fill:#b3cde3;stroke:#b3cde3;" x="185.652197" xlink:href="#m4fe8d587d6" y="51.037161"/>
     <use style="fill:#b3cde3;stroke:#b3cde3;" x="188.155052" xlink:href="#m4fe8d587d6" y="40.3888"/>
     <use style="fill:#b3cde3;stroke:#b3cde3;" x="175.334054" xlink:href="#m4fe8d587d6" y="78.632005"/>
     <use style="fill:#b3cde3;stroke:#b3cde3;" x="195.314921" xlink:href="#m4fe8d587d6" y="49.988309"/>
     <use style="fill:#b3cde3;stroke:#b3cde3;" x="183.296568" xlink:href="#m4fe8d587d6" y="36.3632"/>
     <use style="fill:#b3cde3;stroke:#b3cde3;" x="193.640435" xlink:href="#m4fe8d587d6" y="49.659879"/>
     <use style="fill:#b3cde3;stroke:#b3cde3;" x="184.352761" xlink:href="#m4fe8d587d6" y="45.494439"/>
     <use style="fill:#b3cde3;stroke:#b3cde3;" x="170.5257" xlink:href="#m4fe8d587d6" y="57.462897"/>
     <use style="fill:#b3cde3;stroke:#b3cde3;" x="166.370243" xlink:href="#m4fe8d587d6" y="45.390303"/>
     <use style="fill:#b3cde3;stroke:#b3cde3;" x="169.854766" xlink:href="#m4fe8d587d6" y="40.744"/>
     <use style="fill:#b3cde3;stroke:#b3cde3;" x="181.382622" xlink:href="#m4fe8d587d6" y="46.49213"/>
     <use style="fill:#b3cde3;stroke:#b3cde3;" x="188.6409" xlink:href="#m4fe8d587d6" y="44.888"/>
     <use style="fill:#b3cde3;stroke:#b3cde3;" x="178.438086" xlink:href="#m4fe8d587d6" y="56.491201"/>
     <use style="fill:#b3cde3;stroke:#b3cde3;" x="183.690499" xlink:href="#m4fe8d587d6" y="33.530371"/>
     <use style="fill:#b3cde3;stroke:#b3cde3;" x="198.185468" xlink:href="#m4fe8d587d6" y="62.468612"/>
     <use style="fill:#b3cde3;stroke:#b3cde3;" x="193.013551" xlink:href="#m4fe8d587d6" y="52.465589"/>
     <use style="fill:#b3cde3;stroke:#b3cde3;" x="189.921772" xlink:href="#m4fe8d587d6" y="46.49213"/>
     <use style="fill:#b3cde3;stroke:#b3cde3;" x="194.442501" xlink:href="#m4fe8d587d6" y="37.705071"/>
     <use style="fill:#b3cde3;stroke:#b3cde3;" x="184.550371" xlink:href="#m4fe8d587d6" y="45.390304"/>
     <use style="fill:#b3cde3;stroke:#b3cde3;" x="171.9095" xlink:href="#m4fe8d587d6" y="54.729999"/>
     <use style="fill:#b3cde3;stroke:#b3cde3;" x="177.113045" xlink:href="#m4fe8d587d6" y="55.582194"/>
     <use style="fill:#b3cde3;stroke:#b3cde3;" x="188.155052" xlink:href="#m4fe8d587d6" y="40.3888"/>
     <use style="fill:#b3cde3;stroke:#b3cde3;" x="194.191351" xlink:href="#m4fe8d587d6" y="51.037156"/>
     <use style="fill:#b3cde3;stroke:#b3cde3;" x="177.866512" xlink:href="#m4fe8d587d6" y="70.580812"/>
     <use style="fill:#b3cde3;stroke:#b3cde3;" x="179.247833" xlink:href="#m4fe8d587d6" y="57.320001"/>
     <use style="fill:#b3cde3;stroke:#b3cde3;" x="186.628099" xlink:href="#m4fe8d587d6" y="33.170483"/>
     <use style="fill:#b3cde3;stroke:#b3cde3;" x="184.550371" xlink:href="#m4fe8d587d6" y="41.120728"/>
     <use style="fill:#b3cde3;stroke:#b3cde3;" x="189.095391" xlink:href="#m4fe8d587d6" y="53.929464"/>
     <use style="fill:#b3cde3;stroke:#b3cde3;" x="193.9245" xlink:href="#m4fe8d587d6" y="50.327"/>
     <use style="fill:#b3cde3;stroke:#b3cde3;" x="181.382621" xlink:href="#m4fe8d587d6" y="55.582194"/>
     <use style="fill:#b3cde3;stroke:#b3cde3;" x="188.279627" xlink:href="#m4fe8d587d6" y="62.12704"/>
     <use style="fill:#b3cde3;stroke:#b3cde3;" x="163.592722" xlink:href="#m4fe8d587d6" y="48.44"/>
     <use style="fill:#b3cde3;stroke:#b3cde3;" x="178.5769" xlink:href="#m4fe8d587d6" y="67.179865"/>
     <use style="fill:#b3cde3;stroke:#b3cde3;" x="178.576899" xlink:href="#m4fe8d587d6" y="57.462896"/>
     <use style="fill:#b3cde3;stroke:#b3cde3;" x="177.866497" xlink:href="#m4fe8d587d6" y="47.098136"/>
     <use style="fill:#b3cde3;stroke:#b3cde3;" x="187.075381" xlink:href="#m4fe8d587d6" y="53.472003"/>
     <use style="fill:#b3cde3;stroke:#b3cde3;" x="178.576898" xlink:href="#m4fe8d587d6" y="47.745933"/>
     <use style="fill:#b3cde3;stroke:#b3cde3;" x="182.6025" xlink:href="#m4fe8d587d6" y="47.880889"/>
     <use style="fill:#b3cde3;stroke:#b3cde3;" x="173.7225" xlink:href="#m4fe8d587d6" y="51.794667"/>
     <use style="fill:#b3cde3;stroke:#b3cde3;" x="182.6025" xlink:href="#m4fe8d587d6" y="51.794667"/>
     <use style="fill:#b3cde3;stroke:#b3cde3;" x="174.5513" xlink:href="#m4fe8d587d6" y="47.745931"/>
     <use style="fill:#b3cde3;stroke:#b3cde3;" x="176.775969" xlink:href="#m4fe8d587d6" y="39.150156"/>
     <use style="fill:#b3cde3;stroke:#b3cde3;" x="188.640901" xlink:href="#m4fe8d587d6" y="44.32291"/>
     <use style="fill:#b3cde3;stroke:#b3cde3;" x="192.293759" xlink:href="#m4fe8d587d6" y="58.776"/>
     <use style="fill:#b3cde3;stroke:#b3cde3;" x="174.551299" xlink:href="#m4fe8d587d6" y="49.988309"/>
     <use style="fill:#b3cde3;stroke:#b3cde3;" x="186.6281" xlink:href="#m4fe8d587d6" y="57.462898"/>
     <use style="fill:#b3cde3;stroke:#b3cde3;" x="180.7155" xlink:href="#m4fe8d587d6" y="59.132999"/>
     <use style="fill:#b3cde3;stroke:#b3cde3;" x="185.118499" xlink:href="#m4fe8d587d6" y="50.327"/>
     <use style="fill:#b3cde3;stroke:#b3cde3;" x="188.640899" xlink:href="#m4fe8d587d6" y="69.752001"/>
     <use style="fill:#b3cde3;stroke:#b3cde3;" x="198.327502" xlink:href="#m4fe8d587d6" y="50.327007"/>
     <use style="fill:#b3cde3;stroke:#b3cde3;" x="195.1145" xlink:href="#m4fe8d587d6" y="59.622224"/>
     <use style="fill:#b3cde3;stroke:#b3cde3;" x="174.551298" xlink:href="#m4fe8d587d6" y="42.887444"/>
     <use style="fill:#b3cde3;stroke:#b3cde3;" x="186.628086" xlink:href="#m4fe8d587d6" y="38.028967"/>
     <use style="fill:#b3cde3;stroke:#b3cde3;" x="166.370241" xlink:href="#m4fe8d587d6" y="32.581576"/>
     <use style="fill:#b3cde3;stroke:#b3cde3;" x="154.2975" xlink:href="#m4fe8d587d6" y="45.924"/>
     <use style="fill:#b3cde3;stroke:#b3cde3;" x="184.666908" xlink:href="#m4fe8d587d6" y="62.127039"/>
     <use style="fill:#b3cde3;stroke:#b3cde3;" x="189.921772" xlink:href="#m4fe8d587d6" y="60.127226"/>
     <use style="fill:#b3cde3;stroke:#b3cde3;" x="181.054203" xlink:href="#m4fe8d587d6" y="73.398713"/>
     <use style="fill:#b3cde3;stroke:#b3cde3;" x="185.1185" xlink:href="#m4fe8d587d6" y="41.521"/>
     <use style="fill:#b3cde3;stroke:#b3cde3;" x="187.075381" xlink:href="#m4fe8d587d6" y="58.503995"/>
     <use style="fill:#b3cde3;stroke:#b3cde3;" x="165.434499" xlink:href="#m4fe8d587d6" y="47.098135"/>
     <use style="fill:#b3cde3;stroke:#b3cde3;" x="176.775973" xlink:href="#m4fe8d587d6" y="49.988308"/>
     <use style="fill:#b3cde3;stroke:#b3cde3;" x="191.892346" xlink:href="#m4fe8d587d6" y="43.143158"/>
     <use style="fill:#b3cde3;stroke:#b3cde3;" x="181.054192" xlink:href="#m4fe8d587d6" y="50.558737"/>
     <use style="fill:#b3cde3;stroke:#b3cde3;" x="185.652199" xlink:href="#m4fe8d587d6" y="37.402063"/>
     <use style="fill:#b3cde3;stroke:#b3cde3;" x="180.483767" xlink:href="#m4fe8d587d6" y="60.826461"/>
     <use style="fill:#b3cde3;stroke:#b3cde3;" x="183.29657" xlink:href="#m4fe8d587d6" y="56.4912"/>
     <use style="fill:#b3cde3;stroke:#b3cde3;" x="189.095405" xlink:href="#m4fe8d587d6" y="62.468604"/>
     <use style="fill:#b3cde3;stroke:#b3cde3;" x="175.334055" xlink:href="#m4fe8d587d6" y="53.472001"/>
     <use style="fill:#b3cde3;stroke:#b3cde3;" x="177.113045" xlink:href="#m4fe8d587d6" y="46.492129"/>
     <use style="fill:#b3cde3;stroke:#b3cde3;" x="181.382621" xlink:href="#m4fe8d587d6" y="55.582194"/>
     <use style="fill:#b3cde3;stroke:#b3cde3;" x="193.337433" xlink:href="#m4fe8d587d6" y="32.456"/>
     <use style="fill:#b3cde3;stroke:#b3cde3;" x="171.909501" xlink:href="#m4fe8d587d6" y="41.521004"/>
     <use style="fill:#b3cde3;stroke:#b3cde3;" x="186.628099" xlink:href="#m4fe8d587d6" y="52.604414"/>
     <use style="fill:#b3cde3;stroke:#b3cde3;" x="176.3125" xlink:href="#m4fe8d587d6" y="54.73"/>
     <use style="fill:#b3cde3;stroke:#b3cde3;" x="177.113062" xlink:href="#m4fe8d587d6" y="60.127212"/>
     <use style="fill:#b3cde3;stroke:#b3cde3;" x="179.247833" xlink:href="#m4fe8d587d6" y="33.344"/>
     <use style="fill:#b3cde3;stroke:#b3cde3;" x="189.921773" xlink:href="#m4fe8d587d6" y="51.037162"/>
     <use style="fill:#b3cde3;stroke:#b3cde3;" x="182.6025" xlink:href="#m4fe8d587d6" y="59.622223"/>
     <use style="fill:#b3cde3;stroke:#b3cde3;" x="173.068183" xlink:href="#m4fe8d587d6" y="60.826462"/>
     <use style="fill:#b3cde3;stroke:#b3cde3;" x="180.7155" xlink:href="#m4fe8d587d6" y="50.327"/>
     <use style="fill:#b3cde3;stroke:#b3cde3;" x="188.155058" xlink:href="#m4fe8d587d6" y="52.465595"/>
     <use style="fill:#b3cde3;stroke:#b3cde3;" x="183.944366" xlink:href="#m4fe8d587d6" y="40.744"/>
     <use style="fill:#b3cde3;stroke:#b3cde3;" x="190.6537" xlink:href="#m4fe8d587d6" y="42.887449"/>
     <use style="fill:#b3cde3;stroke:#b3cde3;" x="171.909498" xlink:href="#m4fe8d587d6" y="63.536036"/>
     <use style="fill:#b3cde3;stroke:#b3cde3;" x="182.6025" xlink:href="#m4fe8d587d6" y="47.880889"/>
     <use style="fill:#b3cde3;stroke:#b3cde3;" x="181.857016" xlink:href="#m4fe8d587d6" y="54.968012"/>
     <use style="fill:#b3cde3;stroke:#b3cde3;" x="180.005345" xlink:href="#m4fe8d587d6" y="62.468603"/>
     <use style="fill:#b3cde3;stroke:#b3cde3;" x="177.113038" xlink:href="#m4fe8d587d6" y="37.402088"/>
     <use style="fill:#b3cde3;stroke:#b3cde3;" x="184.550376" xlink:href="#m4fe8d587d6" y="62.468609"/>
     <use style="fill:#b3cde3;stroke:#b3cde3;" x="186.1545" xlink:href="#m4fe8d587d6" y="37.705067"/>
     <use style="fill:#b3cde3;stroke:#b3cde3;" x="188.155058" xlink:href="#m4fe8d587d6" y="52.465595"/>
     <use style="fill:#b3cde3;stroke:#b3cde3;" x="186.154499" xlink:href="#m4fe8d587d6" y="47.098134"/>
     <use style="fill:#b3cde3;stroke:#b3cde3;" x="178.576899" xlink:href="#m4fe8d587d6" y="57.462896"/>
     <use style="fill:#b3cde3;stroke:#b3cde3;" x="189.5215" xlink:href="#m4fe8d587d6" y="37.118001"/>
     <use style="fill:#b3cde3;stroke:#b3cde3;" x="185.118499" xlink:href="#m4fe8d587d6" y="45.924001"/>
     <use style="fill:#b3cde3;stroke:#b3cde3;" x="189.095405" xlink:href="#m4fe8d587d6" y="62.468604"/>
     <use style="fill:#b3cde3;stroke:#b3cde3;" x="198.185468" xlink:href="#m4fe8d587d6" y="53.929455"/>
     <use style="fill:#b3cde3;stroke:#b3cde3;" x="177.441474" xlink:href="#m4fe8d587d6" y="56.4912"/>
     <use style="fill:#b3cde3;stroke:#b3cde3;" x="185.652196" xlink:href="#m4fe8d587d6" y="41.947097"/>
     <use style="fill:#b3cde3;stroke:#b3cde3;" x="202.7305" xlink:href="#m4fe8d587d6" y="51.037163"/>
     <use style="fill:#b3cde3;stroke:#b3cde3;" x="173.579603" xlink:href="#m4fe8d587d6" y="60.5168"/>
     <use style="fill:#b3cde3;stroke:#b3cde3;" x="173.579602" xlink:href="#m4fe8d587d6" y="44.4144"/>
     <use style="fill:#b3cde3;stroke:#b3cde3;" x="178.576902" xlink:href="#m4fe8d587d6" y="52.604415"/>
     <use style="fill:#b3cde3;stroke:#b3cde3;" x="179.247833" xlink:href="#m4fe8d587d6" y="53.472"/>
    </g>
   </g>
   <g id="matplotlib.axis_1">
    <g id="xtick_1">
     <g id="line2d_1">
      <defs>
       <path d="M 0 0 
L 0 3.5 
" id="mce511c9512" style="stroke:#ffffff;stroke-width:0.8;"/>
      </defs>
      <g>
       <use style="fill:#ffffff;stroke:#ffffff;stroke-width:0.8;" x="61.8345" xlink:href="#mce511c9512" y="186.82"/>
      </g>
     </g>
     <g id="text_1">
      <!-- −1 -->
      <defs>
       <path d="M 7.40625 37.15625 
L 50.59375 37.15625 
L 50.59375 29.953125 
L 7.40625 29.953125 
z
" id="Lato-Medium-2212"/>
       <path d="M 12.34375 7.25 
L 27.59375 7.25 
L 27.59375 54.90625 
Q 27.59375 57.09375 27.75 59.453125 
L 15.40625 48.90625 
Q 14.703125 48.34375 14.015625 48.1875 
Q 13.34375 48.046875 12.75 48.171875 
Q 12.15625 48.296875 11.65625 48.59375 
Q 11.15625 48.90625 10.90625 49.25 
L 7.953125 53.40625 
L 29.40625 71.90625 
L 37.09375 71.90625 
L 37.09375 7.25 
L 51.046875 7.25 
L 51.046875 0 
L 12.34375 0 
z
" id="Lato-Medium-31"/>
      </defs>
      <g style="fill:#ffffff;" transform="translate(56.0345 201.195)scale(0.1 -0.1)">
       <use xlink:href="#Lato-Medium-2212"/>
       <use x="58" xlink:href="#Lato-Medium-31"/>
      </g>
     </g>
    </g>
    <g id="xtick_2">
     <g id="line2d_2">
      <g>
       <use style="fill:#ffffff;stroke:#ffffff;stroke-width:0.8;" x="132.2825" xlink:href="#mce511c9512" y="186.82"/>
      </g>
     </g>
     <g id="text_2">
      <!-- 0 -->
      <defs>
       <path d="M 55.09375 35.90625 
Q 55.09375 26.5 53.0625 19.59375 
Q 51.046875 12.703125 47.515625 8.171875 
Q 44 3.65625 39.21875 1.453125 
Q 34.453125 -0.75 28.953125 -0.75 
Q 23.453125 -0.75 18.703125 1.453125 
Q 13.953125 3.65625 10.421875 8.171875 
Q 6.90625 12.703125 4.90625 19.59375 
Q 2.90625 26.5 2.90625 35.90625 
Q 2.90625 45.296875 4.90625 52.1875 
Q 6.90625 59.09375 10.421875 63.625 
Q 13.953125 68.15625 18.703125 70.34375 
Q 23.453125 72.546875 28.953125 72.546875 
Q 34.453125 72.546875 39.21875 70.34375 
Q 44 68.15625 47.515625 63.625 
Q 51.046875 59.09375 53.0625 52.1875 
Q 55.09375 45.296875 55.09375 35.90625 
M 45.25 35.90625 
Q 45.25 44 43.890625 49.5 
Q 42.546875 55 40.296875 58.34375 
Q 38.046875 61.703125 35.09375 63.125 
Q 32.15625 64.546875 28.953125 64.546875 
Q 25.75 64.546875 22.796875 63.125 
Q 19.84375 61.703125 17.59375 58.34375 
Q 15.34375 55 14.015625 49.5 
Q 12.703125 44 12.703125 35.90625 
Q 12.703125 27.75 14.015625 22.25 
Q 15.34375 16.75 17.59375 13.421875 
Q 19.84375 10.09375 22.796875 8.671875 
Q 25.75 7.25 28.953125 7.25 
Q 32.15625 7.25 35.09375 8.671875 
Q 38.046875 10.09375 40.296875 13.421875 
Q 42.546875 16.75 43.890625 22.25 
Q 45.25 27.75 45.25 35.90625 
" id="Lato-Medium-30"/>
      </defs>
      <g style="fill:#ffffff;" transform="translate(129.3825 201.195)scale(0.1 -0.1)">
       <use xlink:href="#Lato-Medium-30"/>
      </g>
     </g>
    </g>
    <g id="xtick_3">
     <g id="line2d_3">
      <g>
       <use style="fill:#ffffff;stroke:#ffffff;stroke-width:0.8;" x="202.7305" xlink:href="#mce511c9512" y="186.82"/>
      </g>
     </g>
     <g id="text_3">
      <!-- 1 -->
      <g style="fill:#ffffff;" transform="translate(199.8305 201.195)scale(0.1 -0.1)">
       <use xlink:href="#Lato-Medium-31"/>
      </g>
     </g>
    </g>
    <g id="text_4">
     <!-- $\langle X\rangle$ -->
     <defs>
      <path d="M 8.9375 31.34375 
L 22.703125 75.875 
L 31 75.875 
L 17.234375 31.34375 
L 31 -13.1875 
L 22.703125 -13.1875 
z
" id="DejaVuSans-27e8"/>
      <path d="M 13.71875 72.90625 
L 23.6875 72.90625 
L 36.1875 46.578125 
L 58.796875 72.90625 
L 70.3125 72.90625 
L 40.28125 38.09375 
L 58.40625 0 
L 48.484375 0 
L 33.796875 30.71875 
L 7.171875 0 
L -4.296875 0 
L 29.78125 39.203125 
z
" id="DejaVuSans-Oblique-58"/>
      <path d="M 30.078125 31.34375 
L 16.3125 -13.1875 
L 8.015625 -13.1875 
L 21.78125 31.34375 
L 8.015625 75.875 
L 16.3125 75.875 
z
" id="DejaVuSans-27e9"/>
     </defs>
     <g style="fill:#ffffff;" transform="translate(120.5225 218.467188)scale(0.16 -0.16)">
      <use transform="translate(0 0.125)" xlink:href="#DejaVuSans-27e8"/>
      <use transform="translate(39.013672 0.125)" xlink:href="#DejaVuSans-Oblique-58"/>
      <use transform="translate(107.519531 0.125)" xlink:href="#DejaVuSans-27e9"/>
     </g>
    </g>
   </g>
   <g id="matplotlib.axis_2">
    <g id="ytick_1">
     <g id="line2d_4">
      <defs>
       <path d="M 0 0 
L -3.5 0 
" id="mdcfec8830d" style="stroke:#ffffff;stroke-width:0.8;"/>
      </defs>
      <g>
       <use style="fill:#ffffff;stroke:#ffffff;stroke-width:0.8;" x="44.2225" xlink:href="#mdcfec8830d" y="169.208"/>
      </g>
     </g>
     <g id="text_5">
      <!-- −1 -->
      <g style="fill:#ffffff;" transform="translate(25.6225 172.8955)scale(0.1 -0.1)">
       <use xlink:href="#Lato-Medium-2212"/>
       <use x="58" xlink:href="#Lato-Medium-31"/>
      </g>
     </g>
    </g>
    <g id="ytick_2">
     <g id="line2d_5">
      <g>
       <use style="fill:#ffffff;stroke:#ffffff;stroke-width:0.8;" x="44.2225" xlink:href="#mdcfec8830d" y="98.76"/>
      </g>
     </g>
     <g id="text_6">
      <!-- 0 -->
      <g style="fill:#ffffff;" transform="translate(31.4225 102.4475)scale(0.1 -0.1)">
       <use xlink:href="#Lato-Medium-30"/>
      </g>
     </g>
    </g>
    <g id="ytick_3">
     <g id="line2d_6">
      <g>
       <use style="fill:#ffffff;stroke:#ffffff;stroke-width:0.8;" x="44.2225" xlink:href="#mdcfec8830d" y="28.312"/>
      </g>
     </g>
     <g id="text_7">
      <!-- 1 -->
      <g style="fill:#ffffff;" transform="translate(31.4225 31.9995)scale(0.1 -0.1)">
       <use xlink:href="#Lato-Medium-31"/>
      </g>
     </g>
    </g>
    <g id="text_8">
     <!-- $\langle Z\rangle$ -->
     <defs>
      <path d="M 13.09375 72.90625 
L 70.3125 72.90625 
L 68.890625 65.375 
L 12.40625 8.296875 
L 58.890625 8.296875 
L 57.328125 0 
L -2.203125 0 
L -0.78125 7.515625 
L 55.71875 64.59375 
L 11.53125 64.59375 
z
" id="DejaVuSans-Oblique-5a"/>
     </defs>
     <g style="fill:#ffffff;" transform="translate(18.7675 110.52)rotate(-90)scale(0.16 -0.16)">
      <use transform="translate(0 0.125)" xlink:href="#DejaVuSans-27e8"/>
      <use transform="translate(39.013672 0.125)" xlink:href="#DejaVuSans-Oblique-5a"/>
      <use transform="translate(107.519531 0.125)" xlink:href="#DejaVuSans-27e9"/>
     </g>
    </g>
   </g>
   <g id="line2d_7">
    <path clip-path="url(#p6378778061)" d="M 132.2825 28.312 
L 135.73922 28.396858 
L 139.187612 28.651226 
L 142.619368 29.074493 
L 146.026223 29.665639 
L 149.399968 30.423238 
L 152.732475 31.345467 
L 156.015716 32.430104 
L 159.241782 33.674535 
L 162.402901 35.075762 
L 165.491457 36.630411 
L 168.50001 38.334735 
L 171.421312 40.184629 
L 174.248325 42.175636 
L 176.974238 44.30296 
L 179.592485 46.561475 
L 182.096759 48.945741 
L 184.481025 51.450015 
L 186.73954 54.068262 
L 188.866864 56.794175 
L 190.857871 59.621188 
L 192.707765 62.54249 
L 194.412089 65.551043 
L 195.966738 68.639599 
L 197.367965 71.800718 
L 198.612396 75.026784 
L 199.697033 78.310025 
L 200.619262 81.642532 
L 201.376861 85.016277 
L 201.968007 88.423132 
L 202.391274 91.854888 
L 202.645642 95.30328 
L 202.7305 98.76 
L 202.645642 102.21672 
L 202.391274 105.665112 
L 201.968007 109.096868 
L 201.376861 112.503723 
L 200.619262 115.877468 
L 199.697033 119.209975 
L 198.612396 122.493216 
L 197.367965 125.719282 
L 195.966738 128.880401 
L 194.412089 131.968957 
L 192.707765 134.97751 
L 190.857871 137.898812 
L 188.866864 140.725825 
L 186.73954 143.451738 
L 184.481025 146.069985 
L 182.096759 148.574259 
L 179.592485 150.958525 
L 176.974238 153.21704 
L 174.248325 155.344364 
L 171.421312 157.335371 
L 168.50001 159.185265 
L 165.491457 160.889589 
L 162.402901 162.444238 
L 159.241782 163.845465 
L 156.015716 165.089896 
L 152.732475 166.174533 
L 149.399968 167.096762 
L 146.026223 167.854361 
L 142.619368 168.445507 
L 139.187612 168.868774 
L 135.73922 169.123142 
L 132.2825 169.208 
L 128.82578 169.123142 
L 125.377388 168.868774 
L 121.945632 168.445507 
L 118.538777 167.854361 
L 115.165032 167.096762 
L 111.832525 166.174533 
L 108.549284 165.089896 
L 105.323218 163.845465 
L 102.162099 162.444238 
L 99.073543 160.889589 
L 96.06499 159.185265 
L 93.143688 157.335371 
L 90.316675 155.344364 
L 87.590762 153.21704 
L 84.972515 150.958525 
L 82.468241 148.574259 
L 80.083975 146.069985 
L 77.82546 143.451738 
L 75.698136 140.725825 
L 73.707129 137.898812 
L 71.857235 134.97751 
L 70.152911 131.968957 
L 68.598262 128.880401 
L 67.197035 125.719282 
L 65.952604 122.493216 
L 64.867967 119.209975 
L 63.945738 115.877468 
L 63.188139 112.503723 
L 62.596993 109.096868 
L 62.173726 105.665112 
L 61.919358 102.21672 
L 61.8345 98.76 
L 61.919358 95.30328 
L 62.173726 91.854888 
L 62.596993 88.423132 
L 63.188139 85.016277 
L 63.945738 81.642532 
L 64.867967 78.310025 
L 65.952604 75.026784 
L 67.197035 71.800718 
L 68.598262 68.639599 
L 70.152911 65.551043 
L 71.857235 62.54249 
L 73.707129 59.621188 
L 75.698136 56.794175 
L 77.82546 54.068262 
L 80.083975 51.450015 
L 82.468241 48.945741 
L 84.972515 46.561475 
L 87.590762 44.30296 
L 90.316675 42.175636 
L 93.143688 40.184629 
L 96.06499 38.334735 
L 99.073543 36.630411 
L 102.162099 35.075762 
L 105.323218 33.674535 
L 108.549284 32.430104 
L 111.832525 31.345467 
L 115.165032 30.423238 
L 118.538777 29.665639 
L 121.945632 29.074493 
L 125.377388 28.651226 
L 128.82578 28.396858 
L 132.2825 28.312 
L 132.2825 28.312 
" style="fill:none;stroke:#ffffff;stroke-linecap:square;stroke-width:1.5;"/>
   </g>
   <g id="line2d_8">
    <path clip-path="url(#p6378778061)" d="M 182.096759 48.945741 
" style="fill:none;"/>
    <defs>
     <path d="M 0 4 
C 1.060812 4 2.078319 3.578535 2.828427 2.828427 
C 3.578535 2.078319 4 1.060812 4 0 
C 4 -1.060812 3.578535 -2.078319 2.828427 -2.828427 
C 2.078319 -3.578535 1.060812 -4 0 -4 
C -1.060812 -4 -2.078319 -3.578535 -2.828427 -2.828427 
C -3.578535 -2.078319 -4 -1.060812 -4 0 
C -4 1.060812 -3.578535 2.078319 -2.828427 2.828427 
C -2.078319 3.578535 -1.060812 4 0 4 
z
" id="m29bbf56833" style="stroke:#fbb4ae;"/>
    </defs>
    <g clip-path="url(#p6378778061)">
     <use style="fill:#fbb4ae;stroke:#fbb4ae;" x="182.096759" xlink:href="#m29bbf56833" y="48.945741"/>
    </g>
   </g>
   <g id="line2d_9">
    <path clip-path="url(#p6378778061)" d="M 183.143798 32.129808 
L 184.99743 32.185228 
L 186.819355 32.480124 
L 188.585697 33.010632 
L 190.27331 33.769799 
L 191.860079 34.747676 
L 193.325208 35.93145 
L 194.6495 37.305608 
L 195.815599 38.852142 
L 196.808225 40.550785 
L 197.61437 42.379279 
L 198.223469 44.313661 
L 198.627541 46.328582 
L 198.821292 48.397638 
L 198.80218 50.493716 
L 198.570458 52.589347 
L 198.129162 54.657069 
L 197.484074 56.669786 
L 196.643649 58.601123 
L 195.618899 60.425769 
L 194.423253 62.119815 
L 193.07238 63.661061 
L 191.583982 65.029309 
L 189.977564 66.20663 
L 188.274176 67.177595 
L 186.496141 67.929481 
L 184.666759 68.452434 
L 182.810003 68.739601 
L 180.950205 68.787219 
L 179.111736 68.594665 
L 177.318689 68.164461 
L 175.594559 67.502245 
L 173.961942 66.616695 
L 172.442232 65.519416 
L 171.055343 64.224786 
L 169.81945 62.749772 
L 168.750749 61.113703 
L 167.863244 59.338018 
L 167.168566 57.445986 
L 166.675818 55.462402 
L 166.391457 53.41326 
L 166.31921 51.325412 
L 166.460023 49.226218 
L 166.812051 47.143188 
L 167.370681 45.103617 
L 168.128592 43.134234 
L 169.075853 41.260847 
L 170.20005 39.508004 
L 171.486451 37.898676 
L 172.918199 36.453953 
L 174.476531 35.192766 
L 176.141026 34.131642 
L 177.889872 33.284488 
L 179.700152 32.662405 
L 181.548142 32.273544 
L 183.143798 32.129808 
L 183.143798 32.129808 
" style="fill:none;stroke:#ffffff;stroke-linecap:square;stroke-width:1.5;"/>
   </g>
   <g id="patch_3">
    <path d="M 44.2225 186.82 
L 44.2225 10.7 
" style="fill:none;stroke:#ffffff;stroke-linecap:square;stroke-linejoin:miter;stroke-width:0.8;"/>
   </g>
   <g id="patch_4">
    <path d="M 220.3425 186.82 
L 220.3425 10.7 
" style="fill:none;stroke:#ffffff;stroke-linecap:square;stroke-linejoin:miter;stroke-width:0.8;"/>
   </g>
   <g id="patch_5">
    <path d="M 44.2225 186.82 
L 220.3425 186.82 
" style="fill:none;stroke:#ffffff;stroke-linecap:square;stroke-linejoin:miter;stroke-width:0.8;"/>
   </g>
   <g id="patch_6">
    <path d="M 44.2225 10.7 
L 220.3425 10.7 
" style="fill:none;stroke:#ffffff;stroke-linecap:square;stroke-linejoin:miter;stroke-width:0.8;"/>
   </g>
   <g id="legend_1">
    <g id="patch_7">
     <path d="M 51.2225 181.82 
L 125.835 181.82 
Q 127.835 181.82 127.835 179.82 
L 127.835 152.660625 
Q 127.835 150.660625 125.835 150.660625 
L 51.2225 150.660625 
Q 49.2225 150.660625 49.2225 152.660625 
L 49.2225 179.82 
Q 49.2225 181.82 51.2225 181.82 
z
" style="opacity:0.75;stroke:#000000;stroke-linejoin:miter;"/>
    </g>
    <g id="line2d_10">
     <path d="M 53.2225 158.535625 
L 73.2225 158.535625 
" style="fill:none;"/>
    </g>
    <g id="line2d_11">
     <g>
      <use style="fill:#fbb4ae;stroke:#fbb4ae;" x="63.2225" xlink:href="#m29bbf56833" y="158.535625"/>
     </g>
    </g>
    <g id="text_9">
     <!-- Truth -->
     <defs>
      <path d="M 57.75 71.75 
L 57.75 63.09375 
L 34.796875 63.09375 
L 34.796875 0 
L 24.5 0 
L 24.5 63.09375 
L 1.5 63.09375 
L 1.5 71.75 
z
" id="Lato-Medium-54"/>
      <path d="M 6.90625 0 
L 6.90625 50.75 
L 12.34375 50.75 
Q 13.90625 50.75 14.46875 50.203125 
Q 15.046875 49.65625 15.25 48.203125 
L 15.84375 40.796875 
Q 18.25 45.84375 21.75 48.75 
Q 25.25 51.65625 30.15625 51.65625 
Q 31.796875 51.65625 33.265625 51.296875 
Q 34.75 50.953125 35.84375 50.203125 
L 35.203125 43.09375 
Q 34.90625 41.75 33.59375 41.75 
Q 32.90625 41.75 31.53125 42.046875 
Q 30.15625 42.34375 28.5 42.34375 
Q 26.15625 42.34375 24.328125 41.640625 
Q 22.5 40.953125 21.046875 39.59375 
Q 19.59375 38.25 18.46875 36.296875 
Q 17.34375 34.34375 16.40625 31.84375 
L 16.40625 0 
z
" id="Lato-Medium-72"/>
      <path d="M 15.90625 50.75 
L 15.90625 18.40625 
Q 15.90625 12.90625 18.453125 9.828125 
Q 21 6.75 26.203125 6.75 
Q 30 6.75 33.328125 8.515625 
Q 36.65625 10.296875 39.5 13.453125 
L 39.5 50.75 
L 49 50.75 
L 49 0 
L 43.296875 0 
Q 41.296875 0 40.796875 1.90625 
L 40.046875 7.15625 
Q 36.75 3.59375 32.71875 1.390625 
Q 28.703125 -0.796875 23.40625 -0.796875 
Q 19.203125 -0.796875 16.015625 0.59375 
Q 12.84375 2 10.71875 4.515625 
Q 8.59375 7.046875 7.5 10.5625 
Q 6.40625 14.09375 6.40625 18.40625 
L 6.40625 50.75 
z
" id="Lato-Medium-75"/>
      <path d="M 22.703125 -0.796875 
Q 16.59375 -0.796875 13.296875 2.59375 
Q 10 6 10 12.40625 
L 10 43 
L 4.046875 43 
Q 3.203125 43 2.640625 43.515625 
Q 2.09375 44.046875 2.09375 45.046875 
L 2.09375 48.84375 
L 10.34375 49.953125 
L 12.5 65.296875 
Q 12.703125 66.09375 13.25 66.5625 
Q 13.796875 67.046875 14.703125 67.046875 
L 19.5 67.046875 
L 19.5 49.90625 
L 33.953125 49.90625 
L 33.953125 43 
L 19.5 43 
L 19.5 13.046875 
Q 19.5 10 20.96875 8.46875 
Q 22.453125 6.953125 24.84375 6.953125 
Q 26.203125 6.953125 27.203125 7.296875 
Q 28.203125 7.65625 28.890625 8.09375 
Q 29.59375 8.546875 30.125 8.890625 
Q 30.65625 9.25 31.046875 9.25 
Q 31.5 9.25 31.765625 9.046875 
Q 32.046875 8.84375 32.34375 8.34375 
L 35.15625 3.796875 
Q 32.75 1.59375 29.46875 0.390625 
Q 26.203125 -0.796875 22.703125 -0.796875 
" id="Lato-Medium-74"/>
      <path d="M 6.90625 0 
L 6.90625 73.75 
L 16.40625 73.75 
L 16.40625 44.25 
Q 19.59375 47.546875 23.5 49.546875 
Q 27.40625 51.546875 32.5 51.546875 
Q 36.65625 51.546875 39.828125 50.140625 
Q 43 48.75 45.140625 46.21875 
Q 47.296875 43.703125 48.390625 40.171875 
Q 49.5 36.65625 49.5 32.34375 
L 49.5 0 
L 40 0 
L 40 32.34375 
Q 40 37.84375 37.453125 40.921875 
Q 34.90625 44 29.703125 44 
Q 25.84375 44 22.546875 42.203125 
Q 19.25 40.40625 16.40625 37.25 
L 16.40625 0 
z
" id="Lato-Medium-68"/>
     </defs>
     <g style="fill:#ffffff;" transform="translate(81.2225 162.035625)scale(0.1 -0.1)">
      <use xlink:href="#Lato-Medium-54"/>
      <use x="59.043762" xlink:href="#Lato-Medium-72"/>
      <use x="95.593765" xlink:href="#Lato-Medium-75"/>
      <use x="151.443771" xlink:href="#Lato-Medium-74"/>
      <use x="187.493774" xlink:href="#Lato-Medium-68"/>
     </g>
    </g>
    <g id="PathCollection_2">
     <g>
      <use style="fill:#b3cde3;stroke:#b3cde3;" x="63.2225" xlink:href="#m4fe8d587d6" y="173.490313"/>
     </g>
    </g>
    <g id="text_10">
     <!-- Estimates -->
     <defs>
      <path d="M 53.34375 71.75 
L 53.34375 63.34375 
L 19.296875 63.34375 
L 19.296875 40.25 
L 46.75 40.25 
L 46.75 32.15625 
L 19.296875 32.15625 
L 19.296875 8.40625 
L 53.40625 8.40625 
L 53.34375 0 
L 8.953125 0 
L 8.953125 71.75 
z
" id="Lato-Medium-45"/>
      <path d="M 36.703125 42.15625 
Q 36 40.953125 34.75 40.953125 
Q 33.953125 40.953125 32.96875 41.5 
Q 32 42.046875 30.640625 42.71875 
Q 29.296875 43.40625 27.421875 43.953125 
Q 25.546875 44.5 23 44.5 
Q 20.84375 44.5 19.09375 43.953125 
Q 17.34375 43.40625 16.125 42.453125 
Q 14.90625 41.5 14.21875 40.21875 
Q 13.546875 38.953125 13.546875 37.453125 
Q 13.546875 35.546875 14.671875 34.265625 
Q 15.796875 33 17.625 32.078125 
Q 19.453125 31.15625 21.796875 30.421875 
Q 24.15625 29.703125 26.59375 28.890625 
Q 29.046875 28.09375 31.390625 27.0625 
Q 33.75 26.046875 35.578125 24.546875 
Q 37.40625 23.046875 38.53125 20.875 
Q 39.65625 18.703125 39.65625 15.65625 
Q 39.65625 12.09375 38.375 9.09375 
Q 37.09375 6.09375 34.625 3.890625 
Q 32.15625 1.703125 28.546875 0.453125 
Q 24.953125 -0.796875 20.25 -0.796875 
Q 14.953125 -0.796875 10.578125 0.953125 
Q 6.203125 2.703125 3.203125 5.40625 
L 5.40625 9 
Q 5.796875 9.703125 6.390625 10.078125 
Q 7 10.453125 7.90625 10.453125 
Q 8.84375 10.453125 9.84375 9.75 
Q 10.84375 9.046875 12.265625 8.21875 
Q 13.703125 7.40625 15.71875 6.703125 
Q 17.75 6 20.75 6 
Q 23.296875 6 25.171875 6.640625 
Q 27.046875 7.296875 28.296875 8.375 
Q 29.546875 9.453125 30.140625 10.890625 
Q 30.75 12.34375 30.75 13.953125 
Q 30.75 16 29.625 17.34375 
Q 28.5 18.703125 26.671875 19.640625 
Q 24.84375 20.59375 22.5 21.296875 
Q 20.15625 22 17.671875 22.796875 
Q 15.203125 23.59375 12.84375 24.625 
Q 10.5 25.65625 8.671875 27.25 
Q 6.84375 28.84375 5.71875 31.125 
Q 4.59375 33.40625 4.59375 36.703125 
Q 4.59375 39.65625 5.796875 42.34375 
Q 7 45.046875 9.328125 47.09375 
Q 11.65625 49.15625 15.046875 50.34375 
Q 18.453125 51.546875 22.796875 51.546875 
Q 27.796875 51.546875 31.875 49.96875 
Q 35.953125 48.40625 38.796875 45.59375 
z
" id="Lato-Medium-73"/>
      <path d="M 16.84375 50.75 
L 16.84375 0 
L 7.34375 0 
L 7.34375 50.75 
z
M 18.703125 66.5 
Q 18.703125 65.15625 18.171875 63.96875 
Q 17.65625 62.796875 16.71875 61.890625 
Q 15.796875 61 14.5625 60.46875 
Q 13.34375 59.953125 12 59.953125 
Q 10.703125 59.953125 9.515625 60.46875 
Q 8.34375 61 7.4375 61.890625 
Q 6.546875 62.796875 6.015625 63.96875 
Q 5.5 65.15625 5.5 66.5 
Q 5.5 67.84375 6.015625 69.0625 
Q 6.546875 70.296875 7.4375 71.1875 
Q 8.34375 72.09375 9.515625 72.625 
Q 10.703125 73.15625 12 73.15625 
Q 13.34375 73.15625 14.5625 72.625 
Q 15.796875 72.09375 16.71875 71.1875 
Q 17.65625 70.296875 18.171875 69.0625 
Q 18.703125 67.84375 18.703125 66.5 
" id="Lato-Medium-69"/>
      <path d="M 6.90625 0 
L 6.90625 50.75 
L 12.59375 50.75 
Q 14.59375 50.75 15.09375 48.84375 
L 15.75 43.90625 
Q 18.546875 47.25 22 49.390625 
Q 25.453125 51.546875 30.046875 51.546875 
Q 35.15625 51.546875 38.296875 48.765625 
Q 41.453125 46 42.84375 41.25 
Q 43.953125 43.953125 45.703125 45.890625 
Q 47.453125 47.84375 49.59375 49.09375 
Q 51.75 50.34375 54.171875 50.9375 
Q 56.59375 51.546875 59.09375 51.546875 
Q 67.25 51.546875 71.703125 46.5625 
Q 76.15625 41.59375 76.15625 32.34375 
L 76.15625 0 
L 66.65625 0 
L 66.65625 32.34375 
Q 66.65625 38.09375 64.125 41.046875 
Q 61.59375 44 56.796875 44 
Q 54.65625 44 52.71875 43.25 
Q 50.796875 42.5 49.34375 41.046875 
Q 47.90625 39.59375 47.046875 37.390625 
Q 46.203125 35.203125 46.203125 32.34375 
L 46.203125 0 
L 36.703125 0 
L 36.703125 32.34375 
Q 36.703125 38.25 34.328125 41.125 
Q 31.953125 44 27.34375 44 
Q 24.203125 44 21.421875 42.328125 
Q 18.65625 40.65625 16.40625 37.703125 
L 16.40625 0 
z
" id="Lato-Medium-6d"/>
      <path d="M 39.34375 0 
Q 37.953125 0 37.203125 0.453125 
Q 36.453125 0.90625 36 2.203125 
L 34.953125 6.75 
Q 33 4.953125 31.09375 3.515625 
Q 29.203125 2.09375 27.125 1.140625 
Q 25.046875 0.203125 22.6875 -0.296875 
Q 20.34375 -0.796875 17.453125 -0.796875 
Q 14.453125 -0.796875 11.84375 0.015625 
Q 9.25 0.84375 7.328125 2.546875 
Q 5.40625 4.25 4.28125 6.765625 
Q 3.15625 9.296875 3.15625 12.75 
Q 3.15625 15.75 4.78125 18.5 
Q 6.40625 21.25 10.078125 23.421875 
Q 13.75 25.59375 19.671875 27 
Q 25.59375 28.40625 34.25 28.59375 
L 34.25 32.40625 
Q 34.25 38.15625 31.765625 41.078125 
Q 29.296875 44 24.5 44 
Q 21.25 44 19.078125 43.171875 
Q 16.90625 42.34375 15.328125 41.375 
Q 13.75 40.40625 12.546875 39.59375 
Q 11.34375 38.796875 10.15625 38.796875 
Q 9.15625 38.796875 8.46875 39.3125 
Q 7.796875 39.84375 7.296875 40.546875 
L 5.59375 43.65625 
Q 9.84375 47.65625 14.765625 49.65625 
Q 19.703125 51.65625 25.65625 51.65625 
Q 29.953125 51.65625 33.296875 50.25 
Q 36.65625 48.84375 38.921875 46.3125 
Q 41.203125 43.796875 42.375 40.25 
Q 43.546875 36.703125 43.546875 32.40625 
L 43.546875 0 
z
M 20.296875 5.84375 
Q 22.546875 5.84375 24.46875 6.296875 
Q 26.40625 6.75 28.078125 7.59375 
Q 29.75 8.453125 31.25 9.671875 
Q 32.75 10.90625 34.25 12.453125 
L 34.25 22.65625 
Q 28.25 22.453125 24.046875 21.703125 
Q 19.84375 20.953125 17.21875 19.75 
Q 14.59375 18.546875 13.390625 16.875 
Q 12.203125 15.203125 12.203125 13.203125 
Q 12.203125 11.25 12.828125 9.84375 
Q 13.453125 8.453125 14.546875 7.578125 
Q 15.65625 6.703125 17.125 6.265625 
Q 18.59375 5.84375 20.296875 5.84375 
" id="Lato-Medium-61"/>
      <path d="M 27.84375 51.546875 
Q 32.453125 51.546875 36.34375 50.015625 
Q 40.25 48.5 43.09375 45.59375 
Q 45.953125 42.703125 47.546875 38.46875 
Q 49.15625 34.25 49.15625 28.796875 
Q 49.15625 26.59375 48.671875 25.84375 
Q 48.203125 25.09375 46.90625 25.09375 
L 13.40625 25.09375 
Q 13.546875 20.453125 14.71875 17 
Q 15.90625 13.546875 17.921875 11.265625 
Q 19.953125 9 22.796875 7.875 
Q 25.65625 6.75 29.15625 6.75 
Q 32.453125 6.75 34.828125 7.5 
Q 37.203125 8.25 38.921875 9.140625 
Q 40.65625 10.046875 41.84375 10.796875 
Q 43.046875 11.546875 43.953125 11.546875 
Q 45.15625 11.546875 45.703125 10.65625 
L 48.40625 7.203125 
Q 46.65625 5.09375 44.34375 3.625 
Q 42.046875 2.15625 39.390625 1.171875 
Q 36.75 0.203125 33.921875 -0.25 
Q 31.09375 -0.703125 28.34375 -0.703125 
Q 23.09375 -0.703125 18.625 1.0625 
Q 14.15625 2.84375 10.90625 6.265625 
Q 7.65625 9.703125 5.828125 14.765625 
Q 4 19.84375 4 26.453125 
Q 4 31.75 5.640625 36.328125 
Q 7.296875 40.90625 10.375 44.28125 
Q 13.453125 47.65625 17.875 49.59375 
Q 22.296875 51.546875 27.84375 51.546875 
M 28 44.59375 
Q 21.75 44.59375 18.171875 40.96875 
Q 14.59375 37.34375 13.703125 30.953125 
L 40.65625 30.953125 
Q 40.65625 33.953125 39.796875 36.453125 
Q 38.953125 38.953125 37.328125 40.75 
Q 35.703125 42.546875 33.34375 43.5625 
Q 31 44.59375 28 44.59375 
" id="Lato-Medium-65"/>
     </defs>
     <g style="fill:#ffffff;" transform="translate(81.2225 176.115313)scale(0.1 -0.1)">
      <use xlink:href="#Lato-Medium-45"/>
      <use x="57.700012" xlink:href="#Lato-Medium-73"/>
      <use x="101.100021" xlink:href="#Lato-Medium-74"/>
      <use x="137.150024" xlink:href="#Lato-Medium-69"/>
      <use x="161.350021" xlink:href="#Lato-Medium-6d"/>
      <use x="243.850037" xlink:href="#Lato-Medium-61"/>
      <use x="293.750046" xlink:href="#Lato-Medium-74"/>
      <use x="329.800049" xlink:href="#Lato-Medium-65"/>
      <use x="382.700058" xlink:href="#Lato-Medium-73"/>
     </g>
    </g>
   </g>
  </g>
  <g id="axes_2">
   <g id="patch_8">
    <path d="M 236.1825 186.82 
L 412.3025 186.82 
L 412.3025 10.7 
L 236.1825 10.7 
z
" style="fill:none;"/>
   </g>
   <g id="PathCollection_3">
    <g clip-path="url(#p5ca4a5329c)">
     <use style="fill:#b3cde3;stroke:#b3cde3;" x="390.287502" xlink:href="#m4fe8d587d6" y="50.327007"/>
     <use style="fill:#b3cde3;stroke:#b3cde3;" x="394.6905" xlink:href="#m4fe8d587d6" y="94.357"/>
     <use style="fill:#b3cde3;stroke:#b3cde3;" x="390.2875" xlink:href="#m4fe8d587d6" y="89.954"/>
     <use style="fill:#b3cde3;stroke:#b3cde3;" x="385.297433" xlink:href="#m4fe8d587d6" y="69.752"/>
     <use style="fill:#b3cde3;stroke:#b3cde3;" x="394.6905" xlink:href="#m4fe8d587d6" y="74.008"/>
     <use style="fill:#b3cde3;stroke:#b3cde3;" x="389.832017" xlink:href="#m4fe8d587d6" y="68.568001"/>
     <use style="fill:#b3cde3;stroke:#b3cde3;" x="384.253763" xlink:href="#m4fe8d587d6" y="66.391991"/>
     <use style="fill:#b3cde3;stroke:#b3cde3;" x="390.776717" xlink:href="#m4fe8d587d6" y="58.503978"/>
     <use style="fill:#b3cde3;stroke:#b3cde3;" x="390.6649" xlink:href="#m4fe8d587d6" y="62.321381"/>
     <use style="fill:#b3cde3;stroke:#b3cde3;" x="390.776722" xlink:href="#m4fe8d587d6" y="73.6"/>
     <use style="fill:#b3cde3;stroke:#b3cde3;" x="390.6649" xlink:href="#m4fe8d587d6" y="91.472277"/>
     <use style="fill:#b3cde3;stroke:#b3cde3;" x="390.5465" xlink:href="#m4fe8d587d6" y="65.884267"/>
     <use style="fill:#b3cde3;stroke:#b3cde3;" x="380.6009" xlink:href="#m4fe8d587d6" y="44.888"/>
     <use style="fill:#b3cde3;stroke:#b3cde3;" x="379.457532" xlink:href="#m4fe8d587d6" y="123.509096"/>
     <use style="fill:#b3cde3;stroke:#b3cde3;" x="394.6905" xlink:href="#m4fe8d587d6" y="84.6704"/>
     <use style="fill:#b3cde3;stroke:#b3cde3;" x="381.055405" xlink:href="#m4fe8d587d6" y="62.468604"/>
     <use style="fill:#b3cde3;stroke:#b3cde3;" x="390.776722" xlink:href="#m4fe8d587d6" y="88.696004"/>
     <use style="fill:#b3cde3;stroke:#b3cde3;" x="394.6905" xlink:href="#m4fe8d587d6" y="78.307355"/>
     <use style="fill:#b3cde3;stroke:#b3cde3;" x="394.6905" xlink:href="#m4fe8d587d6" y="81.148"/>
     <use style="fill:#b3cde3;stroke:#b3cde3;" x="394.6905" xlink:href="#m4fe8d587d6" y="53.472001"/>
     <use style="fill:#b3cde3;stroke:#b3cde3;" x="378.5881" xlink:href="#m4fe8d587d6" y="76.896828"/>
     <use style="fill:#b3cde3;stroke:#b3cde3;" x="394.6905" xlink:href="#m4fe8d587d6" y="75.277334"/>
     <use style="fill:#b3cde3;stroke:#b3cde3;" x="389.472129" xlink:href="#m4fe8d587d6" y="51.160001"/>
     <use style="fill:#b3cde3;stroke:#b3cde3;" x="381.481499" xlink:href="#m4fe8d587d6" y="85.550999"/>
     <use style="fill:#b3cde3;stroke:#b3cde3;" x="390.98271" xlink:href="#m4fe8d587d6" y="60.826462"/>
     <use style="fill:#b3cde3;stroke:#b3cde3;" x="385.297434" xlink:href="#m4fe8d587d6" y="53.176"/>
     <use style="fill:#b3cde3;stroke:#b3cde3;" x="394.6905" xlink:href="#m4fe8d587d6" y="72.5936"/>
     <use style="fill:#b3cde3;stroke:#b3cde3;" x="394.6905" xlink:href="#m4fe8d587d6" y="88.696"/>
     <use style="fill:#b3cde3;stroke:#b3cde3;" x="394.6905" xlink:href="#m4fe8d587d6" y="67.179862"/>
     <use style="fill:#b3cde3;stroke:#b3cde3;" x="383.852346" xlink:href="#m4fe8d587d6" y="98.760001"/>
     <use style="fill:#b3cde3;stroke:#b3cde3;" x="390.420923" xlink:href="#m4fe8d587d6" y="78.307357"/>
     <use style="fill:#b3cde3;stroke:#b3cde3;" x="390.420924" xlink:href="#m4fe8d587d6" y="69.217291"/>
     <use style="fill:#b3cde3;stroke:#b3cde3;" x="390.8825" xlink:href="#m4fe8d587d6" y="64.840593"/>
     <use style="fill:#b3cde3;stroke:#b3cde3;" x="370.186848" xlink:href="#m4fe8d587d6" y="55.803903"/>
     <use style="fill:#b3cde3;stroke:#b3cde3;" x="394.6905" xlink:href="#m4fe8d587d6" y="78.307355"/>
     <use style="fill:#b3cde3;stroke:#b3cde3;" x="390.98271" xlink:href="#m4fe8d587d6" y="60.826462"/>
     <use style="fill:#b3cde3;stroke:#b3cde3;" x="385.8845" xlink:href="#m4fe8d587d6" y="67.939"/>
     <use style="fill:#b3cde3;stroke:#b3cde3;" x="394.6905" xlink:href="#m4fe8d587d6" y="96.330759"/>
     <use style="fill:#b3cde3;stroke:#b3cde3;" x="394.6905" xlink:href="#m4fe8d587d6" y="70.058963"/>
     <use style="fill:#b3cde3;stroke:#b3cde3;" x="394.6905" xlink:href="#m4fe8d587d6" y="91.942451"/>
     <use style="fill:#b3cde3;stroke:#b3cde3;" x="390.287499" xlink:href="#m4fe8d587d6" y="85.551001"/>
     <use style="fill:#b3cde3;stroke:#b3cde3;" x="390.420924" xlink:href="#m4fe8d587d6" y="51.037162"/>
     <use style="fill:#b3cde3;stroke:#b3cde3;" x="394.6905" xlink:href="#m4fe8d587d6" y="103.456533"/>
     <use style="fill:#b3cde3;stroke:#b3cde3;" x="378.1145" xlink:href="#m4fe8d587d6" y="70.5808"/>
     <use style="fill:#b3cde3;stroke:#b3cde3;" x="390.98271" xlink:href="#m4fe8d587d6" y="93.340924"/>
     <use style="fill:#b3cde3;stroke:#b3cde3;" x="387.274921" xlink:href="#m4fe8d587d6" y="87.921845"/>
     <use style="fill:#b3cde3;stroke:#b3cde3;" x="391.335833" xlink:href="#m4fe8d587d6" y="73.142546"/>
     <use style="fill:#b3cde3;stroke:#b3cde3;" x="394.6905" xlink:href="#m4fe8d587d6" y="88.696"/>
     <use style="fill:#b3cde3;stroke:#b3cde3;" x="394.6905" xlink:href="#m4fe8d587d6" y="77.6256"/>
     <use style="fill:#b3cde3;stroke:#b3cde3;" x="394.6905" xlink:href="#m4fe8d587d6" y="72.805474"/>
     <use style="fill:#b3cde3;stroke:#b3cde3;" x="394.6905" xlink:href="#m4fe8d587d6" y="83.445218"/>
     <use style="fill:#b3cde3;stroke:#b3cde3;" x="394.6905" xlink:href="#m4fe8d587d6" y="66.738182"/>
     <use style="fill:#b3cde3;stroke:#b3cde3;" x="394.6905" xlink:href="#m4fe8d587d6" y="67.449778"/>
     <use style="fill:#b3cde3;stroke:#b3cde3;" x="385.297438" xlink:href="#m4fe8d587d6" y="86.327989"/>
     <use style="fill:#b3cde3;stroke:#b3cde3;" x="394.6905" xlink:href="#m4fe8d587d6" y="71.664615"/>
     <use style="fill:#b3cde3;stroke:#b3cde3;" x="394.6905" xlink:href="#m4fe8d587d6" y="76.745"/>
     <use style="fill:#b3cde3;stroke:#b3cde3;" x="390.2875" xlink:href="#m4fe8d587d6" y="89.954"/>
     <use style="fill:#b3cde3;stroke:#b3cde3;" x="394.6905" xlink:href="#m4fe8d587d6" y="80.6448"/>
     <use style="fill:#b3cde3;stroke:#b3cde3;" x="390.2875" xlink:href="#m4fe8d587d6" y="98.76"/>
     <use style="fill:#b3cde3;stroke:#b3cde3;" x="377.612197" xlink:href="#m4fe8d587d6" y="51.037161"/>
     <use style="fill:#b3cde3;stroke:#b3cde3;" x="389.472127" xlink:href="#m4fe8d587d6" y="58.775994"/>
     <use style="fill:#b3cde3;stroke:#b3cde3;" x="380.115052" xlink:href="#m4fe8d587d6" y="68.568"/>
     <use style="fill:#b3cde3;stroke:#b3cde3;" x="394.6905" xlink:href="#m4fe8d587d6" y="62.321379"/>
     <use style="fill:#b3cde3;stroke:#b3cde3;" x="390.6649" xlink:href="#m4fe8d587d6" y="62.321381"/>
     <use style="fill:#b3cde3;stroke:#b3cde3;" x="394.6905" xlink:href="#m4fe8d587d6" y="83.816485"/>
     <use style="fill:#b3cde3;stroke:#b3cde3;" x="390.6649" xlink:href="#m4fe8d587d6" y="96.330759"/>
     <use style="fill:#b3cde3;stroke:#b3cde3;" x="394.6905" xlink:href="#m4fe8d587d6" y="72.805474"/>
     <use style="fill:#b3cde3;stroke:#b3cde3;" x="394.6905" xlink:href="#m4fe8d587d6" y="65.608"/>
     <use style="fill:#b3cde3;stroke:#b3cde3;" x="394.6905" xlink:href="#m4fe8d587d6" y="73.6"/>
     <use style="fill:#b3cde3;stroke:#b3cde3;" x="390.776722" xlink:href="#m4fe8d587d6" y="53.472"/>
     <use style="fill:#b3cde3;stroke:#b3cde3;" x="394.6905" xlink:href="#m4fe8d587d6" y="72.5936"/>
     <use style="fill:#b3cde3;stroke:#b3cde3;" x="394.6905" xlink:href="#m4fe8d587d6" y="88.086061"/>
     <use style="fill:#b3cde3;stroke:#b3cde3;" x="385.297433" xlink:href="#m4fe8d587d6" y="69.752"/>
     <use style="fill:#b3cde3;stroke:#b3cde3;" x="390.2875" xlink:href="#m4fe8d587d6" y="72.342001"/>
     <use style="fill:#b3cde3;stroke:#b3cde3;" x="390.6649" xlink:href="#m4fe8d587d6" y="76.896828"/>
     <use style="fill:#b3cde3;stroke:#b3cde3;" x="394.6905" xlink:href="#m4fe8d587d6" y="93.728"/>
     <use style="fill:#b3cde3;stroke:#b3cde3;" x="385.884499" xlink:href="#m4fe8d587d6" y="59.132998"/>
     <use style="fill:#b3cde3;stroke:#b3cde3;" x="394.6905" xlink:href="#m4fe8d587d6" y="98.760001"/>
     <use style="fill:#b3cde3;stroke:#b3cde3;" x="389.05466" xlink:href="#m4fe8d587d6" y="78.890052"/>
     <use style="fill:#b3cde3;stroke:#b3cde3;" x="394.6905" xlink:href="#m4fe8d587d6" y="76.745"/>
     <use style="fill:#b3cde3;stroke:#b3cde3;" x="389.832017" xlink:href="#m4fe8d587d6" y="68.568001"/>
     <use style="fill:#b3cde3;stroke:#b3cde3;" x="390.546493" xlink:href="#m4fe8d587d6" y="84.670399"/>
     <use style="fill:#b3cde3;stroke:#b3cde3;" x="389.47213" xlink:href="#m4fe8d587d6" y="85.432001"/>
     <use style="fill:#b3cde3;stroke:#b3cde3;" x="394.6905" xlink:href="#m4fe8d587d6" y="79.191111"/>
     <use style="fill:#b3cde3;stroke:#b3cde3;" x="394.6905" xlink:href="#m4fe8d587d6" y="68.568"/>
     <use style="fill:#b3cde3;stroke:#b3cde3;" x="390.145467" xlink:href="#m4fe8d587d6" y="71.007758"/>
     <use style="fill:#b3cde3;stroke:#b3cde3;" x="394.6905" xlink:href="#m4fe8d587d6" y="72.342001"/>
     <use style="fill:#b3cde3;stroke:#b3cde3;" x="388.564587" xlink:href="#m4fe8d587d6" y="66.113366"/>
     <use style="fill:#b3cde3;stroke:#b3cde3;" x="384.6265" xlink:href="#m4fe8d587d6" y="67.449779"/>
     <use style="fill:#b3cde3;stroke:#b3cde3;" x="394.6905" xlink:href="#m4fe8d587d6" y="83.664001"/>
     <use style="fill:#b3cde3;stroke:#b3cde3;" x="394.6905" xlink:href="#m4fe8d587d6" y="79.546909"/>
     <use style="fill:#b3cde3;stroke:#b3cde3;" x="394.6905" xlink:href="#m4fe8d587d6" y="85.714075"/>
     <use style="fill:#b3cde3;stroke:#b3cde3;" x="389.832017" xlink:href="#m4fe8d587d6" y="64.542401"/>
     <use style="fill:#b3cde3;stroke:#b3cde3;" x="386.4025" xlink:href="#m4fe8d587d6" y="79.973867"/>
     <use style="fill:#b3cde3;stroke:#b3cde3;" x="394.6905" xlink:href="#m4fe8d587d6" y="79.546909"/>
     <use style="fill:#b3cde3;stroke:#b3cde3;" x="389.658499" xlink:href="#m4fe8d587d6" y="63.536"/>
     <use style="fill:#b3cde3;stroke:#b3cde3;" x="390.145468" xlink:href="#m4fe8d587d6" y="79.5469"/>
     <use style="fill:#b3cde3;stroke:#b3cde3;" x="394.6905" xlink:href="#m4fe8d587d6" y="72.342001"/>
     <use style="fill:#b3cde3;stroke:#b3cde3;" x="390.420924" xlink:href="#m4fe8d587d6" y="87.397419"/>
     <use style="fill:#b3cde3;stroke:#b3cde3;" x="394.6905" xlink:href="#m4fe8d587d6" y="78.040001"/>
     <use style="fill:#b3cde3;stroke:#b3cde3;" x="394.6905" xlink:href="#m4fe8d587d6" y="91.344422"/>
     <use style="fill:#b3cde3;stroke:#b3cde3;" x="378.465428" xlink:href="#m4fe8d587d6" y="120.532784"/>
     <use style="fill:#b3cde3;stroke:#b3cde3;" x="387.074498" xlink:href="#m4fe8d587d6" y="80.495728"/>
     <use style="fill:#b3cde3;stroke:#b3cde3;" x="390.776722" xlink:href="#m4fe8d587d6" y="73.6"/>
     <use style="fill:#b3cde3;stroke:#b3cde3;" x="387.0745" xlink:href="#m4fe8d587d6" y="59.622224"/>
     <use style="fill:#b3cde3;stroke:#b3cde3;" x="394.6905" xlink:href="#m4fe8d587d6" y="101.822957"/>
     <use style="fill:#b3cde3;stroke:#b3cde3;" x="385.600435" xlink:href="#m4fe8d587d6" y="58.199031"/>
     <use style="fill:#b3cde3;stroke:#b3cde3;" x="385.600456" xlink:href="#m4fe8d587d6" y="75.277381"/>
     <use style="fill:#b3cde3;stroke:#b3cde3;" x="390.420924" xlink:href="#m4fe8d587d6" y="82.852388"/>
     <use style="fill:#b3cde3;stroke:#b3cde3;" x="384.973534" xlink:href="#m4fe8d587d6" y="60.5168"/>
     <use style="fill:#b3cde3;stroke:#b3cde3;" x="391.168101" xlink:href="#m4fe8d587d6" y="63.535992"/>
     <use style="fill:#b3cde3;stroke:#b3cde3;" x="386.4025" xlink:href="#m4fe8d587d6" y="79.973867"/>
     <use style="fill:#b3cde3;stroke:#b3cde3;" x="386.151348" xlink:href="#m4fe8d587d6" y="69.217291"/>
     <use style="fill:#b3cde3;stroke:#b3cde3;" x="394.6905" xlink:href="#m4fe8d587d6" y="84.670401"/>
     <use style="fill:#b3cde3;stroke:#b3cde3;" x="394.6905" xlink:href="#m4fe8d587d6" y="62.468607"/>
     <use style="fill:#b3cde3;stroke:#b3cde3;" x="389.658501" xlink:href="#m4fe8d587d6" y="71.363559"/>
     <use style="fill:#b3cde3;stroke:#b3cde3;" x="390.2875" xlink:href="#m4fe8d587d6" y="63.536001"/>
     <use style="fill:#b3cde3;stroke:#b3cde3;" x="382.438671" xlink:href="#m4fe8d587d6" y="62.676882"/>
     <use style="fill:#b3cde3;stroke:#b3cde3;" x="390.2875" xlink:href="#m4fe8d587d6" y="94.357"/>
     <use style="fill:#b3cde3;stroke:#b3cde3;" x="374.562499" xlink:href="#m4fe8d587d6" y="67.449778"/>
     <use style="fill:#b3cde3;stroke:#b3cde3;" x="394.6905" xlink:href="#m4fe8d587d6" y="87.39742"/>
     <use style="fill:#b3cde3;stroke:#b3cde3;" x="387.27492" xlink:href="#m4fe8d587d6" y="77.083696"/>
     <use style="fill:#b3cde3;stroke:#b3cde3;" x="391.077782" xlink:href="#m4fe8d587d6" y="56.491193"/>
     <use style="fill:#b3cde3;stroke:#b3cde3;" x="394.6905" xlink:href="#m4fe8d587d6" y="92.7216"/>
     <use style="fill:#b3cde3;stroke:#b3cde3;" x="394.6905" xlink:href="#m4fe8d587d6" y="92.7216"/>
     <use style="fill:#b3cde3;stroke:#b3cde3;" x="390.5465" xlink:href="#m4fe8d587d6" y="61.187734"/>
     <use style="fill:#b3cde3;stroke:#b3cde3;" x="390.5465" xlink:href="#m4fe8d587d6" y="47.098133"/>
     <use style="fill:#b3cde3;stroke:#b3cde3;" x="381.055403" xlink:href="#m4fe8d587d6" y="88.086061"/>
    </g>
   </g>
   <g id="matplotlib.axis_3">
    <g id="xtick_4">
     <g id="line2d_12">
      <g>
       <use style="fill:#ffffff;stroke:#ffffff;stroke-width:0.8;" x="253.7945" xlink:href="#mce511c9512" y="186.82"/>
      </g>
     </g>
     <g id="text_11">
      <!-- −1 -->
      <g style="fill:#ffffff;" transform="translate(247.9945 201.195)scale(0.1 -0.1)">
       <use xlink:href="#Lato-Medium-2212"/>
       <use x="58" xlink:href="#Lato-Medium-31"/>
      </g>
     </g>
    </g>
    <g id="xtick_5">
     <g id="line2d_13">
      <g>
       <use style="fill:#ffffff;stroke:#ffffff;stroke-width:0.8;" x="324.2425" xlink:href="#mce511c9512" y="186.82"/>
      </g>
     </g>
     <g id="text_12">
      <!-- 0 -->
      <g style="fill:#ffffff;" transform="translate(321.3425 201.195)scale(0.1 -0.1)">
       <use xlink:href="#Lato-Medium-30"/>
      </g>
     </g>
    </g>
    <g id="xtick_6">
     <g id="line2d_14">
      <g>
       <use style="fill:#ffffff;stroke:#ffffff;stroke-width:0.8;" x="394.6905" xlink:href="#mce511c9512" y="186.82"/>
      </g>
     </g>
     <g id="text_13">
      <!-- 1 -->
      <g style="fill:#ffffff;" transform="translate(391.7905 201.195)scale(0.1 -0.1)">
       <use xlink:href="#Lato-Medium-31"/>
      </g>
     </g>
    </g>
    <g id="text_14">
     <!-- $\langle X\rangle$ -->
     <g style="fill:#ffffff;" transform="translate(312.4825 218.467188)scale(0.16 -0.16)">
      <use transform="translate(0 0.125)" xlink:href="#DejaVuSans-27e8"/>
      <use transform="translate(39.013672 0.125)" xlink:href="#DejaVuSans-Oblique-58"/>
      <use transform="translate(107.519531 0.125)" xlink:href="#DejaVuSans-27e9"/>
     </g>
    </g>
   </g>
   <g id="matplotlib.axis_4">
    <g id="ytick_4">
     <g id="line2d_15">
      <g>
       <use style="fill:#ffffff;stroke:#ffffff;stroke-width:0.8;" x="236.1825" xlink:href="#mdcfec8830d" y="169.208"/>
      </g>
     </g>
    </g>
    <g id="ytick_5">
     <g id="line2d_16">
      <g>
       <use style="fill:#ffffff;stroke:#ffffff;stroke-width:0.8;" x="236.1825" xlink:href="#mdcfec8830d" y="98.76"/>
      </g>
     </g>
    </g>
    <g id="ytick_6">
     <g id="line2d_17">
      <g>
       <use style="fill:#ffffff;stroke:#ffffff;stroke-width:0.8;" x="236.1825" xlink:href="#mdcfec8830d" y="28.312"/>
      </g>
     </g>
    </g>
   </g>
   <g id="line2d_18">
    <path clip-path="url(#p5ca4a5329c)" d="M 324.2425 28.312 
L 327.69922 28.396858 
L 331.147612 28.651226 
L 334.579368 29.074493 
L 337.986223 29.665639 
L 341.359968 30.423238 
L 344.692475 31.345467 
L 347.975716 32.430104 
L 351.201782 33.674535 
L 354.362901 35.075762 
L 357.451457 36.630411 
L 360.46001 38.334735 
L 363.381312 40.184629 
L 366.208325 42.175636 
L 368.934238 44.30296 
L 371.552485 46.561475 
L 374.056759 48.945741 
L 376.441025 51.450015 
L 378.69954 54.068262 
L 380.826864 56.794175 
L 382.817871 59.621188 
L 384.667765 62.54249 
L 386.372089 65.551043 
L 387.926738 68.639599 
L 389.327965 71.800718 
L 390.572396 75.026784 
L 391.657033 78.310025 
L 392.579262 81.642532 
L 393.336861 85.016277 
L 393.928007 88.423132 
L 394.351274 91.854888 
L 394.605642 95.30328 
L 394.6905 98.76 
L 394.605642 102.21672 
L 394.351274 105.665112 
L 393.928007 109.096868 
L 393.336861 112.503723 
L 392.579262 115.877468 
L 391.657033 119.209975 
L 390.572396 122.493216 
L 389.327965 125.719282 
L 387.926738 128.880401 
L 386.372089 131.968957 
L 384.667765 134.97751 
L 382.817871 137.898812 
L 380.826864 140.725825 
L 378.69954 143.451738 
L 376.441025 146.069985 
L 374.056759 148.574259 
L 371.552485 150.958525 
L 368.934238 153.21704 
L 366.208325 155.344364 
L 363.381312 157.335371 
L 360.46001 159.185265 
L 357.451457 160.889589 
L 354.362901 162.444238 
L 351.201782 163.845465 
L 347.975716 165.089896 
L 344.692475 166.174533 
L 341.359968 167.096762 
L 337.986223 167.854361 
L 334.579368 168.445507 
L 331.147612 168.868774 
L 327.69922 169.123142 
L 324.2425 169.208 
L 320.78578 169.123142 
L 317.337388 168.868774 
L 313.905632 168.445507 
L 310.498777 167.854361 
L 307.125032 167.096762 
L 303.792525 166.174533 
L 300.509284 165.089896 
L 297.283218 163.845465 
L 294.122099 162.444238 
L 291.033543 160.889589 
L 288.02499 159.185265 
L 285.103688 157.335371 
L 282.276675 155.344364 
L 279.550762 153.21704 
L 276.932515 150.958525 
L 274.428241 148.574259 
L 272.043975 146.069985 
L 269.78546 143.451738 
L 267.658136 140.725825 
L 265.667129 137.898812 
L 263.817235 134.97751 
L 262.112911 131.968957 
L 260.558262 128.880401 
L 259.157035 125.719282 
L 257.912604 122.493216 
L 256.827967 119.209975 
L 255.905738 115.877468 
L 255.148139 112.503723 
L 254.556993 109.096868 
L 254.133726 105.665112 
L 253.879358 102.21672 
L 253.7945 98.76 
L 253.879358 95.30328 
L 254.133726 91.854888 
L 254.556993 88.423132 
L 255.148139 85.016277 
L 255.905738 81.642532 
L 256.827967 78.310025 
L 257.912604 75.026784 
L 259.157035 71.800718 
L 260.558262 68.639599 
L 262.112911 65.551043 
L 263.817235 62.54249 
L 265.667129 59.621188 
L 267.658136 56.794175 
L 269.78546 54.068262 
L 272.043975 51.450015 
L 274.428241 48.945741 
L 276.932515 46.561475 
L 279.550762 44.30296 
L 282.276675 42.175636 
L 285.103688 40.184629 
L 288.02499 38.334735 
L 291.033543 36.630411 
L 294.122099 35.075762 
L 297.283218 33.674535 
L 300.509284 32.430104 
L 303.792525 31.345467 
L 307.125032 30.423238 
L 310.498777 29.665639 
L 313.905632 29.074493 
L 317.337388 28.651226 
L 320.78578 28.396858 
L 324.2425 28.312 
L 324.2425 28.312 
" style="fill:none;stroke:#ffffff;stroke-linecap:square;stroke-width:1.5;"/>
   </g>
   <g id="line2d_19">
    <path clip-path="url(#p5ca4a5329c)" d="M 390.14057 73.852871 
" style="fill:none;"/>
    <g clip-path="url(#p5ca4a5329c)">
     <use style="fill:#fbb4ae;stroke:#fbb4ae;" x="390.14057" xlink:href="#m29bbf56833" y="73.852871"/>
    </g>
   </g>
   <g id="line2d_20">
    <path clip-path="url(#p5ca4a5329c)" d="M 388.967764 47.031738 
L 389.792624 47.226378 
L 390.785465 47.708504 
L 391.772556 48.457295 
L 392.744392 49.465541 
L 393.846447 50.956661 
L 394.900566 52.768072 
L 396.028893 55.199818 
L 397.05729 57.977162 
L 397.968161 61.052582 
L 398.83309 64.803036 
L 399.510891 68.78284 
L 399.986891 72.905845 
L 400.250786 77.082799 
L 400.296863 81.223284 
L 400.124125 85.237671 
L 399.736311 89.03906 
L 399.141816 92.545164 
L 398.450174 95.352277 
L 397.617173 97.817969 
L 396.783488 99.662053 
L 395.863379 101.188172 
L 394.868905 102.376325 
L 393.967165 103.113824 
L 393.029035 103.584404 
L 392.063549 103.783535 
L 391.244783 103.740657 
L 390.253422 103.439049 
L 389.261436 102.867391 
L 388.278379 102.031189 
L 387.313717 100.938495 
L 386.223909 99.35368 
L 385.186055 97.454941 
L 384.080962 94.932651 
L 383.08037 92.076119 
L 382.201401 88.934221 
L 381.376575 85.125582 
L 380.7425 81.106371 
L 380.312903 76.963593 
L 380.097084 72.786927 
L 380.099713 68.666784 
L 380.320735 64.692353 
L 380.755364 60.94967 
L 381.394193 57.51975 
L 382.122383 54.793704 
L 382.988586 52.420205 
L 383.848131 50.664679 
L 384.790762 49.23327 
L 385.655526 48.278659 
L 386.563945 47.585222 
L 387.50727 47.159639 
L 388.313493 47.012631 
L 388.967764 47.031738 
L 388.967764 47.031738 
" style="fill:none;stroke:#ffffff;stroke-linecap:square;stroke-width:1.5;"/>
   </g>
   <g id="patch_9">
    <path d="M 236.1825 186.82 
L 236.1825 10.7 
" style="fill:none;stroke:#ffffff;stroke-linecap:square;stroke-linejoin:miter;stroke-width:0.8;"/>
   </g>
   <g id="patch_10">
    <path d="M 412.3025 186.82 
L 412.3025 10.7 
" style="fill:none;stroke:#ffffff;stroke-linecap:square;stroke-linejoin:miter;stroke-width:0.8;"/>
   </g>
   <g id="patch_11">
    <path d="M 236.1825 186.82 
L 412.3025 186.82 
" style="fill:none;stroke:#ffffff;stroke-linecap:square;stroke-linejoin:miter;stroke-width:0.8;"/>
   </g>
   <g id="patch_12">
    <path d="M 236.1825 10.7 
L 412.3025 10.7 
" style="fill:none;stroke:#ffffff;stroke-linecap:square;stroke-linejoin:miter;stroke-width:0.8;"/>
   </g>
   <g id="legend_2">
    <g id="patch_13">
     <path d="M 243.1825 181.82 
L 317.795 181.82 
Q 319.795 181.82 319.795 179.82 
L 319.795 152.660625 
Q 319.795 150.660625 317.795 150.660625 
L 243.1825 150.660625 
Q 241.1825 150.660625 241.1825 152.660625 
L 241.1825 179.82 
Q 241.1825 181.82 243.1825 181.82 
z
" style="opacity:0.75;stroke:#000000;stroke-linejoin:miter;"/>
    </g>
    <g id="line2d_21">
     <path d="M 245.1825 158.535625 
L 265.1825 158.535625 
" style="fill:none;"/>
    </g>
    <g id="line2d_22">
     <g>
      <use style="fill:#fbb4ae;stroke:#fbb4ae;" x="255.1825" xlink:href="#m29bbf56833" y="158.535625"/>
     </g>
    </g>
    <g id="text_15">
     <!-- Truth -->
     <g style="fill:#ffffff;" transform="translate(273.1825 162.035625)scale(0.1 -0.1)">
      <use xlink:href="#Lato-Medium-54"/>
      <use x="59.043762" xlink:href="#Lato-Medium-72"/>
      <use x="95.593765" xlink:href="#Lato-Medium-75"/>
      <use x="151.443771" xlink:href="#Lato-Medium-74"/>
      <use x="187.493774" xlink:href="#Lato-Medium-68"/>
     </g>
    </g>
    <g id="PathCollection_4">
     <g>
      <use style="fill:#b3cde3;stroke:#b3cde3;" x="255.1825" xlink:href="#m4fe8d587d6" y="173.490313"/>
     </g>
    </g>
    <g id="text_16">
     <!-- Estimates -->
     <g style="fill:#ffffff;" transform="translate(273.1825 176.115313)scale(0.1 -0.1)">
      <use xlink:href="#Lato-Medium-45"/>
      <use x="57.700012" xlink:href="#Lato-Medium-73"/>
      <use x="101.100021" xlink:href="#Lato-Medium-74"/>
      <use x="137.150024" xlink:href="#Lato-Medium-69"/>
      <use x="161.350021" xlink:href="#Lato-Medium-6d"/>
      <use x="243.850037" xlink:href="#Lato-Medium-61"/>
      <use x="293.750046" xlink:href="#Lato-Medium-74"/>
      <use x="329.800049" xlink:href="#Lato-Medium-65"/>
      <use x="382.700058" xlink:href="#Lato-Medium-73"/>
     </g>
    </g>
   </g>
  </g>
 </g>
 <defs>
  <clipPath id="p6378778061">
   <rect height="176.12" width="176.12" x="44.2225" y="10.7"/>
  </clipPath>
  <clipPath id="p5ca4a5329c">
   <rect height="176.12" width="176.12" x="236.1825" y="10.7"/>
  </clipPath>
 </defs>
</svg>
