<?xml version="1.0" encoding="utf-8" standalone="no"?>
<!DOCTYPE svg PUBLIC "-//W3C//DTD SVG 1.1//EN"
  "http://www.w3.org/Graphics/SVG/1.1/DTD/svg11.dtd">
<!-- Created with matplotlib (http://matplotlib.org/) -->
<svg height="185pt" version="1.1" viewBox="0 0 356 185" width="356pt" xmlns="http://www.w3.org/2000/svg" xmlns:xlink="http://www.w3.org/1999/xlink">
 <defs>
  <style type="text/css">
*{stroke-linecap:butt;stroke-linejoin:round;}
  </style>
 </defs>
 <g id="figure_1">
  <g id="patch_1">
   <path d="M 0 185.027443 
L 356.2 185.027443 
L 356.2 0 
L 0 0 
z
" style="fill:none;"/>
  </g>
  <g id="axes_1">
   <g id="matplotlib.axis_1"/>
   <g id="matplotlib.axis_2"/>
   <g id="LineCollection_1">
    <path clip-path="url(#p46eca1ea74)" d="M 25.918182 159.109261 
L 147.663636 159.109261 
" style="fill:none;stroke:#b3cde3;stroke-width:1.5;"/>
    <path clip-path="url(#p46eca1ea74)" d="M 25.918182 148.963807 
L 147.663636 148.963807 
" style="fill:none;stroke:#b3cde3;stroke-width:1.5;"/>
    <path clip-path="url(#p46eca1ea74)" d="M 25.918182 138.818352 
L 147.663636 138.818352 
" style="fill:none;stroke:#b3cde3;stroke-width:1.5;"/>
    <path clip-path="url(#p46eca1ea74)" d="M 25.918182 128.672898 
L 147.663636 128.672898 
" style="fill:none;stroke:#b3cde3;stroke-width:1.5;"/>
    <path clip-path="url(#p46eca1ea74)" d="M 25.918182 118.527443 
L 147.663636 118.527443 
" style="fill:none;stroke:#b3cde3;stroke-width:1.5;"/>
    <path clip-path="url(#p46eca1ea74)" d="M 25.918182 108.381989 
L 147.663636 108.381989 
" style="fill:none;stroke:#b3cde3;stroke-width:1.5;"/>
    <path clip-path="url(#p46eca1ea74)" d="M 25.918182 98.236534 
L 147.663636 98.236534 
" style="fill:none;stroke:#b3cde3;stroke-width:1.5;"/>
    <path clip-path="url(#p46eca1ea74)" d="M 25.918182 88.09108 
L 147.663636 88.09108 
" style="fill:none;stroke:#b3cde3;stroke-width:1.5;"/>
    <path clip-path="url(#p46eca1ea74)" d="M 25.918182 77.945625 
L 147.663636 77.945625 
" style="fill:none;stroke:#b3cde3;stroke-width:1.5;"/>
    <path clip-path="url(#p46eca1ea74)" d="M 25.918182 67.80017 
L 147.663636 67.80017 
" style="fill:none;stroke:#b3cde3;stroke-width:1.5;"/>
    <path clip-path="url(#p46eca1ea74)" d="M 25.918182 57.654716 
L 147.663636 57.654716 
" style="fill:none;stroke:#b3cde3;stroke-width:1.5;"/>
    <path clip-path="url(#p46eca1ea74)" d="M 25.918182 47.509261 
L 147.663636 47.509261 
" style="fill:none;stroke:#b3cde3;stroke-width:1.5;"/>
    <path clip-path="url(#p46eca1ea74)" d="M 25.918182 37.363807 
L 147.663636 37.363807 
" style="fill:none;stroke:#b3cde3;stroke-width:1.5;"/>
   </g>
   <g id="LineCollection_2">
    <path clip-path="url(#p46eca1ea74)" d="M 25.918182 159.109261 
L 25.918182 37.363807 
" style="fill:none;stroke:#b3cde3;stroke-width:1.5;"/>
    <path clip-path="url(#p46eca1ea74)" d="M 36.063636 159.109261 
L 36.063636 37.363807 
" style="fill:none;stroke:#b3cde3;stroke-width:1.5;"/>
    <path clip-path="url(#p46eca1ea74)" d="M 46.209091 159.109261 
L 46.209091 37.363807 
" style="fill:none;stroke:#b3cde3;stroke-width:1.5;"/>
    <path clip-path="url(#p46eca1ea74)" d="M 56.354545 159.109261 
L 56.354545 37.363807 
" style="fill:none;stroke:#b3cde3;stroke-width:1.5;"/>
    <path clip-path="url(#p46eca1ea74)" d="M 66.5 159.109261 
L 66.5 37.363807 
" style="fill:none;stroke:#b3cde3;stroke-width:1.5;"/>
    <path clip-path="url(#p46eca1ea74)" d="M 76.645455 159.109261 
L 76.645455 37.363807 
" style="fill:none;stroke:#b3cde3;stroke-width:1.5;"/>
    <path clip-path="url(#p46eca1ea74)" d="M 86.790909 159.109261 
L 86.790909 37.363807 
" style="fill:none;stroke:#b3cde3;stroke-width:1.5;"/>
    <path clip-path="url(#p46eca1ea74)" d="M 96.936364 159.109261 
L 96.936364 37.363807 
" style="fill:none;stroke:#b3cde3;stroke-width:1.5;"/>
    <path clip-path="url(#p46eca1ea74)" d="M 107.081818 159.109261 
L 107.081818 37.363807 
" style="fill:none;stroke:#b3cde3;stroke-width:1.5;"/>
    <path clip-path="url(#p46eca1ea74)" d="M 117.227273 159.109261 
L 117.227273 37.363807 
" style="fill:none;stroke:#b3cde3;stroke-width:1.5;"/>
    <path clip-path="url(#p46eca1ea74)" d="M 127.372727 159.109261 
L 127.372727 37.363807 
" style="fill:none;stroke:#b3cde3;stroke-width:1.5;"/>
    <path clip-path="url(#p46eca1ea74)" d="M 137.518182 159.109261 
L 137.518182 37.363807 
" style="fill:none;stroke:#b3cde3;stroke-width:1.5;"/>
    <path clip-path="url(#p46eca1ea74)" d="M 147.663636 159.109261 
L 147.663636 37.363807 
" style="fill:none;stroke:#b3cde3;stroke-width:1.5;"/>
   </g>
   <g id="line2d_1">
    <path clip-path="url(#p46eca1ea74)" d="M 147.663636 98.236534 
L 147.533303 94.255267 
L 147.142862 90.291049 
L 146.493984 86.360854 
L 145.589448 82.481513 
L 144.433129 78.669637 
L 143.029976 74.94155 
L 141.385999 71.313215 
L 139.508237 67.80017 
L 137.404732 64.417459 
L 135.084491 61.179566 
L 132.557449 58.100356 
L 129.834427 55.193016 
L 126.927087 52.469995 
L 123.847878 49.942953 
L 120.609984 47.622711 
L 117.227273 45.519206 
L 113.714228 43.641444 
L 110.085893 41.997467 
L 106.357806 40.594315 
L 102.54593 39.437995 
L 98.666589 38.533459 
L 94.736394 37.884581 
L 90.772176 37.49414 
L 86.790909 37.363807 
L 82.809642 37.49414 
L 78.845424 37.884581 
L 74.915229 38.533459 
L 71.035888 39.437995 
L 67.224012 40.594315 
L 63.495925 41.997467 
L 59.86759 43.641444 
L 56.354545 45.519206 
L 52.971834 47.622711 
L 49.733941 49.942953 
L 46.654731 52.469995 
L 43.747391 55.193016 
L 41.02437 58.100356 
L 38.497328 61.179566 
L 36.177086 64.417459 
L 34.073581 67.80017 
L 32.195819 71.313215 
L 30.551842 74.94155 
L 29.14869 78.669637 
L 27.99237 82.481513 
L 27.087834 86.360854 
L 26.438956 90.291049 
L 26.048515 94.255267 
L 25.918182 98.236534 
L 26.048515 102.217801 
L 26.438956 106.182019 
L 27.087834 110.112214 
L 27.99237 113.991555 
L 29.14869 117.803431 
L 30.551842 121.531518 
L 32.195819 125.159853 
L 34.073581 128.672898 
L 36.177086 132.055609 
L 38.497328 135.293503 
L 41.02437 138.372712 
L 43.747391 141.280052 
L 46.654731 144.003074 
L 49.733941 146.530116 
L 52.971834 148.850357 
L 56.354545 150.953862 
L 59.86759 152.831624 
L 63.495925 154.475601 
L 67.224012 155.878754 
L 71.035888 157.035073 
L 74.915229 157.939609 
L 78.845424 158.588487 
L 82.809642 158.978928 
L 86.790909 159.109261 
L 90.772176 158.978928 
L 94.736394 158.588487 
L 98.666589 157.939609 
L 102.54593 157.035073 
L 106.357806 155.878754 
L 110.085893 154.475601 
L 113.714228 152.831624 
L 117.227273 150.953862 
L 120.609984 148.850357 
L 123.847878 146.530116 
L 126.927087 144.003074 
L 129.834427 141.280052 
L 132.557449 138.372712 
L 135.084491 135.293503 
L 137.404732 132.055609 
L 139.508237 128.672898 
L 141.385999 125.159853 
L 143.029976 121.531518 
L 144.433129 117.803431 
L 145.589448 113.991555 
L 146.493984 110.112214 
L 147.142862 106.182019 
L 147.533303 102.217801 
L 147.663636 98.236534 
L 147.663636 98.236534 
" style="fill:none;stroke:#ffffff;stroke-linecap:square;stroke-width:2;"/>
   </g>
   <g id="text_1">
    <!-- Hilbert–Schmidt -->
    <defs>
     <path d="M 69.75 0 
L 54.65625 0 
L 54.65625 31.25 
L 22.703125 31.25 
L 22.703125 0 
L 7.59375 0 
L 7.59375 72.546875 
L 22.703125 72.546875 
L 22.703125 41.75 
L 54.65625 41.75 
L 54.65625 72.546875 
L 69.75 72.546875 
z
" id="Lato-Heavy-48"/>
     <path d="M 19.90625 51.546875 
L 19.90625 0 
L 6.09375 0 
L 6.09375 51.546875 
z
M 21.546875 66.203125 
Q 21.546875 64.453125 20.84375 62.953125 
Q 20.15625 61.453125 18.96875 60.296875 
Q 17.796875 59.15625 16.21875 58.5 
Q 14.65625 57.84375 12.84375 57.84375 
Q 11.15625 57.84375 9.625 58.5 
Q 8.09375 59.15625 6.9375 60.296875 
Q 5.796875 61.453125 5.125 62.953125 
Q 4.453125 64.453125 4.453125 66.203125 
Q 4.453125 67.953125 5.125 69.46875 
Q 5.796875 71 6.9375 72.140625 
Q 8.09375 73.296875 9.625 73.9375 
Q 11.15625 74.59375 12.84375 74.59375 
Q 14.65625 74.59375 16.21875 73.9375 
Q 17.796875 73.296875 18.96875 72.140625 
Q 20.15625 71 20.84375 69.46875 
Q 21.546875 67.953125 21.546875 66.203125 
" id="Lato-Heavy-69"/>
     <path d="M 19.59375 74.546875 
L 19.59375 0 
L 5.796875 0 
L 5.796875 74.546875 
z
" id="Lato-Heavy-6c"/>
     <path d="M 5.703125 0 
L 5.703125 74.546875 
L 19.5 74.546875 
L 19.5 45.59375 
Q 22.546875 48.65625 26.21875 50.5 
Q 29.90625 52.34375 34.546875 52.34375 
Q 39 52.34375 42.578125 50.5625 
Q 46.15625 48.796875 48.671875 45.5 
Q 51.203125 42.203125 52.578125 37.515625 
Q 53.953125 32.84375 53.953125 27.046875 
Q 53.953125 20.796875 52.375 15.671875 
Q 50.796875 10.546875 47.890625 6.890625 
Q 45 3.25 40.96875 1.25 
Q 36.953125 -0.75 32 -0.75 
Q 29.59375 -0.75 27.6875 -0.265625 
Q 25.796875 0.203125 24.1875 1.046875 
Q 22.59375 1.90625 21.25 3.078125 
Q 19.90625 4.25 18.703125 5.703125 
L 18.15625 2.59375 
Q 17.796875 1.15625 17 0.578125 
Q 16.203125 0 14.84375 0 
z
M 29.75 41.796875 
Q 26.5 41.796875 24.125 40.34375 
Q 21.75 38.90625 19.5 36.203125 
L 19.5 13.59375 
Q 21.453125 11.34375 23.71875 10.4375 
Q 26 9.546875 28.453125 9.546875 
Q 31 9.546875 33.078125 10.46875 
Q 35.15625 11.40625 36.65625 13.421875 
Q 38.15625 15.453125 38.953125 18.703125 
Q 39.75 21.953125 39.75 26.546875 
Q 39.75 30.65625 39.09375 33.53125 
Q 38.453125 36.40625 37.171875 38.25 
Q 35.90625 40.09375 34.046875 40.9375 
Q 32.203125 41.796875 29.75 41.796875 
" id="Lato-Heavy-62"/>
     <path d="M 28.046875 52.34375 
Q 33 52.34375 37.171875 50.765625 
Q 41.34375 49.203125 44.375 46.203125 
Q 47.40625 43.203125 49.078125 38.828125 
Q 50.75 34.453125 50.75 28.84375 
Q 50.75 27.296875 50.59375 26.296875 
Q 50.453125 25.296875 50.09375 24.6875 
Q 49.75 24.09375 49.140625 23.875 
Q 48.546875 23.65625 47.59375 23.65625 
L 16.65625 23.65625 
Q 17.296875 16.40625 20.765625 13.046875 
Q 24.25 9.703125 29.90625 9.703125 
Q 32.75 9.703125 34.828125 10.375 
Q 36.90625 11.046875 38.46875 11.875 
Q 40.046875 12.703125 41.3125 13.375 
Q 42.59375 14.046875 43.84375 14.046875 
Q 45.453125 14.046875 46.34375 12.84375 
L 50.34375 7.84375 
Q 48.15625 5.296875 45.5 3.625 
Q 42.84375 1.953125 40 0.96875 
Q 37.15625 0 34.25 -0.375 
Q 31.34375 -0.75 28.65625 -0.75 
Q 23.25 -0.75 18.578125 1.015625 
Q 13.90625 2.796875 10.421875 6.265625 
Q 6.953125 9.75 4.953125 14.890625 
Q 2.953125 20.046875 2.953125 26.84375 
Q 2.953125 32.09375 4.671875 36.75 
Q 6.40625 41.40625 9.65625 44.84375 
Q 12.90625 48.296875 17.546875 50.3125 
Q 22.203125 52.34375 28.046875 52.34375 
M 28.296875 42.65625 
Q 23.34375 42.65625 20.546875 39.828125 
Q 17.75 37 16.90625 31.84375 
L 38.40625 31.84375 
Q 38.40625 34 37.828125 35.953125 
Q 37.25 37.90625 36 39.40625 
Q 34.75 40.90625 32.84375 41.78125 
Q 30.953125 42.65625 28.296875 42.65625 
" id="Lato-Heavy-65"/>
     <path d="M 5.703125 0 
L 5.703125 51.546875 
L 13.84375 51.546875 
Q 15.953125 51.546875 16.75 50.796875 
Q 17.546875 50.046875 17.90625 48.203125 
L 18.59375 43.046875 
Q 21.046875 47.453125 24.265625 50 
Q 27.5 52.546875 31.796875 52.546875 
Q 35.296875 52.546875 37.5 50.90625 
L 36.59375 40.703125 
Q 36.34375 39.703125 35.8125 39.328125 
Q 35.296875 38.953125 34.40625 38.953125 
Q 33.59375 38.953125 32.09375 39.171875 
Q 30.59375 39.40625 29.296875 39.40625 
Q 25.5 39.40625 23.265625 37.328125 
Q 21.046875 35.25 19.5 31.546875 
L 19.5 0 
z
" id="Lato-Heavy-72"/>
     <path d="M 23.5 -0.796875 
Q 20 -0.796875 17.296875 0.21875 
Q 14.59375 1.25 12.75 3.140625 
Q 10.90625 5.046875 9.953125 7.75 
Q 9 10.453125 9 13.84375 
L 9 41.65625 
L 4.15625 41.65625 
Q 3.046875 41.65625 2.265625 42.34375 
Q 1.5 43.046875 1.5 44.453125 
L 1.5 49.84375 
L 9.75 51.34375 
L 12.546875 64.703125 
Q 13.09375 66.953125 15.59375 66.953125 
L 22.796875 66.953125 
L 22.796875 51.25 
L 36.09375 51.25 
L 36.09375 41.65625 
L 22.796875 41.65625 
L 22.796875 14.75 
Q 22.796875 12.59375 23.8125 11.34375 
Q 24.84375 10.09375 26.75 10.09375 
Q 27.75 10.09375 28.453125 10.3125 
Q 29.15625 10.546875 29.65625 10.8125 
Q 30.15625 11.09375 30.578125 11.3125 
Q 31 11.546875 31.453125 11.546875 
Q 32.046875 11.546875 32.4375 11.265625 
Q 32.84375 11 33.25 10.34375 
L 37.40625 3.75 
Q 34.546875 1.5 30.9375 0.34375 
Q 27.34375 -0.796875 23.5 -0.796875 
" id="Lato-Heavy-74"/>
     <path d="M 8.65625 34.953125 
L 49.34375 34.953125 
L 49.34375 25.34375 
L 8.65625 25.34375 
z
" id="Lato-Heavy-2013"/>
     <path d="M 46.90625 58.65625 
Q 46.203125 57.5 45.46875 56.96875 
Q 44.75 56.453125 43.59375 56.453125 
Q 42.5 56.453125 41.21875 57.21875 
Q 39.953125 58 38.25 58.890625 
Q 36.546875 59.796875 34.34375 60.5625 
Q 32.15625 61.34375 29.203125 61.34375 
Q 24 61.34375 21.390625 59.015625 
Q 18.796875 56.703125 18.796875 52.953125 
Q 18.796875 50.546875 20.21875 48.96875 
Q 21.65625 47.40625 23.96875 46.25 
Q 26.296875 45.09375 29.25 44.1875 
Q 32.203125 43.296875 35.296875 42.21875 
Q 38.40625 41.15625 41.34375 39.703125 
Q 44.296875 38.25 46.625 36.046875 
Q 48.953125 33.84375 50.375 30.671875 
Q 51.796875 27.5 51.796875 22.953125 
Q 51.796875 18 50.0625 13.671875 
Q 48.34375 9.34375 45.09375 6.125 
Q 41.84375 2.90625 37.0625 1.046875 
Q 32.296875 -0.796875 26.25 -0.796875 
Q 22.796875 -0.796875 19.375 -0.09375 
Q 15.953125 0.59375 12.765625 1.84375 
Q 9.59375 3.09375 6.796875 4.84375 
Q 4 6.59375 1.90625 8.75 
L 6.296875 15.84375 
Q 6.84375 16.65625 7.75 17.171875 
Q 8.65625 17.703125 9.65625 17.703125 
Q 11 17.703125 12.5 16.703125 
Q 14 15.703125 15.953125 14.5 
Q 17.90625 13.296875 20.46875 12.296875 
Q 23.046875 11.296875 26.65625 11.296875 
Q 31.90625 11.296875 34.78125 13.6875 
Q 37.65625 16.09375 37.65625 20.84375 
Q 37.65625 23.59375 36.21875 25.296875 
Q 34.796875 27 32.5 28.140625 
Q 30.203125 29.296875 27.25 30.125 
Q 24.296875 30.953125 21.1875 31.953125 
Q 18.09375 32.953125 15.140625 34.34375 
Q 12.203125 35.75 9.890625 38.046875 
Q 7.59375 40.34375 6.171875 43.75 
Q 4.75 47.15625 4.75 52.203125 
Q 4.75 56.25 6.34375 60.046875 
Q 7.953125 63.84375 11.046875 66.796875 
Q 14.15625 69.75 18.671875 71.546875 
Q 23.203125 73.34375 29.046875 73.34375 
Q 35.59375 73.34375 41.171875 71.3125 
Q 46.75 69.296875 50.59375 65.703125 
z
" id="Lato-Heavy-53"/>
     <path d="M 43.09375 40.046875 
Q 42.5 39.25 41.890625 38.828125 
Q 41.296875 38.40625 40.203125 38.40625 
Q 39.203125 38.40625 38.265625 38.96875 
Q 37.34375 39.546875 36.140625 40.21875 
Q 34.953125 40.90625 33.296875 41.46875 
Q 31.65625 42.046875 29.203125 42.046875 
Q 26.09375 42.046875 23.8125 40.921875 
Q 21.546875 39.796875 20.046875 37.6875 
Q 18.546875 35.59375 17.8125 32.59375 
Q 17.09375 29.59375 17.09375 25.84375 
Q 17.09375 17.953125 20.265625 13.75 
Q 23.453125 9.546875 28.953125 9.546875 
Q 30.84375 9.546875 32.21875 9.875 
Q 33.59375 10.203125 34.625 10.703125 
Q 35.65625 11.203125 36.40625 11.796875 
Q 37.15625 12.40625 37.828125 12.90625 
Q 38.5 13.40625 39.171875 13.71875 
Q 39.84375 14.046875 40.703125 14.046875 
Q 42.296875 14.046875 43.203125 12.84375 
L 47.15625 7.84375 
Q 44.953125 5.296875 42.453125 3.625 
Q 39.953125 1.953125 37.265625 0.96875 
Q 34.59375 0 31.84375 -0.375 
Q 29.09375 -0.75 26.40625 -0.75 
Q 21.65625 -0.75 17.40625 1.015625 
Q 13.15625 2.796875 9.953125 6.1875 
Q 6.75 9.59375 4.875 14.546875 
Q 3 19.5 3 25.84375 
Q 3 31.5 4.640625 36.34375 
Q 6.296875 41.203125 9.5 44.75 
Q 12.703125 48.296875 17.421875 50.3125 
Q 22.15625 52.34375 28.34375 52.34375 
Q 34.25 52.34375 38.703125 50.4375 
Q 43.15625 48.546875 46.703125 44.953125 
z
" id="Lato-Heavy-63"/>
     <path d="M 5.703125 0 
L 5.703125 74.546875 
L 19.5 74.546875 
L 19.5 46.453125 
Q 22.40625 49.09375 25.84375 50.71875 
Q 29.296875 52.34375 34.046875 52.34375 
Q 38.25 52.34375 41.5 50.890625 
Q 44.75 49.453125 46.96875 46.84375 
Q 49.203125 44.25 50.328125 40.640625 
Q 51.453125 37.046875 51.453125 32.75 
L 51.453125 0 
L 37.703125 0 
L 37.703125 32.75 
Q 37.703125 37.046875 35.703125 39.421875 
Q 33.703125 41.796875 29.796875 41.796875 
Q 26.84375 41.796875 24.3125 40.515625 
Q 21.796875 39.25 19.5 37.046875 
L 19.5 0 
z
" id="Lato-Heavy-68"/>
     <path d="M 5.703125 0 
L 5.703125 51.546875 
L 14.203125 51.546875 
Q 16.796875 51.546875 17.65625 49.15625 
L 18.453125 45.796875 
Q 19.796875 47.203125 21.21875 48.390625 
Q 22.65625 49.59375 24.296875 50.46875 
Q 25.953125 51.34375 27.875 51.84375 
Q 29.796875 52.34375 32.046875 52.34375 
Q 36.796875 52.34375 39.890625 49.8125 
Q 43 47.296875 44.59375 43.09375 
Q 45.84375 45.546875 47.671875 47.3125 
Q 49.5 49.09375 51.671875 50.1875 
Q 53.84375 51.296875 56.265625 51.8125 
Q 58.703125 52.34375 61.15625 52.34375 
Q 65.5 52.34375 68.84375 51.046875 
Q 72.203125 49.75 74.46875 47.21875 
Q 76.75 44.703125 77.953125 41.046875 
Q 79.15625 37.40625 79.15625 32.75 
L 79.15625 0 
L 65.34375 0 
L 65.34375 32.75 
Q 65.34375 41.796875 57.59375 41.796875 
Q 55.84375 41.796875 54.375 41.21875 
Q 52.90625 40.65625 51.78125 39.5 
Q 50.65625 38.34375 50.03125 36.640625 
Q 49.40625 34.953125 49.40625 32.75 
L 49.40625 0 
L 35.59375 0 
L 35.59375 32.75 
Q 35.59375 37.65625 33.671875 39.71875 
Q 31.75 41.796875 28 41.796875 
Q 25.59375 41.796875 23.46875 40.671875 
Q 21.34375 39.546875 19.5 37.546875 
L 19.5 0 
z
" id="Lato-Heavy-6d"/>
     <path d="M 42.84375 0 
Q 40.203125 0 39.453125 2.40625 
L 38.296875 6.90625 
Q 35.203125 3.5 31.265625 1.375 
Q 27.34375 -0.75 22 -0.75 
Q 17.84375 -0.75 14.390625 1 
Q 10.953125 2.75 8.421875 6.125 
Q 5.90625 9.5 4.5 14.390625 
Q 3.09375 19.296875 3.09375 25.59375 
Q 3.09375 31.34375 4.671875 36.296875 
Q 6.25 41.25 9.140625 44.84375 
Q 12.046875 48.453125 16.140625 50.5 
Q 20.25 52.546875 25.25 52.546875 
Q 29.453125 52.546875 32.328125 51.296875 
Q 35.203125 50.046875 37.546875 47.90625 
L 37.546875 74.546875 
L 51.34375 74.546875 
L 51.34375 0 
z
M 26.75 9.953125 
Q 30.40625 9.953125 32.875 11.375 
Q 35.34375 12.796875 37.546875 15.5 
L 37.546875 38.15625 
Q 35.59375 40.40625 33.3125 41.296875 
Q 31.046875 42.203125 28.5 42.203125 
Q 26 42.203125 23.953125 41.25 
Q 21.90625 40.296875 20.421875 38.265625 
Q 18.953125 36.25 18.140625 33.09375 
Q 17.34375 29.953125 17.34375 25.59375 
Q 17.34375 21.296875 18 18.296875 
Q 18.65625 15.296875 19.875 13.4375 
Q 21.09375 11.59375 22.84375 10.765625 
Q 24.59375 9.953125 26.75 9.953125 
" id="Lato-Heavy-64"/>
    </defs>
    <g style="fill:#ffffff;" transform="translate(42.494034 16.145625)scale(0.12 -0.12)">
     <use xlink:href="#Lato-Heavy-48"/>
     <use x="77.350006" xlink:href="#Lato-Heavy-69"/>
     <use x="103.350006" xlink:href="#Lato-Heavy-6c"/>
     <use x="128.75" xlink:href="#Lato-Heavy-62"/>
     <use x="185.850006" xlink:href="#Lato-Heavy-65"/>
     <use x="239.450012" xlink:href="#Lato-Heavy-72"/>
     <use x="277.150009" xlink:href="#Lato-Heavy-74"/>
     <use x="314.900009" xlink:href="#Lato-Heavy-2013"/>
     <use x="372.900009" xlink:href="#Lato-Heavy-53"/>
     <use x="428.000015" xlink:href="#Lato-Heavy-63"/>
     <use x="476.400024" xlink:href="#Lato-Heavy-68"/>
     <use x="533.100037" xlink:href="#Lato-Heavy-6d"/>
     <use x="617.450043" xlink:href="#Lato-Heavy-69"/>
     <use x="643.450043" xlink:href="#Lato-Heavy-64"/>
     <use x="700.550049" xlink:href="#Lato-Heavy-74"/>
    </g>
   </g>
  </g>
  <g id="axes_2">
   <g id="matplotlib.axis_3"/>
   <g id="matplotlib.axis_4"/>
   <g id="LineCollection_3">
    <path clip-path="url(#p81a6b5b000)" d="M 201.796491 165.849134 
L 337.021691 165.849134 
" style="fill:none;stroke:#b3cde3;stroke-width:1.5;"/>
    <path clip-path="url(#p81a6b5b000)" d="M 201.796491 140.639168 
L 337.021691 140.639168 
" style="fill:none;stroke:#b3cde3;stroke-width:1.5;"/>
    <path clip-path="url(#p81a6b5b000)" d="M 201.796491 129.64658 
L 337.021691 129.64658 
" style="fill:none;stroke:#b3cde3;stroke-width:1.5;"/>
    <path clip-path="url(#p81a6b5b000)" d="M 201.796491 120.774068 
L 337.021691 120.774068 
" style="fill:none;stroke:#b3cde3;stroke-width:1.5;"/>
    <path clip-path="url(#p81a6b5b000)" d="M 201.796491 112.86431 
L 337.021691 112.86431 
" style="fill:none;stroke:#b3cde3;stroke-width:1.5;"/>
    <path clip-path="url(#p81a6b5b000)" d="M 201.796491 105.444089 
L 337.021691 105.444089 
" style="fill:none;stroke:#b3cde3;stroke-width:1.5;"/>
    <path clip-path="url(#p81a6b5b000)" d="M 201.796491 98.236534 
L 337.021691 98.236534 
" style="fill:none;stroke:#b3cde3;stroke-width:1.5;"/>
    <path clip-path="url(#p81a6b5b000)" d="M 201.796491 91.02898 
L 337.021691 91.02898 
" style="fill:none;stroke:#b3cde3;stroke-width:1.5;"/>
    <path clip-path="url(#p81a6b5b000)" d="M 201.796491 83.608758 
L 337.021691 83.608758 
" style="fill:none;stroke:#b3cde3;stroke-width:1.5;"/>
    <path clip-path="url(#p81a6b5b000)" d="M 201.796491 75.699001 
L 337.021691 75.699001 
" style="fill:none;stroke:#b3cde3;stroke-width:1.5;"/>
    <path clip-path="url(#p81a6b5b000)" d="M 201.796491 66.826488 
L 337.021691 66.826488 
" style="fill:none;stroke:#b3cde3;stroke-width:1.5;"/>
    <path clip-path="url(#p81a6b5b000)" d="M 201.796491 55.8339 
L 337.021691 55.8339 
" style="fill:none;stroke:#b3cde3;stroke-width:1.5;"/>
    <path clip-path="url(#p81a6b5b000)" d="M 201.796491 30.623934 
L 337.021691 30.623934 
" style="fill:none;stroke:#b3cde3;stroke-width:1.5;"/>
   </g>
   <g id="LineCollection_4">
    <path clip-path="url(#p81a6b5b000)" d="M 201.796491 165.849134 
L 201.796491 30.623934 
" style="fill:none;stroke:#b3cde3;stroke-width:1.5;"/>
    <path clip-path="url(#p81a6b5b000)" d="M 227.006457 165.849134 
L 227.006457 30.623934 
" style="fill:none;stroke:#b3cde3;stroke-width:1.5;"/>
    <path clip-path="url(#p81a6b5b000)" d="M 237.999045 165.849134 
L 237.999045 30.623934 
" style="fill:none;stroke:#b3cde3;stroke-width:1.5;"/>
    <path clip-path="url(#p81a6b5b000)" d="M 246.871557 165.849134 
L 246.871557 30.623934 
" style="fill:none;stroke:#b3cde3;stroke-width:1.5;"/>
    <path clip-path="url(#p81a6b5b000)" d="M 254.781315 165.849134 
L 254.781315 30.623934 
" style="fill:none;stroke:#b3cde3;stroke-width:1.5;"/>
    <path clip-path="url(#p81a6b5b000)" d="M 262.201536 165.849134 
L 262.201536 30.623934 
" style="fill:none;stroke:#b3cde3;stroke-width:1.5;"/>
    <path clip-path="url(#p81a6b5b000)" d="M 269.409091 165.849134 
L 269.409091 30.623934 
" style="fill:none;stroke:#b3cde3;stroke-width:1.5;"/>
    <path clip-path="url(#p81a6b5b000)" d="M 276.616645 165.849134 
L 276.616645 30.623934 
" style="fill:none;stroke:#b3cde3;stroke-width:1.5;"/>
    <path clip-path="url(#p81a6b5b000)" d="M 284.036867 165.849134 
L 284.036867 30.623934 
" style="fill:none;stroke:#b3cde3;stroke-width:1.5;"/>
    <path clip-path="url(#p81a6b5b000)" d="M 291.946624 165.849134 
L 291.946624 30.623934 
" style="fill:none;stroke:#b3cde3;stroke-width:1.5;"/>
    <path clip-path="url(#p81a6b5b000)" d="M 300.819137 165.849134 
L 300.819137 30.623934 
" style="fill:none;stroke:#b3cde3;stroke-width:1.5;"/>
    <path clip-path="url(#p81a6b5b000)" d="M 311.811725 165.849134 
L 311.811725 30.623934 
" style="fill:none;stroke:#b3cde3;stroke-width:1.5;"/>
    <path clip-path="url(#p81a6b5b000)" d="M 337.021691 165.849134 
L 337.021691 30.623934 
" style="fill:none;stroke:#b3cde3;stroke-width:1.5;"/>
   </g>
   <g id="line2d_2">
    <path clip-path="url(#p81a6b5b000)" d="M 337.021691 98.236534 
L 269.409091 30.623934 
L 201.796491 98.236534 
L 269.409091 165.849134 
L 337.021691 98.236534 
L 337.021691 98.236534 
" style="fill:none;stroke:#ffffff;stroke-linecap:square;stroke-width:2;"/>
   </g>
   <g id="text_2">
    <!-- Classical Fisher -->
    <defs>
     <path d="M 57 17.84375 
Q 58.25 17.84375 59.09375 16.953125 
L 65.046875 10.59375 
Q 60.65625 5 54.125 2.09375 
Q 47.59375 -0.796875 38.59375 -0.796875 
Q 30.453125 -0.796875 23.953125 1.96875 
Q 17.453125 4.75 12.890625 9.703125 
Q 8.34375 14.65625 5.890625 21.453125 
Q 3.453125 28.25 3.453125 36.296875 
Q 3.453125 41.703125 4.625 46.578125 
Q 5.796875 51.453125 8.046875 55.546875 
Q 10.296875 59.65625 13.46875 62.953125 
Q 16.65625 66.25 20.65625 68.578125 
Q 24.65625 70.90625 29.375 72.125 
Q 34.09375 73.34375 39.453125 73.34375 
Q 43.453125 73.34375 47.015625 72.640625 
Q 50.59375 71.953125 53.6875 70.703125 
Q 56.796875 69.453125 59.421875 67.671875 
Q 62.046875 65.90625 64.15625 63.796875 
L 59.09375 56.90625 
Q 58.65625 56.25 57.953125 55.75 
Q 57.25 55.25 56.046875 55.25 
Q 54.84375 55.25 53.625 56.09375 
Q 52.40625 56.953125 50.625 58 
Q 48.84375 59.046875 46.171875 59.890625 
Q 43.5 60.75 39.40625 60.75 
Q 34.84375 60.75 31.046875 59.09375 
Q 27.25 57.453125 24.515625 54.328125 
Q 21.796875 51.203125 20.296875 46.640625 
Q 18.796875 42.09375 18.796875 36.296875 
Q 18.796875 30.453125 20.421875 25.875 
Q 22.046875 21.296875 24.875 18.140625 
Q 27.703125 15 31.46875 13.375 
Q 35.25 11.75 39.546875 11.75 
Q 42.09375 11.75 44.171875 12 
Q 46.25 12.25 48.015625 12.84375 
Q 49.796875 13.453125 51.375 14.390625 
Q 52.953125 15.34375 54.546875 16.796875 
Q 55.09375 17.25 55.6875 17.546875 
Q 56.296875 17.84375 57 17.84375 
" id="Lato-Heavy-43"/>
     <path d="M 39.796875 0 
Q 37.84375 0 36.8125 0.546875 
Q 35.796875 1.09375 35.15625 2.84375 
L 34.046875 6.09375 
Q 32.09375 4.40625 30.265625 3.125 
Q 28.453125 1.84375 26.46875 0.96875 
Q 24.5 0.09375 22.265625 -0.34375 
Q 20.046875 -0.796875 17.34375 -0.796875 
Q 13.953125 -0.796875 11.140625 0.09375 
Q 8.34375 1 6.3125 2.765625 
Q 4.296875 4.546875 3.1875 7.1875 
Q 2.09375 9.84375 2.09375 13.296875 
Q 2.09375 16.15625 3.546875 18.96875 
Q 5 21.796875 8.515625 24.125 
Q 12.046875 26.453125 17.921875 28 
Q 23.796875 29.546875 32.65625 29.75 
L 32.65625 32.40625 
Q 32.65625 37.25 30.59375 39.515625 
Q 28.546875 41.796875 24.703125 41.796875 
Q 21.84375 41.796875 19.9375 41.125 
Q 18.046875 40.453125 16.625 39.671875 
Q 15.203125 38.90625 13.953125 38.21875 
Q 12.703125 37.546875 11.046875 37.546875 
Q 9.59375 37.546875 8.625 38.265625 
Q 7.65625 39 7 40 
L 4.546875 44.40625 
Q 9.09375 48.5 14.59375 50.515625 
Q 20.09375 52.546875 26.5 52.546875 
Q 31.09375 52.546875 34.71875 51.046875 
Q 38.34375 49.546875 40.875 46.875 
Q 43.40625 44.203125 44.75 40.5 
Q 46.09375 36.796875 46.09375 32.40625 
L 46.09375 0 
z
M 21.65625 8.5 
Q 25.046875 8.5 27.59375 9.71875 
Q 30.15625 10.953125 32.65625 13.5 
L 32.65625 21.5 
Q 27.59375 21.296875 24.25 20.640625 
Q 20.90625 20 18.921875 19.015625 
Q 16.953125 18.046875 16.125 16.765625 
Q 15.296875 15.5 15.296875 14 
Q 15.296875 11 16.96875 9.75 
Q 18.65625 8.5 21.65625 8.5 
" id="Lato-Heavy-61"/>
     <path d="M 37.75 40.953125 
Q 37.203125 40.09375 36.625 39.71875 
Q 36.046875 39.34375 35.046875 39.34375 
Q 34.046875 39.34375 33 39.84375 
Q 31.953125 40.34375 30.640625 40.921875 
Q 29.34375 41.5 27.671875 42 
Q 26 42.5 23.796875 42.5 
Q 20.453125 42.5 18.59375 41.125 
Q 16.75 39.75 16.75 37.5 
Q 16.75 35.953125 17.796875 34.890625 
Q 18.84375 33.84375 20.5625 33.0625 
Q 22.296875 32.296875 24.5 31.625 
Q 26.703125 30.953125 29.015625 30.140625 
Q 31.34375 29.34375 33.546875 28.296875 
Q 35.75 27.25 37.46875 25.671875 
Q 39.203125 24.09375 40.25 21.875 
Q 41.296875 19.65625 41.296875 16.5 
Q 41.296875 12.75 39.921875 9.578125 
Q 38.546875 6.40625 35.890625 4.09375 
Q 33.25 1.796875 29.296875 0.5 
Q 25.34375 -0.796875 20.203125 -0.796875 
Q 17.546875 -0.796875 14.9375 -0.3125 
Q 12.34375 0.15625 10 1.03125 
Q 7.65625 1.90625 5.59375 3.046875 
Q 3.546875 4.203125 2.046875 5.546875 
L 5.25 10.703125 
Q 5.796875 11.59375 6.625 12.09375 
Q 7.453125 12.59375 8.75 12.59375 
Q 10 12.59375 11.046875 11.96875 
Q 12.09375 11.34375 13.390625 10.625 
Q 14.703125 9.90625 16.46875 9.28125 
Q 18.25 8.65625 20.90625 8.65625 
Q 22.90625 8.65625 24.34375 9.09375 
Q 25.796875 9.546875 26.6875 10.3125 
Q 27.59375 11.09375 28.015625 12.0625 
Q 28.453125 13.046875 28.453125 14.09375 
Q 28.453125 15.796875 27.375 16.875 
Q 26.296875 17.953125 24.5625 18.75 
Q 22.84375 19.546875 20.59375 20.1875 
Q 18.34375 20.84375 16.015625 21.640625 
Q 13.703125 22.453125 11.46875 23.546875 
Q 9.25 24.65625 7.515625 26.328125 
Q 5.796875 28 4.71875 30.453125 
Q 3.65625 32.90625 3.65625 36.40625 
Q 3.65625 39.59375 4.90625 42.46875 
Q 6.15625 45.34375 8.65625 47.546875 
Q 11.15625 49.75 14.875 51.046875 
Q 18.59375 52.34375 23.5 52.34375 
Q 29 52.34375 33.5 50.546875 
Q 38 48.75 40.90625 45.84375 
z
" id="Lato-Heavy-73"/>
     <path id="Lato-Heavy-20"/>
     <path d="M 53.796875 72.546875 
L 53.796875 60.796875 
L 22.703125 60.796875 
L 22.703125 40.75 
L 48.796875 40.75 
L 48.796875 28.953125 
L 22.703125 28.953125 
L 22.703125 0 
L 7.59375 0 
L 7.59375 72.546875 
z
" id="Lato-Heavy-46"/>
    </defs>
    <g style="fill:#ffffff;" transform="translate(228.571591 16.145625)scale(0.12 -0.12)">
     <use xlink:href="#Lato-Heavy-43"/>
     <use x="65.900009" xlink:href="#Lato-Heavy-6c"/>
     <use x="91.300003" xlink:href="#Lato-Heavy-61"/>
     <use x="142.500015" xlink:href="#Lato-Heavy-73"/>
     <use x="186.750015" xlink:href="#Lato-Heavy-73"/>
     <use x="231.000015" xlink:href="#Lato-Heavy-69"/>
     <use x="257.000015" xlink:href="#Lato-Heavy-63"/>
     <use x="305.400024" xlink:href="#Lato-Heavy-61"/>
     <use x="356.600037" xlink:href="#Lato-Heavy-6c"/>
     <use x="382.000031" xlink:href="#Lato-Heavy-20"/>
     <use x="405.750031" xlink:href="#Lato-Heavy-46"/>
     <use x="462.350037" xlink:href="#Lato-Heavy-69"/>
     <use x="488.350037" xlink:href="#Lato-Heavy-73"/>
     <use x="532.600037" xlink:href="#Lato-Heavy-68"/>
     <use x="589.300049" xlink:href="#Lato-Heavy-65"/>
     <use x="642.900055" xlink:href="#Lato-Heavy-72"/>
    </g>
   </g>
  </g>
 </g>
 <defs>
  <clipPath id="p46eca1ea74">
   <rect height="152.181818" width="152.181818" x="10.7" y="22.145625"/>
  </clipPath>
  <clipPath id="p81a6b5b000">
   <rect height="152.181818" width="152.181818" x="193.318182" y="22.145625"/>
  </clipPath>
 </defs>
</svg>
