<?xml version="1.0" encoding="utf-8" standalone="no"?>
<!DOCTYPE svg PUBLIC "-//W3C//DTD SVG 1.1//EN"
  "http://www.w3.org/Graphics/SVG/1.1/DTD/svg11.dtd">
<!-- Created with matplotlib (http://matplotlib.org/) -->
<svg height="270pt" version="1.1" viewBox="0 0 401 270" width="401pt" xmlns="http://www.w3.org/2000/svg" xmlns:xlink="http://www.w3.org/1999/xlink">
 <defs>
  <style type="text/css">
*{stroke-linecap:butt;stroke-linejoin:round;}
  </style>
 </defs>
 <g id="figure_1">
  <g id="patch_1">
   <path d="M 0 270.139844 
L 401.9125 270.139844 
L 401.9125 0 
L 0 0 
z
" style="fill:none;"/>
  </g>
  <g id="axes_1">
   <g id="patch_2">
    <path d="M 56.4125 228.437656 
L 391.2125 228.437656 
L 391.2125 10.997656 
L 56.4125 10.997656 
z
" style="fill:none;"/>
   </g>
   <g id="PathCollection_1">
    <defs>
     <path d="M 0 3 
C 0.795609 3 1.55874 2.683901 2.12132 2.12132 
C 2.683901 1.55874 3 0.795609 3 0 
C 3 -0.795609 2.683901 -1.55874 2.12132 -2.12132 
C 1.55874 -2.683901 0.795609 -3 0 -3 
C -0.795609 -3 -1.55874 -2.683901 -2.12132 -2.12132 
C -2.683901 -1.55874 -3 -0.795609 -3 0 
C -3 0.795609 -2.683901 1.55874 -2.12132 2.12132 
C -1.55874 2.683901 -0.795609 3 0 3 
z
" id="m39b9050aa0" style="stroke:#fbb4ae;"/>
    </defs>
    <g clip-path="url(#p9218e5210c)">
     <use style="fill:#fbb4ae;stroke:#fbb4ae;" x="72.282424" xlink:href="#m39b9050aa0" y="19.179652"/>
     <use style="fill:#fbb4ae;stroke:#fbb4ae;" x="173.302475" xlink:href="#m39b9050aa0" y="52.85726"/>
     <use style="fill:#fbb4ae;stroke:#fbb4ae;" x="274.322525" xlink:href="#m39b9050aa0" y="119.193836"/>
     <use style="fill:#fbb4ae;stroke:#fbb4ae;" x="375.342576" xlink:href="#m39b9050aa0" y="222.575764"/>
    </g>
   </g>
   <g id="matplotlib.axis_1">
    <g id="xtick_1">
     <g id="line2d_1">
      <defs>
       <path d="M 0 0 
L 0 3.5 
" id="mfb9a857f35" style="stroke:#ffffff;stroke-width:0.8;"/>
      </defs>
      <g>
       <use style="fill:#ffffff;stroke:#ffffff;stroke-width:0.8;" x="72.282424" xlink:href="#mfb9a857f35" y="228.437656"/>
      </g>
     </g>
     <g id="text_1">
      <!-- 2 -->
      <defs>
       <path d="M 29.59375 72.546875 
Q 34.25 72.546875 38.203125 71.171875 
Q 42.15625 69.796875 45.046875 67.21875 
Q 47.953125 64.65625 49.59375 60.921875 
Q 51.25 57.203125 51.25 52.5 
Q 51.25 48.5 50.078125 45.078125 
Q 48.90625 41.65625 46.875 38.546875 
Q 44.84375 35.453125 42.171875 32.5 
Q 39.5 29.546875 36.5 26.546875 
L 18.046875 7.75 
Q 20.09375 8.296875 22.1875 8.640625 
Q 24.296875 9 26.203125 9 
L 49.296875 9 
Q 50.84375 9 51.75 8.09375 
Q 52.65625 7.203125 52.65625 5.75 
L 52.65625 0 
L 4.546875 0 
L 4.546875 3.25 
Q 4.546875 4.25 4.96875 5.328125 
Q 5.40625 6.40625 6.296875 7.25 
L 29.046875 30.15625 
Q 31.90625 33.046875 34.203125 35.6875 
Q 36.5 38.34375 38.140625 41 
Q 39.796875 43.65625 40.671875 46.375 
Q 41.546875 49.09375 41.546875 52.203125 
Q 41.546875 55.25 40.59375 57.546875 
Q 39.65625 59.84375 37.96875 61.390625 
Q 36.296875 62.953125 34 63.703125 
Q 31.703125 64.453125 29.046875 64.453125 
Q 26.40625 64.453125 24.203125 63.671875 
Q 22 62.90625 20.265625 61.53125 
Q 18.546875 60.15625 17.375 58.28125 
Q 16.203125 56.40625 15.703125 54.15625 
Q 15.046875 52.296875 13.96875 51.671875 
Q 12.90625 51.046875 10.953125 51.34375 
L 5.953125 52.25 
Q 6.703125 57.203125 8.71875 61 
Q 10.75 64.796875 13.84375 67.375 
Q 16.953125 69.953125 20.953125 71.25 
Q 24.953125 72.546875 29.59375 72.546875 
" id="Lato-Medium-32"/>
      </defs>
      <g style="fill:#ffffff;" transform="translate(69.382424 242.812656)scale(0.1 -0.1)">
       <use xlink:href="#Lato-Medium-32"/>
      </g>
     </g>
    </g>
    <g id="xtick_2">
     <g id="line2d_2">
      <g>
       <use style="fill:#ffffff;stroke:#ffffff;stroke-width:0.8;" x="173.302475" xlink:href="#mfb9a857f35" y="228.437656"/>
      </g>
     </g>
     <g id="text_2">
      <!-- 3 -->
      <defs>
       <path d="M 29.953125 72.546875 
Q 34.59375 72.546875 38.4375 71.21875 
Q 42.296875 69.90625 45.0625 67.46875 
Q 47.84375 65.046875 49.390625 61.671875 
Q 50.953125 58.296875 50.953125 54.203125 
Q 50.953125 50.75 50.09375 48.078125 
Q 49.25 45.40625 47.640625 43.40625 
Q 46.046875 41.40625 43.765625 40.03125 
Q 41.5 38.65625 38.65625 37.75 
Q 45.59375 35.84375 49.0625 31.546875 
Q 52.546875 27.25 52.546875 20.703125 
Q 52.546875 15.65625 50.640625 11.671875 
Q 48.75 7.703125 45.5 4.921875 
Q 42.25 2.15625 37.875 0.671875 
Q 33.5 -0.796875 28.546875 -0.796875 
Q 22.90625 -0.796875 18.84375 0.59375 
Q 14.796875 2 11.9375 4.46875 
Q 9.09375 6.953125 7.25 10.390625 
Q 5.40625 13.84375 4.15625 17.953125 
L 8.25 19.703125 
Q 9.84375 20.40625 11.34375 20.09375 
Q 12.84375 19.796875 13.546875 18.34375 
Q 14.25 16.90625 15.25 15 
Q 16.25 13.09375 17.890625 11.375 
Q 19.546875 9.65625 22.0625 8.46875 
Q 24.59375 7.296875 28.453125 7.296875 
Q 32.09375 7.296875 34.84375 8.5 
Q 37.59375 9.703125 39.421875 11.59375 
Q 41.25 13.5 42.140625 15.828125 
Q 43.046875 18.15625 43.046875 20.453125 
Q 43.046875 23.296875 42.3125 25.640625 
Q 41.59375 28 39.625 29.703125 
Q 37.65625 31.40625 34.125 32.34375 
Q 30.59375 33.296875 25 33.296875 
L 25 40.203125 
Q 29.59375 40.25 32.765625 41.171875 
Q 35.953125 42.09375 37.953125 43.71875 
Q 39.953125 45.34375 40.828125 47.59375 
Q 41.703125 49.84375 41.703125 52.546875 
Q 41.703125 55.546875 40.765625 57.765625 
Q 39.84375 60 38.1875 61.46875 
Q 36.546875 62.953125 34.296875 63.703125 
Q 32.046875 64.453125 29.40625 64.453125 
Q 26.75 64.453125 24.515625 63.671875 
Q 22.296875 62.90625 20.5625 61.53125 
Q 18.84375 60.15625 17.671875 58.28125 
Q 16.5 56.40625 16 54.15625 
Q 15.296875 52.296875 14.265625 51.671875 
Q 13.25 51.046875 11.296875 51.34375 
L 6.296875 52.25 
Q 7 57.203125 9.046875 61 
Q 11.09375 64.796875 14.1875 67.375 
Q 17.296875 69.953125 21.296875 71.25 
Q 25.296875 72.546875 29.953125 72.546875 
" id="Lato-Medium-33"/>
      </defs>
      <g style="fill:#ffffff;" transform="translate(170.402475 242.812656)scale(0.1 -0.1)">
       <use xlink:href="#Lato-Medium-33"/>
      </g>
     </g>
    </g>
    <g id="xtick_3">
     <g id="line2d_3">
      <g>
       <use style="fill:#ffffff;stroke:#ffffff;stroke-width:0.8;" x="274.322525" xlink:href="#mfb9a857f35" y="228.437656"/>
      </g>
     </g>
     <g id="text_3">
      <!-- 4 -->
      <defs>
       <path d="M 44.65625 26.09375 
L 55.203125 26.09375 
L 55.203125 20.59375 
Q 55.203125 19.75 54.671875 19.171875 
Q 54.15625 18.59375 53.15625 18.59375 
L 44.65625 18.59375 
L 44.65625 0 
L 36.34375 0 
L 36.34375 18.59375 
L 4.75 18.59375 
Q 3.703125 18.59375 2.953125 19.1875 
Q 2.203125 19.796875 2 20.75 
L 1.046875 25.59375 
L 35.796875 71.796875 
L 44.65625 71.796875 
z
M 36.34375 54.59375 
Q 36.34375 55.953125 36.4375 57.546875 
Q 36.546875 59.15625 36.796875 60.84375 
L 11.296875 26.09375 
L 36.34375 26.09375 
z
" id="Lato-Medium-34"/>
      </defs>
      <g style="fill:#ffffff;" transform="translate(271.422525 242.812656)scale(0.1 -0.1)">
       <use xlink:href="#Lato-Medium-34"/>
      </g>
     </g>
    </g>
    <g id="xtick_4">
     <g id="line2d_4">
      <g>
       <use style="fill:#ffffff;stroke:#ffffff;stroke-width:0.8;" x="375.342576" xlink:href="#mfb9a857f35" y="228.437656"/>
      </g>
     </g>
     <g id="text_4">
      <!-- 5 -->
      <defs>
       <path d="M 49.25 67.65625 
Q 49.25 65.59375 47.96875 64.296875 
Q 46.703125 63 43.703125 63 
L 21.59375 63 
L 18.453125 44.84375 
Q 23.90625 46.046875 28.546875 46.046875 
Q 34.15625 46.046875 38.453125 44.375 
Q 42.75 42.703125 45.640625 39.765625 
Q 48.546875 36.84375 50.015625 32.875 
Q 51.5 28.90625 51.5 24.296875 
Q 51.5 18.59375 49.5 13.9375 
Q 47.5 9.296875 44.015625 6.015625 
Q 40.546875 2.75 35.796875 0.96875 
Q 31.046875 -0.796875 25.546875 -0.796875 
Q 22.34375 -0.796875 19.421875 -0.171875 
Q 16.5 0.453125 13.953125 1.515625 
Q 11.40625 2.59375 9.25 4 
Q 7.09375 5.40625 5.40625 6.90625 
L 8.296875 11 
Q 9.25 12.34375 10.796875 12.34375 
Q 11.84375 12.34375 13.09375 11.5625 
Q 14.34375 10.796875 16.125 9.84375 
Q 17.90625 8.90625 20.328125 8.125 
Q 22.75 7.34375 26.046875 7.34375 
Q 29.703125 7.34375 32.640625 8.515625 
Q 35.59375 9.703125 37.671875 11.875 
Q 39.75 14.046875 40.84375 17.09375 
Q 41.953125 20.15625 41.953125 23.84375 
Q 41.953125 27.15625 40.96875 29.78125 
Q 40 32.40625 38.09375 34.28125 
Q 36.203125 36.15625 33.296875 37.15625 
Q 30.40625 38.15625 26.59375 38.15625 
Q 21.25 38.15625 15.15625 36.25 
L 9.203125 38 
L 15 71.75 
L 49.25 71.75 
z
" id="Lato-Medium-35"/>
      </defs>
      <g style="fill:#ffffff;" transform="translate(372.442576 242.812656)scale(0.1 -0.1)">
       <use xlink:href="#Lato-Medium-35"/>
      </g>
     </g>
    </g>
    <g id="text_5">
     <!-- $d$ -->
     <defs>
      <path d="M 41.796875 8.203125 
Q 38.1875 3.46875 33.25 1.015625 
Q 28.328125 -1.421875 22.3125 -1.421875 
Q 14.109375 -1.421875 9.34375 4.171875 
Q 4.59375 9.765625 4.59375 19.484375 
Q 4.59375 27.59375 7.46875 34.9375 
Q 10.359375 42.28125 15.828125 48.09375 
Q 19.4375 51.953125 23.96875 53.96875 
Q 28.515625 56 33.5 56 
Q 38.765625 56 42.796875 53.453125 
Q 46.828125 50.921875 49.03125 46.1875 
L 54.890625 75.984375 
L 63.921875 75.984375 
L 49.125 0 
L 40.09375 0 
z
M 13.921875 21.09375 
Q 13.921875 14.015625 17.109375 10.0625 
Q 20.3125 6.109375 25.984375 6.109375 
Q 30.171875 6.109375 33.765625 8.125 
Q 37.359375 10.15625 40.09375 14.109375 
Q 42.96875 18.21875 44.625 23.578125 
Q 46.296875 28.953125 46.296875 34.1875 
Q 46.296875 40.96875 43.09375 44.765625 
Q 39.890625 48.578125 34.28125 48.578125 
Q 30.03125 48.578125 26.359375 46.578125 
Q 22.703125 44.578125 20.125 40.828125 
Q 17.28125 36.765625 15.59375 31.390625 
Q 13.921875 26.03125 13.921875 21.09375 
" id="DejaVuSans-Oblique-64"/>
     </defs>
     <g style="fill:#ffffff;" transform="translate(218.6925 260.084844)scale(0.16 -0.16)">
      <use transform="translate(0 0.015625)" xlink:href="#DejaVuSans-Oblique-64"/>
     </g>
    </g>
   </g>
   <g id="matplotlib.axis_2">
    <g id="ytick_1">
     <g id="line2d_5">
      <defs>
       <path d="M 0 0 
L -3.5 0 
" id="m1d3727c9b2" style="stroke:#ffffff;stroke-width:0.8;"/>
      </defs>
      <g>
       <use style="fill:#ffffff;stroke:#ffffff;stroke-width:0.8;" x="56.4125" xlink:href="#m1d3727c9b2" y="228.437656"/>
      </g>
     </g>
     <g id="text_6">
      <!-- ${10^{-8}}$ -->
      <defs>
       <path d="M 12.40625 8.296875 
L 28.515625 8.296875 
L 28.515625 63.921875 
L 10.984375 60.40625 
L 10.984375 69.390625 
L 28.421875 72.90625 
L 38.28125 72.90625 
L 38.28125 8.296875 
L 54.390625 8.296875 
L 54.390625 0 
L 12.40625 0 
z
" id="DejaVuSans-31"/>
       <path d="M 31.78125 66.40625 
Q 24.171875 66.40625 20.328125 58.90625 
Q 16.5 51.421875 16.5 36.375 
Q 16.5 21.390625 20.328125 13.890625 
Q 24.171875 6.390625 31.78125 6.390625 
Q 39.453125 6.390625 43.28125 13.890625 
Q 47.125 21.390625 47.125 36.375 
Q 47.125 51.421875 43.28125 58.90625 
Q 39.453125 66.40625 31.78125 66.40625 
M 31.78125 74.21875 
Q 44.046875 74.21875 50.515625 64.515625 
Q 56.984375 54.828125 56.984375 36.375 
Q 56.984375 17.96875 50.515625 8.265625 
Q 44.046875 -1.421875 31.78125 -1.421875 
Q 19.53125 -1.421875 13.0625 8.265625 
Q 6.59375 17.96875 6.59375 36.375 
Q 6.59375 54.828125 13.0625 64.515625 
Q 19.53125 74.21875 31.78125 74.21875 
" id="DejaVuSans-30"/>
       <path d="M 10.59375 35.5 
L 73.1875 35.5 
L 73.1875 27.203125 
L 10.59375 27.203125 
z
" id="DejaVuSans-2212"/>
       <path d="M 31.78125 34.625 
Q 24.75 34.625 20.71875 30.859375 
Q 16.703125 27.09375 16.703125 20.515625 
Q 16.703125 13.921875 20.71875 10.15625 
Q 24.75 6.390625 31.78125 6.390625 
Q 38.8125 6.390625 42.859375 10.171875 
Q 46.921875 13.96875 46.921875 20.515625 
Q 46.921875 27.09375 42.890625 30.859375 
Q 38.875 34.625 31.78125 34.625 
M 21.921875 38.8125 
Q 15.578125 40.375 12.03125 44.71875 
Q 8.5 49.078125 8.5 55.328125 
Q 8.5 64.0625 14.71875 69.140625 
Q 20.953125 74.21875 31.78125 74.21875 
Q 42.671875 74.21875 48.875 69.140625 
Q 55.078125 64.0625 55.078125 55.328125 
Q 55.078125 49.078125 51.53125 44.71875 
Q 48 40.375 41.703125 38.8125 
Q 48.828125 37.15625 52.796875 32.3125 
Q 56.78125 27.484375 56.78125 20.515625 
Q 56.78125 9.90625 50.3125 4.234375 
Q 43.84375 -1.421875 31.78125 -1.421875 
Q 19.734375 -1.421875 13.25 4.234375 
Q 6.78125 9.90625 6.78125 20.515625 
Q 6.78125 27.484375 10.78125 32.3125 
Q 14.796875 37.15625 21.921875 38.8125 
M 18.3125 54.390625 
Q 18.3125 48.734375 21.84375 45.5625 
Q 25.390625 42.390625 31.78125 42.390625 
Q 38.140625 42.390625 41.71875 45.5625 
Q 45.3125 48.734375 45.3125 54.390625 
Q 45.3125 60.0625 41.71875 63.234375 
Q 38.140625 66.40625 31.78125 66.40625 
Q 25.390625 66.40625 21.84375 63.234375 
Q 18.3125 60.0625 18.3125 54.390625 
" id="DejaVuSans-38"/>
      </defs>
      <g style="fill:#ffffff;" transform="translate(25.9125 232.235312)scale(0.1 -0.1)">
       <use transform="translate(0 0.765625)" xlink:href="#DejaVuSans-31"/>
       <use transform="translate(63.623047 0.765625)" xlink:href="#DejaVuSans-30"/>
       <use transform="translate(128.203125 39.046875)scale(0.7)" xlink:href="#DejaVuSans-2212"/>
       <use transform="translate(186.855469 39.046875)scale(0.7)" xlink:href="#DejaVuSans-38"/>
      </g>
     </g>
    </g>
    <g id="ytick_2">
     <g id="line2d_6">
      <g>
       <use style="fill:#ffffff;stroke:#ffffff;stroke-width:0.8;" x="56.4125" xlink:href="#m1d3727c9b2" y="201.257656"/>
      </g>
     </g>
     <g id="text_7">
      <!-- ${10^{-7}}$ -->
      <defs>
       <path d="M 8.203125 72.90625 
L 55.078125 72.90625 
L 55.078125 68.703125 
L 28.609375 0 
L 18.3125 0 
L 43.21875 64.59375 
L 8.203125 64.59375 
z
" id="DejaVuSans-37"/>
      </defs>
      <g style="fill:#ffffff;" transform="translate(25.9125 205.005312)scale(0.1 -0.1)">
       <use transform="translate(0 0.684375)" xlink:href="#DejaVuSans-31"/>
       <use transform="translate(63.623047 0.684375)" xlink:href="#DejaVuSans-30"/>
       <use transform="translate(128.203125 38.965625)scale(0.7)" xlink:href="#DejaVuSans-2212"/>
       <use transform="translate(186.855469 38.965625)scale(0.7)" xlink:href="#DejaVuSans-37"/>
      </g>
     </g>
    </g>
    <g id="ytick_3">
     <g id="line2d_7">
      <g>
       <use style="fill:#ffffff;stroke:#ffffff;stroke-width:0.8;" x="56.4125" xlink:href="#m1d3727c9b2" y="174.077656"/>
      </g>
     </g>
     <g id="text_8">
      <!-- ${10^{-6}}$ -->
      <defs>
       <path d="M 33.015625 40.375 
Q 26.375 40.375 22.484375 35.828125 
Q 18.609375 31.296875 18.609375 23.390625 
Q 18.609375 15.53125 22.484375 10.953125 
Q 26.375 6.390625 33.015625 6.390625 
Q 39.65625 6.390625 43.53125 10.953125 
Q 47.40625 15.53125 47.40625 23.390625 
Q 47.40625 31.296875 43.53125 35.828125 
Q 39.65625 40.375 33.015625 40.375 
M 52.59375 71.296875 
L 52.59375 62.3125 
Q 48.875 64.0625 45.09375 64.984375 
Q 41.3125 65.921875 37.59375 65.921875 
Q 27.828125 65.921875 22.671875 59.328125 
Q 17.53125 52.734375 16.796875 39.40625 
Q 19.671875 43.65625 24.015625 45.921875 
Q 28.375 48.1875 33.59375 48.1875 
Q 44.578125 48.1875 50.953125 41.515625 
Q 57.328125 34.859375 57.328125 23.390625 
Q 57.328125 12.15625 50.6875 5.359375 
Q 44.046875 -1.421875 33.015625 -1.421875 
Q 20.359375 -1.421875 13.671875 8.265625 
Q 6.984375 17.96875 6.984375 36.375 
Q 6.984375 53.65625 15.1875 63.9375 
Q 23.390625 74.21875 37.203125 74.21875 
Q 40.921875 74.21875 44.703125 73.484375 
Q 48.484375 72.75 52.59375 71.296875 
" id="DejaVuSans-36"/>
      </defs>
      <g style="fill:#ffffff;" transform="translate(25.9125 177.875312)scale(0.1 -0.1)">
       <use transform="translate(0 0.765625)" xlink:href="#DejaVuSans-31"/>
       <use transform="translate(63.623047 0.765625)" xlink:href="#DejaVuSans-30"/>
       <use transform="translate(128.203125 39.046875)scale(0.7)" xlink:href="#DejaVuSans-2212"/>
       <use transform="translate(186.855469 39.046875)scale(0.7)" xlink:href="#DejaVuSans-36"/>
      </g>
     </g>
    </g>
    <g id="ytick_4">
     <g id="line2d_8">
      <g>
       <use style="fill:#ffffff;stroke:#ffffff;stroke-width:0.8;" x="56.4125" xlink:href="#m1d3727c9b2" y="146.897656"/>
      </g>
     </g>
     <g id="text_9">
      <!-- ${10^{-5}}$ -->
      <defs>
       <path d="M 10.796875 72.90625 
L 49.515625 72.90625 
L 49.515625 64.59375 
L 19.828125 64.59375 
L 19.828125 46.734375 
Q 21.96875 47.46875 24.109375 47.828125 
Q 26.265625 48.1875 28.421875 48.1875 
Q 40.625 48.1875 47.75 41.5 
Q 54.890625 34.8125 54.890625 23.390625 
Q 54.890625 11.625 47.5625 5.09375 
Q 40.234375 -1.421875 26.90625 -1.421875 
Q 22.3125 -1.421875 17.546875 -0.640625 
Q 12.796875 0.140625 7.71875 1.703125 
L 7.71875 11.625 
Q 12.109375 9.234375 16.796875 8.0625 
Q 21.484375 6.890625 26.703125 6.890625 
Q 35.15625 6.890625 40.078125 11.328125 
Q 45.015625 15.765625 45.015625 23.390625 
Q 45.015625 31 40.078125 35.4375 
Q 35.15625 39.890625 26.703125 39.890625 
Q 22.75 39.890625 18.8125 39.015625 
Q 14.890625 38.140625 10.796875 36.28125 
z
" id="DejaVuSans-35"/>
      </defs>
      <g style="fill:#ffffff;" transform="translate(25.9125 150.645312)scale(0.1 -0.1)">
       <use transform="translate(0 0.684375)" xlink:href="#DejaVuSans-31"/>
       <use transform="translate(63.623047 0.684375)" xlink:href="#DejaVuSans-30"/>
       <use transform="translate(128.203125 38.965625)scale(0.7)" xlink:href="#DejaVuSans-2212"/>
       <use transform="translate(186.855469 38.965625)scale(0.7)" xlink:href="#DejaVuSans-35"/>
      </g>
     </g>
    </g>
    <g id="ytick_5">
     <g id="line2d_9">
      <g>
       <use style="fill:#ffffff;stroke:#ffffff;stroke-width:0.8;" x="56.4125" xlink:href="#m1d3727c9b2" y="119.717656"/>
      </g>
     </g>
     <g id="text_10">
      <!-- ${10^{-4}}$ -->
      <defs>
       <path d="M 37.796875 64.3125 
L 12.890625 25.390625 
L 37.796875 25.390625 
z
M 35.203125 72.90625 
L 47.609375 72.90625 
L 47.609375 25.390625 
L 58.015625 25.390625 
L 58.015625 17.1875 
L 47.609375 17.1875 
L 47.609375 0 
L 37.796875 0 
L 37.796875 17.1875 
L 4.890625 17.1875 
L 4.890625 26.703125 
z
" id="DejaVuSans-34"/>
      </defs>
      <g style="fill:#ffffff;" transform="translate(25.9125 123.465312)scale(0.1 -0.1)">
       <use transform="translate(0 0.684375)" xlink:href="#DejaVuSans-31"/>
       <use transform="translate(63.623047 0.684375)" xlink:href="#DejaVuSans-30"/>
       <use transform="translate(128.203125 38.965625)scale(0.7)" xlink:href="#DejaVuSans-2212"/>
       <use transform="translate(186.855469 38.965625)scale(0.7)" xlink:href="#DejaVuSans-34"/>
      </g>
     </g>
    </g>
    <g id="ytick_6">
     <g id="line2d_10">
      <g>
       <use style="fill:#ffffff;stroke:#ffffff;stroke-width:0.8;" x="56.4125" xlink:href="#m1d3727c9b2" y="92.537656"/>
      </g>
     </g>
     <g id="text_11">
      <!-- ${10^{-3}}$ -->
      <defs>
       <path d="M 40.578125 39.3125 
Q 47.65625 37.796875 51.625 33 
Q 55.609375 28.21875 55.609375 21.1875 
Q 55.609375 10.40625 48.1875 4.484375 
Q 40.765625 -1.421875 27.09375 -1.421875 
Q 22.515625 -1.421875 17.65625 -0.515625 
Q 12.796875 0.390625 7.625 2.203125 
L 7.625 11.71875 
Q 11.71875 9.328125 16.59375 8.109375 
Q 21.484375 6.890625 26.8125 6.890625 
Q 36.078125 6.890625 40.9375 10.546875 
Q 45.796875 14.203125 45.796875 21.1875 
Q 45.796875 27.640625 41.28125 31.265625 
Q 36.765625 34.90625 28.71875 34.90625 
L 20.21875 34.90625 
L 20.21875 43.015625 
L 29.109375 43.015625 
Q 36.375 43.015625 40.234375 45.921875 
Q 44.09375 48.828125 44.09375 54.296875 
Q 44.09375 59.90625 40.109375 62.90625 
Q 36.140625 65.921875 28.71875 65.921875 
Q 24.65625 65.921875 20.015625 65.03125 
Q 15.375 64.15625 9.8125 62.3125 
L 9.8125 71.09375 
Q 15.4375 72.65625 20.34375 73.4375 
Q 25.25 74.21875 29.59375 74.21875 
Q 40.828125 74.21875 47.359375 69.109375 
Q 53.90625 64.015625 53.90625 55.328125 
Q 53.90625 49.265625 50.4375 45.09375 
Q 46.96875 40.921875 40.578125 39.3125 
" id="DejaVuSans-33"/>
      </defs>
      <g style="fill:#ffffff;" transform="translate(25.9125 96.335312)scale(0.1 -0.1)">
       <use transform="translate(0 0.765625)" xlink:href="#DejaVuSans-31"/>
       <use transform="translate(63.623047 0.765625)" xlink:href="#DejaVuSans-30"/>
       <use transform="translate(128.203125 39.046875)scale(0.7)" xlink:href="#DejaVuSans-2212"/>
       <use transform="translate(186.855469 39.046875)scale(0.7)" xlink:href="#DejaVuSans-33"/>
      </g>
     </g>
    </g>
    <g id="ytick_7">
     <g id="line2d_11">
      <g>
       <use style="fill:#ffffff;stroke:#ffffff;stroke-width:0.8;" x="56.4125" xlink:href="#m1d3727c9b2" y="65.357656"/>
      </g>
     </g>
     <g id="text_12">
      <!-- ${10^{-2}}$ -->
      <defs>
       <path d="M 19.1875 8.296875 
L 53.609375 8.296875 
L 53.609375 0 
L 7.328125 0 
L 7.328125 8.296875 
Q 12.9375 14.109375 22.625 23.890625 
Q 32.328125 33.6875 34.8125 36.53125 
Q 39.546875 41.84375 41.421875 45.53125 
Q 43.3125 49.21875 43.3125 52.78125 
Q 43.3125 58.59375 39.234375 62.25 
Q 35.15625 65.921875 28.609375 65.921875 
Q 23.96875 65.921875 18.8125 64.3125 
Q 13.671875 62.703125 7.8125 59.421875 
L 7.8125 69.390625 
Q 13.765625 71.78125 18.9375 73 
Q 24.125 74.21875 28.421875 74.21875 
Q 39.75 74.21875 46.484375 68.546875 
Q 53.21875 62.890625 53.21875 53.421875 
Q 53.21875 48.921875 51.53125 44.890625 
Q 49.859375 40.875 45.40625 35.40625 
Q 44.1875 33.984375 37.640625 27.21875 
Q 31.109375 20.453125 19.1875 8.296875 
" id="DejaVuSans-32"/>
      </defs>
      <g style="fill:#ffffff;" transform="translate(25.9125 69.155312)scale(0.1 -0.1)">
       <use transform="translate(0 0.765625)" xlink:href="#DejaVuSans-31"/>
       <use transform="translate(63.623047 0.765625)" xlink:href="#DejaVuSans-30"/>
       <use transform="translate(128.203125 39.046875)scale(0.7)" xlink:href="#DejaVuSans-2212"/>
       <use transform="translate(186.855469 39.046875)scale(0.7)" xlink:href="#DejaVuSans-32"/>
      </g>
     </g>
    </g>
    <g id="ytick_8">
     <g id="line2d_12">
      <g>
       <use style="fill:#ffffff;stroke:#ffffff;stroke-width:0.8;" x="56.4125" xlink:href="#m1d3727c9b2" y="38.177656"/>
      </g>
     </g>
     <g id="text_13">
      <!-- ${10^{-1}}$ -->
      <g style="fill:#ffffff;" transform="translate(25.9125 41.925312)scale(0.1 -0.1)">
       <use transform="translate(0 0.684375)" xlink:href="#DejaVuSans-31"/>
       <use transform="translate(63.623047 0.684375)" xlink:href="#DejaVuSans-30"/>
       <use transform="translate(128.203125 38.965625)scale(0.7)" xlink:href="#DejaVuSans-2212"/>
       <use transform="translate(186.855469 38.965625)scale(0.7)" xlink:href="#DejaVuSans-31"/>
      </g>
     </g>
    </g>
    <g id="ytick_9">
     <g id="line2d_13">
      <g>
       <use style="fill:#ffffff;stroke:#ffffff;stroke-width:0.8;" x="56.4125" xlink:href="#m1d3727c9b2" y="10.997656"/>
      </g>
     </g>
     <g id="text_14">
      <!-- ${10^{0}}$ -->
      <g style="fill:#ffffff;" transform="translate(31.8125 14.795312)scale(0.1 -0.1)">
       <use transform="translate(0 0.765625)" xlink:href="#DejaVuSans-31"/>
       <use transform="translate(63.623047 0.765625)" xlink:href="#DejaVuSans-30"/>
       <use transform="translate(128.203125 39.046875)scale(0.7)" xlink:href="#DejaVuSans-30"/>
      </g>
     </g>
    </g>
    <g id="ytick_10">
     <g id="line2d_14">
      <defs>
       <path d="M 0 0 
L -2 0 
" id="m2a1c6a46d7" style="stroke:#ffffff;stroke-width:0.6;"/>
      </defs>
      <g>
       <use style="fill:#ffffff;stroke:#ffffff;stroke-width:0.6;" x="56.4125" xlink:href="#m2a1c6a46d7" y="220.255661"/>
      </g>
     </g>
    </g>
    <g id="ytick_11">
     <g id="line2d_15">
      <g>
       <use style="fill:#ffffff;stroke:#ffffff;stroke-width:0.6;" x="56.4125" xlink:href="#m2a1c6a46d7" y="212.073666"/>
      </g>
     </g>
    </g>
    <g id="ytick_12">
     <g id="line2d_16">
      <g>
       <use style="fill:#ffffff;stroke:#ffffff;stroke-width:0.6;" x="56.4125" xlink:href="#m2a1c6a46d7" y="207.287505"/>
      </g>
     </g>
    </g>
    <g id="ytick_13">
     <g id="line2d_17">
      <g>
       <use style="fill:#ffffff;stroke:#ffffff;stroke-width:0.6;" x="56.4125" xlink:href="#m2a1c6a46d7" y="203.89167"/>
      </g>
     </g>
    </g>
    <g id="ytick_14">
     <g id="line2d_18">
      <g>
       <use style="fill:#ffffff;stroke:#ffffff;stroke-width:0.6;" x="56.4125" xlink:href="#m2a1c6a46d7" y="193.075661"/>
      </g>
     </g>
    </g>
    <g id="ytick_15">
     <g id="line2d_19">
      <g>
       <use style="fill:#ffffff;stroke:#ffffff;stroke-width:0.6;" x="56.4125" xlink:href="#m2a1c6a46d7" y="184.893666"/>
      </g>
     </g>
    </g>
    <g id="ytick_16">
     <g id="line2d_20">
      <g>
       <use style="fill:#ffffff;stroke:#ffffff;stroke-width:0.6;" x="56.4125" xlink:href="#m2a1c6a46d7" y="180.107505"/>
      </g>
     </g>
    </g>
    <g id="ytick_17">
     <g id="line2d_21">
      <g>
       <use style="fill:#ffffff;stroke:#ffffff;stroke-width:0.6;" x="56.4125" xlink:href="#m2a1c6a46d7" y="176.71167"/>
      </g>
     </g>
    </g>
    <g id="ytick_18">
     <g id="line2d_22">
      <g>
       <use style="fill:#ffffff;stroke:#ffffff;stroke-width:0.6;" x="56.4125" xlink:href="#m2a1c6a46d7" y="165.895661"/>
      </g>
     </g>
    </g>
    <g id="ytick_19">
     <g id="line2d_23">
      <g>
       <use style="fill:#ffffff;stroke:#ffffff;stroke-width:0.6;" x="56.4125" xlink:href="#m2a1c6a46d7" y="157.713666"/>
      </g>
     </g>
    </g>
    <g id="ytick_20">
     <g id="line2d_24">
      <g>
       <use style="fill:#ffffff;stroke:#ffffff;stroke-width:0.6;" x="56.4125" xlink:href="#m2a1c6a46d7" y="152.927505"/>
      </g>
     </g>
    </g>
    <g id="ytick_21">
     <g id="line2d_25">
      <g>
       <use style="fill:#ffffff;stroke:#ffffff;stroke-width:0.6;" x="56.4125" xlink:href="#m2a1c6a46d7" y="149.53167"/>
      </g>
     </g>
    </g>
    <g id="ytick_22">
     <g id="line2d_26">
      <g>
       <use style="fill:#ffffff;stroke:#ffffff;stroke-width:0.6;" x="56.4125" xlink:href="#m2a1c6a46d7" y="138.715661"/>
      </g>
     </g>
    </g>
    <g id="ytick_23">
     <g id="line2d_27">
      <g>
       <use style="fill:#ffffff;stroke:#ffffff;stroke-width:0.6;" x="56.4125" xlink:href="#m2a1c6a46d7" y="130.533666"/>
      </g>
     </g>
    </g>
    <g id="ytick_24">
     <g id="line2d_28">
      <g>
       <use style="fill:#ffffff;stroke:#ffffff;stroke-width:0.6;" x="56.4125" xlink:href="#m2a1c6a46d7" y="125.747505"/>
      </g>
     </g>
    </g>
    <g id="ytick_25">
     <g id="line2d_29">
      <g>
       <use style="fill:#ffffff;stroke:#ffffff;stroke-width:0.6;" x="56.4125" xlink:href="#m2a1c6a46d7" y="122.35167"/>
      </g>
     </g>
    </g>
    <g id="ytick_26">
     <g id="line2d_30">
      <g>
       <use style="fill:#ffffff;stroke:#ffffff;stroke-width:0.6;" x="56.4125" xlink:href="#m2a1c6a46d7" y="111.535661"/>
      </g>
     </g>
    </g>
    <g id="ytick_27">
     <g id="line2d_31">
      <g>
       <use style="fill:#ffffff;stroke:#ffffff;stroke-width:0.6;" x="56.4125" xlink:href="#m2a1c6a46d7" y="103.353666"/>
      </g>
     </g>
    </g>
    <g id="ytick_28">
     <g id="line2d_32">
      <g>
       <use style="fill:#ffffff;stroke:#ffffff;stroke-width:0.6;" x="56.4125" xlink:href="#m2a1c6a46d7" y="98.567505"/>
      </g>
     </g>
    </g>
    <g id="ytick_29">
     <g id="line2d_33">
      <g>
       <use style="fill:#ffffff;stroke:#ffffff;stroke-width:0.6;" x="56.4125" xlink:href="#m2a1c6a46d7" y="95.17167"/>
      </g>
     </g>
    </g>
    <g id="ytick_30">
     <g id="line2d_34">
      <g>
       <use style="fill:#ffffff;stroke:#ffffff;stroke-width:0.6;" x="56.4125" xlink:href="#m2a1c6a46d7" y="84.355661"/>
      </g>
     </g>
    </g>
    <g id="ytick_31">
     <g id="line2d_35">
      <g>
       <use style="fill:#ffffff;stroke:#ffffff;stroke-width:0.6;" x="56.4125" xlink:href="#m2a1c6a46d7" y="76.173666"/>
      </g>
     </g>
    </g>
    <g id="ytick_32">
     <g id="line2d_36">
      <g>
       <use style="fill:#ffffff;stroke:#ffffff;stroke-width:0.6;" x="56.4125" xlink:href="#m2a1c6a46d7" y="71.387505"/>
      </g>
     </g>
    </g>
    <g id="ytick_33">
     <g id="line2d_37">
      <g>
       <use style="fill:#ffffff;stroke:#ffffff;stroke-width:0.6;" x="56.4125" xlink:href="#m2a1c6a46d7" y="67.99167"/>
      </g>
     </g>
    </g>
    <g id="ytick_34">
     <g id="line2d_38">
      <g>
       <use style="fill:#ffffff;stroke:#ffffff;stroke-width:0.6;" x="56.4125" xlink:href="#m2a1c6a46d7" y="57.175661"/>
      </g>
     </g>
    </g>
    <g id="ytick_35">
     <g id="line2d_39">
      <g>
       <use style="fill:#ffffff;stroke:#ffffff;stroke-width:0.6;" x="56.4125" xlink:href="#m2a1c6a46d7" y="48.993666"/>
      </g>
     </g>
    </g>
    <g id="ytick_36">
     <g id="line2d_40">
      <g>
       <use style="fill:#ffffff;stroke:#ffffff;stroke-width:0.6;" x="56.4125" xlink:href="#m2a1c6a46d7" y="44.207505"/>
      </g>
     </g>
    </g>
    <g id="ytick_37">
     <g id="line2d_41">
      <g>
       <use style="fill:#ffffff;stroke:#ffffff;stroke-width:0.6;" x="56.4125" xlink:href="#m2a1c6a46d7" y="40.81167"/>
      </g>
     </g>
    </g>
    <g id="ytick_38">
     <g id="line2d_42">
      <g>
       <use style="fill:#ffffff;stroke:#ffffff;stroke-width:0.6;" x="56.4125" xlink:href="#m2a1c6a46d7" y="29.995661"/>
      </g>
     </g>
    </g>
    <g id="ytick_39">
     <g id="line2d_43">
      <g>
       <use style="fill:#ffffff;stroke:#ffffff;stroke-width:0.6;" x="56.4125" xlink:href="#m2a1c6a46d7" y="21.813666"/>
      </g>
     </g>
    </g>
    <g id="ytick_40">
     <g id="line2d_44">
      <g>
       <use style="fill:#ffffff;stroke:#ffffff;stroke-width:0.6;" x="56.4125" xlink:href="#m2a1c6a46d7" y="17.027505"/>
      </g>
     </g>
    </g>
    <g id="ytick_41">
     <g id="line2d_45">
      <g>
       <use style="fill:#ffffff;stroke:#ffffff;stroke-width:0.6;" x="56.4125" xlink:href="#m2a1c6a46d7" y="13.63167"/>
      </g>
     </g>
    </g>
    <g id="text_15">
     <!-- solid angle -->
     <defs>
      <path d="M 36.703125 42.15625 
Q 36 40.953125 34.75 40.953125 
Q 33.953125 40.953125 32.96875 41.5 
Q 32 42.046875 30.640625 42.71875 
Q 29.296875 43.40625 27.421875 43.953125 
Q 25.546875 44.5 23 44.5 
Q 20.84375 44.5 19.09375 43.953125 
Q 17.34375 43.40625 16.125 42.453125 
Q 14.90625 41.5 14.21875 40.21875 
Q 13.546875 38.953125 13.546875 37.453125 
Q 13.546875 35.546875 14.671875 34.265625 
Q 15.796875 33 17.625 32.078125 
Q 19.453125 31.15625 21.796875 30.421875 
Q 24.15625 29.703125 26.59375 28.890625 
Q 29.046875 28.09375 31.390625 27.0625 
Q 33.75 26.046875 35.578125 24.546875 
Q 37.40625 23.046875 38.53125 20.875 
Q 39.65625 18.703125 39.65625 15.65625 
Q 39.65625 12.09375 38.375 9.09375 
Q 37.09375 6.09375 34.625 3.890625 
Q 32.15625 1.703125 28.546875 0.453125 
Q 24.953125 -0.796875 20.25 -0.796875 
Q 14.953125 -0.796875 10.578125 0.953125 
Q 6.203125 2.703125 3.203125 5.40625 
L 5.40625 9 
Q 5.796875 9.703125 6.390625 10.078125 
Q 7 10.453125 7.90625 10.453125 
Q 8.84375 10.453125 9.84375 9.75 
Q 10.84375 9.046875 12.265625 8.21875 
Q 13.703125 7.40625 15.71875 6.703125 
Q 17.75 6 20.75 6 
Q 23.296875 6 25.171875 6.640625 
Q 27.046875 7.296875 28.296875 8.375 
Q 29.546875 9.453125 30.140625 10.890625 
Q 30.75 12.34375 30.75 13.953125 
Q 30.75 16 29.625 17.34375 
Q 28.5 18.703125 26.671875 19.640625 
Q 24.84375 20.59375 22.5 21.296875 
Q 20.15625 22 17.671875 22.796875 
Q 15.203125 23.59375 12.84375 24.625 
Q 10.5 25.65625 8.671875 27.25 
Q 6.84375 28.84375 5.71875 31.125 
Q 4.59375 33.40625 4.59375 36.703125 
Q 4.59375 39.65625 5.796875 42.34375 
Q 7 45.046875 9.328125 47.09375 
Q 11.65625 49.15625 15.046875 50.34375 
Q 18.453125 51.546875 22.796875 51.546875 
Q 27.796875 51.546875 31.875 49.96875 
Q 35.953125 48.40625 38.796875 45.59375 
z
" id="Lato-Medium-73"/>
      <path d="M 28.453125 51.546875 
Q 34.046875 51.546875 38.546875 49.71875 
Q 43.046875 47.90625 46.1875 44.5 
Q 49.34375 41.09375 51.046875 36.265625 
Q 52.75 31.453125 52.75 25.453125 
Q 52.75 19.453125 51.046875 14.59375 
Q 49.34375 9.75 46.1875 6.34375 
Q 43.046875 2.953125 38.546875 1.125 
Q 34.046875 -0.703125 28.453125 -0.703125 
Q 22.84375 -0.703125 18.3125 1.125 
Q 13.796875 2.953125 10.625 6.34375 
Q 7.453125 9.75 5.75 14.59375 
Q 4.046875 19.453125 4.046875 25.453125 
Q 4.046875 31.453125 5.75 36.265625 
Q 7.453125 41.09375 10.625 44.5 
Q 13.796875 47.90625 18.3125 49.71875 
Q 22.84375 51.546875 28.453125 51.546875 
M 28.453125 6.703125 
Q 35.75 6.703125 39.34375 11.59375 
Q 42.953125 16.5 42.953125 25.40625 
Q 42.953125 34.25 39.34375 39.203125 
Q 35.75 44.15625 28.453125 44.15625 
Q 21.046875 44.15625 17.421875 39.203125 
Q 13.796875 34.25 13.796875 25.40625 
Q 13.796875 16.5 17.421875 11.59375 
Q 21.046875 6.703125 28.453125 6.703125 
" id="Lato-Medium-6f"/>
      <path d="M 16.65625 73.75 
L 16.65625 0 
L 7.15625 0 
L 7.15625 73.75 
z
" id="Lato-Medium-6c"/>
      <path d="M 16.84375 50.75 
L 16.84375 0 
L 7.34375 0 
L 7.34375 50.75 
z
M 18.703125 66.5 
Q 18.703125 65.15625 18.171875 63.96875 
Q 17.65625 62.796875 16.71875 61.890625 
Q 15.796875 61 14.5625 60.46875 
Q 13.34375 59.953125 12 59.953125 
Q 10.703125 59.953125 9.515625 60.46875 
Q 8.34375 61 7.4375 61.890625 
Q 6.546875 62.796875 6.015625 63.96875 
Q 5.5 65.15625 5.5 66.5 
Q 5.5 67.84375 6.015625 69.0625 
Q 6.546875 70.296875 7.4375 71.1875 
Q 8.34375 72.09375 9.515625 72.625 
Q 10.703125 73.15625 12 73.15625 
Q 13.34375 73.15625 14.5625 72.625 
Q 15.796875 72.09375 16.71875 71.1875 
Q 17.65625 70.296875 18.171875 69.0625 
Q 18.703125 67.84375 18.703125 66.5 
" id="Lato-Medium-69"/>
      <path d="M 43.546875 0 
Q 41.546875 0 41.046875 1.90625 
L 40.203125 7.84375 
Q 38.59375 5.90625 36.75 4.328125 
Q 34.90625 2.75 32.796875 1.625 
Q 30.703125 0.5 28.34375 -0.09375 
Q 26 -0.703125 23.296875 -0.703125 
Q 18.953125 -0.703125 15.421875 0.96875 
Q 11.90625 2.65625 9.375 5.953125 
Q 6.84375 9.25 5.5 14.078125 
Q 4.15625 18.90625 4.15625 25.203125 
Q 4.15625 30.84375 5.65625 35.671875 
Q 7.15625 40.5 10 44.046875 
Q 12.84375 47.59375 16.890625 49.625 
Q 20.953125 51.65625 26.046875 51.65625 
Q 30.65625 51.65625 33.921875 50.125 
Q 37.203125 48.59375 39.75 45.84375 
L 39.75 73.75 
L 49.25 73.75 
L 49.25 0 
z
M 26.40625 6.953125 
Q 30.65625 6.953125 33.84375 8.875 
Q 37.046875 10.796875 39.75 14.34375 
L 39.75 38.546875 
Q 37.34375 41.75 34.5 43.015625 
Q 31.65625 44.296875 28.203125 44.296875 
Q 21.34375 44.296875 17.640625 39.390625 
Q 13.953125 34.5 13.953125 25.203125 
Q 13.953125 20.34375 14.796875 16.890625 
Q 15.65625 13.453125 17.25 11.21875 
Q 18.84375 9 21.140625 7.96875 
Q 23.453125 6.953125 26.40625 6.953125 
" id="Lato-Medium-64"/>
      <path id="Lato-Medium-20"/>
      <path d="M 39.34375 0 
Q 37.953125 0 37.203125 0.453125 
Q 36.453125 0.90625 36 2.203125 
L 34.953125 6.75 
Q 33 4.953125 31.09375 3.515625 
Q 29.203125 2.09375 27.125 1.140625 
Q 25.046875 0.203125 22.6875 -0.296875 
Q 20.34375 -0.796875 17.453125 -0.796875 
Q 14.453125 -0.796875 11.84375 0.015625 
Q 9.25 0.84375 7.328125 2.546875 
Q 5.40625 4.25 4.28125 6.765625 
Q 3.15625 9.296875 3.15625 12.75 
Q 3.15625 15.75 4.78125 18.5 
Q 6.40625 21.25 10.078125 23.421875 
Q 13.75 25.59375 19.671875 27 
Q 25.59375 28.40625 34.25 28.59375 
L 34.25 32.40625 
Q 34.25 38.15625 31.765625 41.078125 
Q 29.296875 44 24.5 44 
Q 21.25 44 19.078125 43.171875 
Q 16.90625 42.34375 15.328125 41.375 
Q 13.75 40.40625 12.546875 39.59375 
Q 11.34375 38.796875 10.15625 38.796875 
Q 9.15625 38.796875 8.46875 39.3125 
Q 7.796875 39.84375 7.296875 40.546875 
L 5.59375 43.65625 
Q 9.84375 47.65625 14.765625 49.65625 
Q 19.703125 51.65625 25.65625 51.65625 
Q 29.953125 51.65625 33.296875 50.25 
Q 36.65625 48.84375 38.921875 46.3125 
Q 41.203125 43.796875 42.375 40.25 
Q 43.546875 36.703125 43.546875 32.40625 
L 43.546875 0 
z
M 20.296875 5.84375 
Q 22.546875 5.84375 24.46875 6.296875 
Q 26.40625 6.75 28.078125 7.59375 
Q 29.75 8.453125 31.25 9.671875 
Q 32.75 10.90625 34.25 12.453125 
L 34.25 22.65625 
Q 28.25 22.453125 24.046875 21.703125 
Q 19.84375 20.953125 17.21875 19.75 
Q 14.59375 18.546875 13.390625 16.875 
Q 12.203125 15.203125 12.203125 13.203125 
Q 12.203125 11.25 12.828125 9.84375 
Q 13.453125 8.453125 14.546875 7.578125 
Q 15.65625 6.703125 17.125 6.265625 
Q 18.59375 5.84375 20.296875 5.84375 
" id="Lato-Medium-61"/>
      <path d="M 6.90625 0 
L 6.90625 50.75 
L 12.59375 50.75 
Q 14.59375 50.75 15.09375 48.84375 
L 15.796875 43.59375 
Q 19.09375 47.15625 23.140625 49.34375 
Q 27.203125 51.546875 32.5 51.546875 
Q 36.65625 51.546875 39.828125 50.140625 
Q 43 48.75 45.140625 46.21875 
Q 47.296875 43.703125 48.390625 40.171875 
Q 49.5 36.65625 49.5 32.34375 
L 49.5 0 
L 40 0 
L 40 32.34375 
Q 40 37.84375 37.453125 40.921875 
Q 34.90625 44 29.703125 44 
Q 25.84375 44 22.546875 42.203125 
Q 19.25 40.40625 16.40625 37.25 
L 16.40625 0 
z
" id="Lato-Medium-6e"/>
      <path d="M 24.703125 51.59375 
Q 28 51.59375 30.828125 50.875 
Q 33.65625 50.15625 36.046875 48.796875 
L 50.046875 48.796875 
L 50.046875 45.296875 
Q 50.046875 43.5 47.84375 43.046875 
L 42.296875 42.25 
Q 43.84375 39.046875 43.84375 35.25 
Q 43.84375 31.5 42.421875 28.5 
Q 41 25.5 38.453125 23.34375 
Q 35.90625 21.203125 32.375 20.046875 
Q 28.84375 18.90625 24.703125 18.90625 
Q 21.203125 18.90625 18.203125 19.65625 
Q 15.046875 17.75 15.046875 15.453125 
Q 15.046875 13.703125 16.515625 12.828125 
Q 18 11.953125 20.390625 11.546875 
Q 22.796875 11.15625 25.84375 11.046875 
Q 28.90625 10.953125 32.09375 10.71875 
Q 35.296875 10.5 38.34375 9.953125 
Q 41.40625 9.40625 43.796875 8.125 
Q 46.203125 6.84375 47.671875 4.640625 
Q 49.15625 2.453125 49.15625 -1.09375 
Q 49.15625 -4.40625 47.53125 -7.46875 
Q 45.90625 -10.546875 42.828125 -12.921875 
Q 39.75 -15.296875 35.296875 -16.75 
Q 30.84375 -18.203125 25.25 -18.203125 
Q 19.65625 -18.203125 15.46875 -17.09375 
Q 11.296875 -16 8.515625 -14.140625 
Q 5.75 -12.296875 4.375 -9.875 
Q 3 -7.453125 3 -4.796875 
Q 3 -1.046875 5.328125 1.515625 
Q 7.65625 4.09375 11.703125 5.546875 
Q 9.453125 6.546875 8.140625 8.265625 
Q 6.84375 10 6.84375 12.84375 
Q 6.84375 13.953125 7.25 15.125 
Q 7.65625 16.296875 8.46875 17.46875 
Q 9.296875 18.65625 10.515625 19.703125 
Q 11.75 20.75 13.34375 21.546875 
Q 9.59375 23.65625 7.4375 27.125 
Q 5.296875 30.59375 5.296875 35.25 
Q 5.296875 39 6.75 42 
Q 8.203125 45 10.765625 47.140625 
Q 13.34375 49.296875 16.890625 50.4375 
Q 20.453125 51.59375 24.703125 51.59375 
M 40.40625 -2.65625 
Q 40.40625 -0.84375 39.375 0.25 
Q 38.34375 1.34375 36.59375 2 
Q 34.84375 2.65625 32.546875 2.90625 
Q 30.25 3.15625 27.703125 3.296875 
Q 25.15625 3.453125 22.46875 3.59375 
Q 19.796875 3.75 17.34375 4.09375 
Q 14.65625 2.796875 12.953125 0.890625 
Q 11.25 -1 11.25 -3.546875 
Q 11.25 -5.203125 12.09375 -6.625 
Q 12.953125 -8.046875 14.671875 -9.0625 
Q 16.40625 -10.09375 19.078125 -10.6875 
Q 21.75 -11.296875 25.40625 -11.296875 
Q 29 -11.296875 31.796875 -10.640625 
Q 34.59375 -10 36.5 -8.84375 
Q 38.40625 -7.703125 39.40625 -6.125 
Q 40.40625 -4.546875 40.40625 -2.65625 
M 24.703125 25.15625 
Q 27.34375 25.15625 29.34375 25.875 
Q 31.34375 26.59375 32.6875 27.890625 
Q 34.046875 29.203125 34.71875 31 
Q 35.40625 32.796875 35.40625 35 
Q 35.40625 39.5 32.671875 42.171875 
Q 29.953125 44.84375 24.703125 44.84375 
Q 19.453125 44.84375 16.71875 42.171875 
Q 14 39.5 14 35 
Q 14 32.84375 14.703125 31.046875 
Q 15.40625 29.25 16.75 27.921875 
Q 18.09375 26.59375 20.09375 25.875 
Q 22.09375 25.15625 24.703125 25.15625 
" id="Lato-Medium-67"/>
      <path d="M 27.84375 51.546875 
Q 32.453125 51.546875 36.34375 50.015625 
Q 40.25 48.5 43.09375 45.59375 
Q 45.953125 42.703125 47.546875 38.46875 
Q 49.15625 34.25 49.15625 28.796875 
Q 49.15625 26.59375 48.671875 25.84375 
Q 48.203125 25.09375 46.90625 25.09375 
L 13.40625 25.09375 
Q 13.546875 20.453125 14.71875 17 
Q 15.90625 13.546875 17.921875 11.265625 
Q 19.953125 9 22.796875 7.875 
Q 25.65625 6.75 29.15625 6.75 
Q 32.453125 6.75 34.828125 7.5 
Q 37.203125 8.25 38.921875 9.140625 
Q 40.65625 10.046875 41.84375 10.796875 
Q 43.046875 11.546875 43.953125 11.546875 
Q 45.15625 11.546875 45.703125 10.65625 
L 48.40625 7.203125 
Q 46.65625 5.09375 44.34375 3.625 
Q 42.046875 2.15625 39.390625 1.171875 
Q 36.75 0.203125 33.921875 -0.25 
Q 31.09375 -0.703125 28.34375 -0.703125 
Q 23.09375 -0.703125 18.625 1.0625 
Q 14.15625 2.84375 10.90625 6.265625 
Q 7.65625 9.703125 5.828125 14.765625 
Q 4 19.84375 4 26.453125 
Q 4 31.75 5.640625 36.328125 
Q 7.296875 40.90625 10.375 44.28125 
Q 13.453125 47.65625 17.875 49.59375 
Q 22.296875 51.546875 27.84375 51.546875 
M 28 44.59375 
Q 21.75 44.59375 18.171875 40.96875 
Q 14.59375 37.34375 13.703125 30.953125 
L 40.65625 30.953125 
Q 40.65625 33.953125 39.796875 36.453125 
Q 38.953125 38.953125 37.328125 40.75 
Q 35.703125 42.546875 33.34375 43.5625 
Q 31 44.59375 28 44.59375 
" id="Lato-Medium-65"/>
     </defs>
     <g style="fill:#ffffff;" transform="translate(19 156.867656)rotate(-90)scale(0.16 -0.16)">
      <use xlink:href="#Lato-Medium-73"/>
      <use x="43.400009" xlink:href="#Lato-Medium-6f"/>
      <use x="100.200012" xlink:href="#Lato-Medium-6c"/>
      <use x="124.000015" xlink:href="#Lato-Medium-69"/>
      <use x="148.200012" xlink:href="#Lato-Medium-64"/>
      <use x="204.350021" xlink:href="#Lato-Medium-20"/>
      <use x="229.700027" xlink:href="#Lato-Medium-61"/>
      <use x="279.600037" xlink:href="#Lato-Medium-6e"/>
      <use x="335.500046" xlink:href="#Lato-Medium-67"/>
      <use x="387.650055" xlink:href="#Lato-Medium-6c"/>
      <use x="411.450058" xlink:href="#Lato-Medium-65"/>
     </g>
    </g>
   </g>
   <g id="patch_3">
    <path d="M 56.4125 228.437656 
L 56.4125 10.997656 
" style="fill:none;stroke:#ffffff;stroke-linecap:square;stroke-linejoin:miter;stroke-width:0.8;"/>
   </g>
   <g id="patch_4">
    <path d="M 391.2125 228.437656 
L 391.2125 10.997656 
" style="fill:none;stroke:#ffffff;stroke-linecap:square;stroke-linejoin:miter;stroke-width:0.8;"/>
   </g>
   <g id="patch_5">
    <path d="M 56.4125 228.437656 
L 391.2125 228.437656 
" style="fill:none;stroke:#ffffff;stroke-linecap:square;stroke-linejoin:miter;stroke-width:0.8;"/>
   </g>
   <g id="patch_6">
    <path d="M 56.4125 10.997656 
L 391.2125 10.997656 
" style="fill:none;stroke:#ffffff;stroke-linecap:square;stroke-linejoin:miter;stroke-width:0.8;"/>
   </g>
  </g>
 </g>
 <defs>
  <clipPath id="p9218e5210c">
   <rect height="217.44" width="334.8" x="56.4125" y="10.997656"/>
  </clipPath>
 </defs>
</svg>
